<?xml version="1.0" encoding="UTF-8" standalone="no"?>
<!DOCTYPE svg PUBLIC "-//W3C//DTD SVG 1.1//EN"
 "http://www.w3.org/Graphics/SVG/1.1/DTD/svg11.dtd">
<!-- Generated by graphviz version 2.43.0 (0)
 -->
<!-- Title: ast Pages: 1 -->
<svg width="914pt" height="800pt"
 viewBox="0.00 0.00 914.00 800.00" xmlns="http://www.w3.org/2000/svg" xmlns:xlink="http://www.w3.org/1999/xlink">
<g id="graph0" class="graph" transform="scale(1 1) rotate(0) translate(4 796)">
<title>ast</title>
<polygon fill="white" stroke="transparent" points="-4,4 -4,-796 910,-796 910,4 -4,4"/>
<!-- N0 -->
<g id="node1" class="node">
<title>N0</title>
<polygon fill="none" stroke="black" points="299.5,-792 220.5,-792 220.5,-756 299.5,-756 299.5,-792"/>
<text text-anchor="middle" x="260" y="-770.3" font-family="Times,serif" font-size="14.00">Program</text>
</g>
<!-- N1 -->
<g id="node2" class="node">
<title>N1</title>
<polygon fill="none" stroke="black" points="301.5,-684 218.5,-684 218.5,-648 301.5,-648 301.5,-684"/>
<text text-anchor="middle" x="260" y="-662.3" font-family="Times,serif" font-size="14.00">LetInEnd</text>
</g>
<!-- N0&#45;&gt;N1 -->
<g id="edge17" class="edge">
<title>N0&#45;&gt;N1</title>
<path fill="none" stroke="black" d="M260,-755.97C260,-739.38 260,-713.88 260,-694.43"/>
<polygon fill="black" stroke="black" points="263.5,-694.34 260,-684.34 256.5,-694.34 263.5,-694.34"/>
</g>
<!-- N2 -->
<g id="node3" class="node">
<title>N2</title>
<polygon fill="none" stroke="black" points="236,-576 110,-576 110,-540 236,-540 236,-576"/>
<text text-anchor="middle" x="173" y="-554.3" font-family="Times,serif" font-size="14.00">DeclarationList</text>
</g>
<!-- N1&#45;&gt;N2 -->
<g id="edge4" class="edge">
<title>N1&#45;&gt;N2</title>
<path fill="none" stroke="black" d="M246.02,-647.97C231.9,-630.76 209.92,-603.98 193.76,-584.29"/>
<polygon fill="black" stroke="black" points="196.28,-581.85 187.23,-576.34 190.87,-586.29 196.28,-581.85"/>
</g>
<!-- N6 -->
<g id="node7" class="node">
<title>N6</title>
<polygon fill="none" stroke="black" points="425,-576 347,-576 347,-540 425,-540 425,-576"/>
<text text-anchor="middle" x="386" y="-554.3" font-family="Times,serif" font-size="14.00">ExprSeq</text>
</g>
<!-- N1&#45;&gt;N6 -->
<g id="edge16" class="edge">
<title>N1&#45;&gt;N6</title>
<path fill="none" stroke="black" d="M280.24,-647.97C301.15,-630.38 333.96,-602.78 357.49,-582.99"/>
<polygon fill="black" stroke="black" points="359.99,-585.46 365.39,-576.34 355.48,-580.1 359.99,-585.46"/>
</g>
<!-- N3 -->
<g id="node4" class="node">
<title>N3</title>
<polygon fill="none" stroke="black" points="190,-468 116,-468 116,-432 190,-432 190,-468"/>
<text text-anchor="middle" x="153" y="-446.3" font-family="Times,serif" font-size="14.00">Dec_Var</text>
</g>
<!-- N2&#45;&gt;N3 -->
<g id="edge3" class="edge">
<title>N2&#45;&gt;N3</title>
<path fill="none" stroke="black" d="M169.79,-539.97C166.66,-523.38 161.85,-497.88 158.18,-478.43"/>
<polygon fill="black" stroke="black" points="161.57,-477.52 156.27,-468.34 154.69,-478.82 161.57,-477.52"/>
</g>
<!-- N4 -->
<g id="node5" class="node">
<title>N4</title>
<polygon fill="none" stroke="black" points="54,-360 0,-360 0,-324 54,-324 54,-360"/>
<text text-anchor="middle" x="27" y="-338.3" font-family="Times,serif" font-size="14.00">a</text>
</g>
<!-- N3&#45;&gt;N4 -->
<g id="edge1" class="edge">
<title>N3&#45;&gt;N4</title>
<path fill="none" stroke="black" d="M132.76,-431.97C111.85,-414.38 79.04,-386.78 55.51,-366.99"/>
<polygon fill="black" stroke="black" points="57.52,-364.1 47.61,-360.34 53.01,-369.46 57.52,-364.1"/>
</g>
<!-- N5 -->
<g id="node6" class="node">
<title>N5</title>
<polygon fill="none" stroke="black" points="180,-360 126,-360 126,-324 180,-324 180,-360"/>
<text text-anchor="middle" x="153" y="-338.3" font-family="Times,serif" font-size="14.00">0</text>
</g>
<!-- N3&#45;&gt;N5 -->
<g id="edge2" class="edge">
<title>N3&#45;&gt;N5</title>
<path fill="none" stroke="black" d="M153,-431.97C153,-415.38 153,-389.88 153,-370.43"/>
<polygon fill="black" stroke="black" points="156.5,-370.34 153,-360.34 149.5,-370.34 156.5,-370.34"/>
</g>
<!-- N7 -->
<g id="node8" class="node">
<title>N7</title>
<polygon fill="none" stroke="black" points="432,-468 378,-468 378,-432 432,-432 432,-468"/>
<text text-anchor="middle" x="405" y="-446.3" font-family="Times,serif" font-size="14.00">For</text>
</g>
<!-- N6&#45;&gt;N7 -->
<g id="edge15" class="edge">
<title>N6&#45;&gt;N7</title>
<path fill="none" stroke="black" d="M389.05,-539.97C392.03,-523.38 396.6,-497.88 400.08,-478.43"/>
<polygon fill="black" stroke="black" points="403.57,-478.8 401.89,-468.34 396.68,-477.57 403.57,-478.8"/>
</g>
<!-- N8 -->
<g id="node9" class="node">
<title>N8</title>
<polygon fill="none" stroke="black" points="306,-360 252,-360 252,-324 306,-324 306,-360"/>
<text text-anchor="middle" x="279" y="-338.3" font-family="Times,serif" font-size="14.00">i</text>
</g>
<!-- N7&#45;&gt;N8 -->
<g id="edge5" class="edge">
<title>N7&#45;&gt;N8</title>
<path fill="none" stroke="black" d="M384.76,-431.97C363.85,-414.38 331.04,-386.78 307.51,-366.99"/>
<polygon fill="black" stroke="black" points="309.52,-364.1 299.61,-360.34 305.01,-369.46 309.52,-364.1"/>
</g>
<!-- N9 -->
<g id="node10" class="node">
<title>N9</title>
<polygon fill="none" stroke="black" points="432,-360 378,-360 378,-324 432,-324 432,-360"/>
<text text-anchor="middle" x="405" y="-338.3" font-family="Times,serif" font-size="14.00">0</text>
</g>
<!-- N7&#45;&gt;N9 -->
<g id="edge6" class="edge">
<title>N7&#45;&gt;N9</title>
<path fill="none" stroke="black" d="M405,-431.97C405,-415.38 405,-389.88 405,-370.43"/>
<polygon fill="black" stroke="black" points="408.5,-370.34 405,-360.34 401.5,-370.34 408.5,-370.34"/>
</g>
<!-- N10 -->
<g id="node11" class="node">
<title>N10</title>
<polygon fill="none" stroke="black" points="558,-360 504,-360 504,-324 558,-324 558,-360"/>
<text text-anchor="middle" x="531" y="-338.3" font-family="Times,serif" font-size="14.00">100</text>
</g>
<!-- N7&#45;&gt;N10 -->
<g id="edge7" class="edge">
<title>N7&#45;&gt;N10</title>
<path fill="none" stroke="black" d="M425.24,-431.97C446.15,-414.38 478.96,-386.78 502.49,-366.99"/>
<polygon fill="black" stroke="black" points="504.99,-369.46 510.39,-360.34 500.48,-364.1 504.99,-369.46"/>
</g>
<!-- N11 -->
<g id="node12" class="node">
<title>N11</title>
<polygon fill="none" stroke="black" points="736,-360 630,-360 630,-324 736,-324 736,-360"/>
<text text-anchor="middle" x="683" y="-338.3" font-family="Times,serif" font-size="14.00">AffectLvalue</text>
</g>
<!-- N7&#45;&gt;N11 -->
<g id="edge14" class="edge">
<title>N7&#45;&gt;N11</title>
<path fill="none" stroke="black" d="M432.16,-438.64C477.46,-421.37 569.27,-386.36 628.37,-363.83"/>
<polygon fill="black" stroke="black" points="629.82,-367.02 637.92,-360.19 627.33,-360.48 629.82,-367.02"/>
</g>
<!-- N12 -->
<g id="node13" class="node">
<title>N12</title>
<polygon fill="none" stroke="black" points="649,-252 585,-252 585,-216 649,-216 649,-252"/>
<text text-anchor="middle" x="617" y="-230.3" font-family="Times,serif" font-size="14.00">Lvalue</text>
</g>
<!-- N11&#45;&gt;N12 -->
<g id="edge9" class="edge">
<title>N11&#45;&gt;N12</title>
<path fill="none" stroke="black" d="M672.4,-323.97C661.83,-306.99 645.45,-280.7 633.24,-261.09"/>
<polygon fill="black" stroke="black" points="636.05,-258.98 627.8,-252.34 630.11,-262.68 636.05,-258.98"/>
</g>
<!-- N14 -->
<g id="node18" class="node">
<title>N14</title>
<polygon fill="none" stroke="black" points="775,-252 721,-252 721,-216 775,-216 775,-252"/>
<text text-anchor="middle" x="748" y="-230.3" font-family="Times,serif" font-size="14.00">+</text>
</g>
<!-- N11&#45;&gt;N14 -->
<g id="edge13" class="edge">
<title>N11&#45;&gt;N14</title>
<path fill="none" stroke="black" d="M693.44,-323.97C703.85,-306.99 719.98,-280.7 732,-261.09"/>
<polygon fill="black" stroke="black" points="735.12,-262.7 737.37,-252.34 729.16,-259.04 735.12,-262.7"/>
</g>
<!-- N13 -->
<g id="node14" class="node">
<title>N13</title>
<polygon fill="none" stroke="black" points="644,-144 590,-144 590,-108 644,-108 644,-144"/>
<text text-anchor="middle" x="617" y="-122.3" font-family="Times,serif" font-size="14.00">a</text>
</g>
<!-- N12&#45;&gt;N13 -->
<g id="edge8" class="edge">
<title>N12&#45;&gt;N13</title>
<path fill="none" stroke="black" d="M617,-215.97C617,-199.38 617,-173.88 617,-154.43"/>
<polygon fill="black" stroke="black" points="620.5,-154.34 617,-144.34 613.5,-154.34 620.5,-154.34"/>
</g>
<!-- N15 -->
<g id="node15" class="node">
<title>N15</title>
<polygon fill="none" stroke="black" points="780,-144 716,-144 716,-108 780,-108 780,-144"/>
<text text-anchor="middle" x="748" y="-122.3" font-family="Times,serif" font-size="14.00">Lvalue</text>
</g>
<!-- N16 -->
<g id="node16" class="node">
<title>N16</title>
<polygon fill="none" stroke="black" points="775,-36 721,-36 721,0 775,0 775,-36"/>
<text text-anchor="middle" x="748" y="-14.3" font-family="Times,serif" font-size="14.00">a</text>
</g>
<!-- N15&#45;&gt;N16 -->
<g id="edge10" class="edge">
<title>N15&#45;&gt;N16</title>
<path fill="none" stroke="black" d="M748,-107.97C748,-91.38 748,-65.88 748,-46.43"/>
<polygon fill="black" stroke="black" points="751.5,-46.34 748,-36.34 744.5,-46.34 751.5,-46.34"/>
</g>
<!-- N17 -->
<g id="node17" class="node">
<title>N17</title>
<polygon fill="none" stroke="black" points="906,-144 852,-144 852,-108 906,-108 906,-144"/>
<text text-anchor="middle" x="879" y="-122.3" font-family="Times,serif" font-size="14.00">1</text>
</g>
<!-- N14&#45;&gt;N15 -->
<g id="edge11" class="edge">
<title>N14&#45;&gt;N15</title>
<path fill="none" stroke="black" d="M748,-215.97C748,-199.38 748,-173.88 748,-154.43"/>
<polygon fill="black" stroke="black" points="751.5,-154.34 748,-144.34 744.5,-154.34 751.5,-154.34"/>
</g>
<!-- N14&#45;&gt;N17 -->
<g id="edge12" class="edge">
<title>N14&#45;&gt;N17</title>
<path fill="none" stroke="black" d="M769.05,-215.97C790.88,-198.3 825.19,-170.54 849.68,-150.73"/>
<polygon fill="black" stroke="black" points="852,-153.35 857.57,-144.34 847.59,-147.91 852,-153.35"/>
</g>
</g>
</svg>
