<?xml version="1.0" encoding="UTF-8" standalone="no"?>
<!DOCTYPE svg PUBLIC "-//W3C//DTD SVG 1.1//EN"
 "http://www.w3.org/Graphics/SVG/1.1/DTD/svg11.dtd">
<!-- Generated by graphviz version 2.43.0 (0)
 -->
<!-- Title: ast Pages: 1 -->
<svg width="814pt" height="692pt"
 viewBox="0.00 0.00 814.00 692.00" xmlns="http://www.w3.org/2000/svg" xmlns:xlink="http://www.w3.org/1999/xlink">
<g id="graph0" class="graph" transform="scale(1 1) rotate(0) translate(4 688)">
<title>ast</title>
<polygon fill="white" stroke="transparent" points="-4,4 -4,-688 810,-688 810,4 -4,4"/>
<!-- N0 -->
<g id="node1" class="node">
<title>N0</title>
<polygon fill="none" stroke="black" points="542.5,-684 463.5,-684 463.5,-648 542.5,-648 542.5,-684"/>
<text text-anchor="middle" x="503" y="-662.3" font-family="Times,serif" font-size="14.00">Program</text>
</g>
<!-- N1 -->
<g id="node2" class="node">
<title>N1</title>
<polygon fill="none" stroke="black" points="544.5,-576 461.5,-576 461.5,-540 544.5,-540 544.5,-576"/>
<text text-anchor="middle" x="503" y="-554.3" font-family="Times,serif" font-size="14.00">LetInEnd</text>
</g>
<!-- N0&#45;&gt;N1 -->
<g id="edge20" class="edge">
<title>N0&#45;&gt;N1</title>
<path fill="none" stroke="black" d="M503,-647.97C503,-631.38 503,-605.88 503,-586.43"/>
<polygon fill="black" stroke="black" points="506.5,-586.34 503,-576.34 499.5,-586.34 506.5,-586.34"/>
</g>
<!-- N2 -->
<g id="node3" class="node">
<title>N2</title>
<polygon fill="none" stroke="black" points="479,-468 353,-468 353,-432 479,-432 479,-468"/>
<text text-anchor="middle" x="416" y="-446.3" font-family="Times,serif" font-size="14.00">DeclarationList</text>
</g>
<!-- N1&#45;&gt;N2 -->
<g id="edge12" class="edge">
<title>N1&#45;&gt;N2</title>
<path fill="none" stroke="black" d="M489.02,-539.97C474.9,-522.76 452.92,-495.98 436.76,-476.29"/>
<polygon fill="black" stroke="black" points="439.28,-473.85 430.23,-468.34 433.87,-478.29 439.28,-473.85"/>
</g>
<!-- N14 -->
<g id="node15" class="node">
<title>N14</title>
<polygon fill="none" stroke="black" points="661,-468 583,-468 583,-432 661,-432 661,-468"/>
<text text-anchor="middle" x="622" y="-446.3" font-family="Times,serif" font-size="14.00">ExprSeq</text>
</g>
<!-- N1&#45;&gt;N14 -->
<g id="edge19" class="edge">
<title>N1&#45;&gt;N14</title>
<path fill="none" stroke="black" d="M522.12,-539.97C541.78,-522.46 572.58,-495.02 594.78,-475.25"/>
<polygon fill="black" stroke="black" points="597.39,-477.61 602.53,-468.34 592.74,-472.38 597.39,-477.61"/>
</g>
<!-- N3 -->
<g id="node4" class="node">
<title>N3</title>
<polygon fill="none" stroke="black" points="222,-360 144,-360 144,-324 222,-324 222,-360"/>
<text text-anchor="middle" x="183" y="-338.3" font-family="Times,serif" font-size="14.00">DecType</text>
</g>
<!-- N2&#45;&gt;N3 -->
<g id="edge6" class="edge">
<title>N2&#45;&gt;N3</title>
<path fill="none" stroke="black" d="M378.56,-431.97C338.18,-413.6 273.78,-384.3 230.01,-364.39"/>
<polygon fill="black" stroke="black" points="231.28,-361.12 220.73,-360.16 228.38,-367.49 231.28,-361.12"/>
</g>
<!-- N9 -->
<g id="node10" class="node">
<title>N9</title>
<polygon fill="none" stroke="black" points="391,-360 313,-360 313,-324 391,-324 391,-360"/>
<text text-anchor="middle" x="352" y="-338.3" font-family="Times,serif" font-size="14.00">DecType</text>
</g>
<!-- N2&#45;&gt;N9 -->
<g id="edge10" class="edge">
<title>N2&#45;&gt;N9</title>
<path fill="none" stroke="black" d="M405.72,-431.97C395.47,-414.99 379.59,-388.7 367.75,-369.09"/>
<polygon fill="black" stroke="black" points="370.63,-367.09 362.47,-360.34 364.64,-370.71 370.63,-367.09"/>
</g>
<!-- N13 -->
<g id="node14" class="node">
<title>N13</title>
<polygon fill="none" stroke="black" points="517,-360 463,-360 463,-324 517,-324 517,-360"/>
<text text-anchor="middle" x="490" y="-338.3" font-family="Times,serif" font-size="14.00">Todo</text>
</g>
<!-- N2&#45;&gt;N13 -->
<g id="edge11" class="edge">
<title>N2&#45;&gt;N13</title>
<path fill="none" stroke="black" d="M427.89,-431.97C439.85,-414.84 458.43,-388.22 472.16,-368.56"/>
<polygon fill="black" stroke="black" points="475.04,-370.54 477.89,-360.34 469.3,-366.54 475.04,-370.54"/>
</g>
<!-- N4 -->
<g id="node5" class="node">
<title>N4</title>
<polygon fill="none" stroke="black" points="54,-252 0,-252 0,-216 54,-216 54,-252"/>
<text text-anchor="middle" x="27" y="-230.3" font-family="Times,serif" font-size="14.00">rec</text>
</g>
<!-- N3&#45;&gt;N4 -->
<g id="edge4" class="edge">
<title>N3&#45;&gt;N4</title>
<path fill="none" stroke="black" d="M157.94,-323.97C131.63,-306.1 90.12,-277.89 60.9,-258.04"/>
<polygon fill="black" stroke="black" points="62.5,-254.89 52.26,-252.16 58.56,-260.68 62.5,-254.89"/>
</g>
<!-- N5 -->
<g id="node6" class="node">
<title>N5</title>
<polygon fill="none" stroke="black" points="240,-252 126,-252 126,-216 240,-216 240,-252"/>
<text text-anchor="middle" x="183" y="-230.3" font-family="Times,serif" font-size="14.00">TypeFieldList</text>
</g>
<!-- N3&#45;&gt;N5 -->
<g id="edge5" class="edge">
<title>N3&#45;&gt;N5</title>
<path fill="none" stroke="black" d="M183,-323.97C183,-307.38 183,-281.88 183,-262.43"/>
<polygon fill="black" stroke="black" points="186.5,-262.34 183,-252.34 179.5,-262.34 186.5,-262.34"/>
</g>
<!-- N6 -->
<g id="node7" class="node">
<title>N6</title>
<polygon fill="none" stroke="black" points="226.5,-144 139.5,-144 139.5,-108 226.5,-108 226.5,-144"/>
<text text-anchor="middle" x="183" y="-122.3" font-family="Times,serif" font-size="14.00">TypeField</text>
</g>
<!-- N5&#45;&gt;N6 -->
<g id="edge3" class="edge">
<title>N5&#45;&gt;N6</title>
<path fill="none" stroke="black" d="M183,-215.97C183,-199.38 183,-173.88 183,-154.43"/>
<polygon fill="black" stroke="black" points="186.5,-154.34 183,-144.34 179.5,-154.34 186.5,-154.34"/>
</g>
<!-- N7 -->
<g id="node8" class="node">
<title>N7</title>
<polygon fill="none" stroke="black" points="147,-36 93,-36 93,0 147,0 147,-36"/>
<text text-anchor="middle" x="120" y="-14.3" font-family="Times,serif" font-size="14.00">val</text>
</g>
<!-- N6&#45;&gt;N7 -->
<g id="edge1" class="edge">
<title>N6&#45;&gt;N7</title>
<path fill="none" stroke="black" d="M172.88,-107.97C162.79,-90.99 147.16,-64.7 135.51,-45.09"/>
<polygon fill="black" stroke="black" points="138.42,-43.15 130.31,-36.34 132.41,-46.73 138.42,-43.15"/>
</g>
<!-- N8 -->
<g id="node9" class="node">
<title>N8</title>
<polygon fill="none" stroke="black" points="273,-36 219,-36 219,0 273,0 273,-36"/>
<text text-anchor="middle" x="246" y="-14.3" font-family="Times,serif" font-size="14.00">int</text>
</g>
<!-- N6&#45;&gt;N8 -->
<g id="edge2" class="edge">
<title>N6&#45;&gt;N8</title>
<path fill="none" stroke="black" d="M193.12,-107.97C203.21,-90.99 218.84,-64.7 230.49,-45.09"/>
<polygon fill="black" stroke="black" points="233.59,-46.73 235.69,-36.34 227.58,-43.15 233.59,-46.73"/>
</g>
<!-- N10 -->
<g id="node11" class="node">
<title>N10</title>
<polygon fill="none" stroke="black" points="380,-252 312,-252 312,-216 380,-216 380,-252"/>
<text text-anchor="middle" x="346" y="-230.3" font-family="Times,serif" font-size="14.00">rec_arr</text>
</g>
<!-- N9&#45;&gt;N10 -->
<g id="edge8" class="edge">
<title>N9&#45;&gt;N10</title>
<path fill="none" stroke="black" d="M351.04,-323.97C350.1,-307.38 348.65,-281.88 347.55,-262.43"/>
<polygon fill="black" stroke="black" points="351.04,-262.13 346.98,-252.34 344.05,-262.52 351.04,-262.13"/>
</g>
<!-- N11 -->
<g id="node12" class="node">
<title>N11</title>
<polygon fill="none" stroke="black" points="543.5,-252 452.5,-252 452.5,-216 543.5,-216 543.5,-252"/>
<text text-anchor="middle" x="498" y="-230.3" font-family="Times,serif" font-size="14.00">ArrayType</text>
</g>
<!-- N9&#45;&gt;N11 -->
<g id="edge9" class="edge">
<title>N9&#45;&gt;N11</title>
<path fill="none" stroke="black" d="M375.46,-323.97C399.9,-306.23 438.36,-278.3 465.67,-258.47"/>
<polygon fill="black" stroke="black" points="468.08,-261.05 474.12,-252.34 463.97,-255.38 468.08,-261.05"/>
</g>
<!-- N12 -->
<g id="node13" class="node">
<title>N12</title>
<polygon fill="none" stroke="black" points="525,-144 471,-144 471,-108 525,-108 525,-144"/>
<text text-anchor="middle" x="498" y="-122.3" font-family="Times,serif" font-size="14.00">rec</text>
</g>
<!-- N11&#45;&gt;N12 -->
<g id="edge7" class="edge">
<title>N11&#45;&gt;N12</title>
<path fill="none" stroke="black" d="M498,-215.97C498,-199.38 498,-173.88 498,-154.43"/>
<polygon fill="black" stroke="black" points="501.5,-154.34 498,-144.34 494.5,-154.34 501.5,-154.34"/>
</g>
<!-- N15 -->
<g id="node16" class="node">
<title>N15</title>
<polygon fill="none" stroke="black" points="700.5,-360 595.5,-360 595.5,-324 700.5,-324 700.5,-360"/>
<text text-anchor="middle" x="648" y="-338.3" font-family="Times,serif" font-size="14.00">AffectLvalue</text>
</g>
<!-- N14&#45;&gt;N15 -->
<g id="edge18" class="edge">
<title>N14&#45;&gt;N15</title>
<path fill="none" stroke="black" d="M626.18,-431.97C630.27,-415.3 636.56,-389.65 641.34,-370.16"/>
<polygon fill="black" stroke="black" points="644.76,-370.89 643.75,-360.34 637.97,-369.22 644.76,-370.89"/>
</g>
<!-- N16 -->
<g id="node17" class="node">
<title>N16</title>
<polygon fill="none" stroke="black" points="680,-252 616,-252 616,-216 680,-216 680,-252"/>
<text text-anchor="middle" x="648" y="-230.3" font-family="Times,serif" font-size="14.00">Lvalue</text>
</g>
<!-- N15&#45;&gt;N16 -->
<g id="edge16" class="edge">
<title>N15&#45;&gt;N16</title>
<path fill="none" stroke="black" d="M648,-323.97C648,-307.38 648,-281.88 648,-262.43"/>
<polygon fill="black" stroke="black" points="651.5,-262.34 648,-252.34 644.5,-262.34 651.5,-262.34"/>
</g>
<!-- N20 -->
<g id="node21" class="node">
<title>N20</title>
<polygon fill="none" stroke="black" points="806,-252 752,-252 752,-216 806,-216 806,-252"/>
<text text-anchor="middle" x="779" y="-230.3" font-family="Times,serif" font-size="14.00">51</text>
</g>
<!-- N15&#45;&gt;N20 -->
<g id="edge17" class="edge">
<title>N15&#45;&gt;N20</title>
<path fill="none" stroke="black" d="M669.05,-323.97C690.88,-306.3 725.19,-278.54 749.68,-258.73"/>
<polygon fill="black" stroke="black" points="752,-261.35 757.57,-252.34 747.59,-255.91 752,-261.35"/>
</g>
<!-- N17 -->
<g id="node18" class="node">
<title>N17</title>
<polygon fill="none" stroke="black" points="663,-144 609,-144 609,-108 663,-108 663,-144"/>
<text text-anchor="middle" x="636" y="-122.3" font-family="Times,serif" font-size="14.00">table</text>
</g>
<!-- N16&#45;&gt;N17 -->
<g id="edge14" class="edge">
<title>N16&#45;&gt;N17</title>
<path fill="none" stroke="black" d="M646.07,-215.97C644.19,-199.38 641.31,-173.88 639.11,-154.43"/>
<polygon fill="black" stroke="black" points="642.57,-153.88 637.96,-144.34 635.61,-154.67 642.57,-153.88"/>
</g>
<!-- N19 -->
<g id="node20" class="node">
<title>N19</title>
<polygon fill="none" stroke="black" points="789,-144 735,-144 735,-108 789,-108 789,-144"/>
<text text-anchor="middle" x="762" y="-122.3" font-family="Times,serif" font-size="14.00">val</text>
</g>
<!-- N16&#45;&gt;N19 -->
<g id="edge15" class="edge">
<title>N16&#45;&gt;N19</title>
<path fill="none" stroke="black" d="M666.32,-215.97C685.15,-198.46 714.66,-171.02 735.92,-151.25"/>
<polygon fill="black" stroke="black" points="738.41,-153.71 743.35,-144.34 733.64,-148.59 738.41,-153.71"/>
</g>
<!-- N18 -->
<g id="node19" class="node">
<title>N18</title>
<polygon fill="none" stroke="black" points="663,-36 609,-36 609,0 663,0 663,-36"/>
<text text-anchor="middle" x="636" y="-14.3" font-family="Times,serif" font-size="14.00">0</text>
</g>
<!-- N17&#45;&gt;N18 -->
<g id="edge13" class="edge">
<title>N17&#45;&gt;N18</title>
<path fill="none" stroke="black" d="M636,-107.97C636,-91.38 636,-65.88 636,-46.43"/>
<polygon fill="black" stroke="black" points="639.5,-46.34 636,-36.34 632.5,-46.34 639.5,-46.34"/>
</g>
</g>
</svg>
