<?xml version="1.0" encoding="UTF-8" standalone="no"?>
<!DOCTYPE svg PUBLIC "-//W3C//DTD SVG 1.1//EN"
 "http://www.w3.org/Graphics/SVG/1.1/DTD/svg11.dtd">
<!-- Generated by graphviz version 2.43.0 (0)
 -->
<!-- Title: ast Pages: 1 -->
<svg width="204pt" height="584pt"
 viewBox="0.00 0.00 204.00 584.00" xmlns="http://www.w3.org/2000/svg" xmlns:xlink="http://www.w3.org/1999/xlink">
<g id="graph0" class="graph" transform="scale(1 1) rotate(0) translate(4 580)">
<title>ast</title>
<polygon fill="white" stroke="transparent" points="-4,4 -4,-580 200,-580 200,4 -4,4"/>
<!-- N0 -->
<g id="node1" class="node">
<title>N0</title>
<polygon fill="none" stroke="black" points="134.5,-576 55.5,-576 55.5,-540 134.5,-540 134.5,-576"/>
<text text-anchor="middle" x="95" y="-554.3" font-family="Times,serif" font-size="14.00">Program</text>
</g>
<!-- N1 -->
<g id="node2" class="node">
<title>N1</title>
<polygon fill="none" stroke="black" points="136.5,-468 53.5,-468 53.5,-432 136.5,-432 136.5,-468"/>
<text text-anchor="middle" x="95" y="-446.3" font-family="Times,serif" font-size="14.00">LetInEnd</text>
</g>
<!-- N0&#45;&gt;N1 -->
<g id="edge6" class="edge">
<title>N0&#45;&gt;N1</title>
<path fill="none" stroke="black" d="M95,-539.97C95,-523.38 95,-497.88 95,-478.43"/>
<polygon fill="black" stroke="black" points="98.5,-478.34 95,-468.34 91.5,-478.34 98.5,-478.34"/>
</g>
<!-- N2 -->
<g id="node3" class="node">
<title>N2</title>
<polygon fill="none" stroke="black" points="158,-360 32,-360 32,-324 158,-324 158,-360"/>
<text text-anchor="middle" x="95" y="-338.3" font-family="Times,serif" font-size="14.00">DeclarationList</text>
</g>
<!-- N1&#45;&gt;N2 -->
<g id="edge5" class="edge">
<title>N1&#45;&gt;N2</title>
<path fill="none" stroke="black" d="M95,-431.97C95,-415.38 95,-389.88 95,-370.43"/>
<polygon fill="black" stroke="black" points="98.5,-370.34 95,-360.34 91.5,-370.34 98.5,-370.34"/>
</g>
<!-- N3 -->
<g id="node4" class="node">
<title>N3</title>
<polygon fill="none" stroke="black" points="132,-252 58,-252 58,-216 132,-216 132,-252"/>
<text text-anchor="middle" x="95" y="-230.3" font-family="Times,serif" font-size="14.00">Dec_Var</text>
</g>
<!-- N2&#45;&gt;N3 -->
<g id="edge4" class="edge">
<title>N2&#45;&gt;N3</title>
<path fill="none" stroke="black" d="M95,-323.97C95,-307.38 95,-281.88 95,-262.43"/>
<polygon fill="black" stroke="black" points="98.5,-262.34 95,-252.34 91.5,-262.34 98.5,-262.34"/>
</g>
<!-- N4 -->
<g id="node5" class="node">
<title>N4</title>
<polygon fill="none" stroke="black" points="56,-144 0,-144 0,-108 56,-108 56,-144"/>
<text text-anchor="middle" x="28" y="-122.3" font-family="Times,serif" font-size="14.00">mady</text>
</g>
<!-- N3&#45;&gt;N4 -->
<g id="edge2" class="edge">
<title>N3&#45;&gt;N4</title>
<path fill="none" stroke="black" d="M84.24,-215.97C73.46,-198.92 56.73,-172.46 44.32,-152.82"/>
<polygon fill="black" stroke="black" points="47.26,-150.92 38.96,-144.34 41.34,-154.66 47.26,-150.92"/>
</g>
<!-- N5 -->
<g id="node7" class="node">
<title>N5</title>
<polygon fill="none" stroke="black" points="196,-144 128,-144 128,-108 196,-108 196,-144"/>
<text text-anchor="middle" x="162" y="-122.3" font-family="Times,serif" font-size="14.00">Negate</text>
</g>
<!-- N3&#45;&gt;N5 -->
<g id="edge3" class="edge">
<title>N3&#45;&gt;N5</title>
<path fill="none" stroke="black" d="M105.76,-215.97C116.54,-198.92 133.27,-172.46 145.68,-152.82"/>
<polygon fill="black" stroke="black" points="148.66,-154.66 151.04,-144.34 142.74,-150.92 148.66,-154.66"/>
</g>
<!-- N6 -->
<g id="node6" class="node">
<title>N6</title>
<polygon fill="none" stroke="black" points="189,-36 135,-36 135,0 189,0 189,-36"/>
<text text-anchor="middle" x="162" y="-14.3" font-family="Times,serif" font-size="14.00">3</text>
</g>
<!-- N5&#45;&gt;N6 -->
<g id="edge1" class="edge">
<title>N5&#45;&gt;N6</title>
<path fill="none" stroke="black" d="M162,-107.97C162,-91.38 162,-65.88 162,-46.43"/>
<polygon fill="black" stroke="black" points="165.5,-46.34 162,-36.34 158.5,-46.34 165.5,-46.34"/>
</g>
</g>
</svg>
