<?xml version="1.0" encoding="UTF-8" standalone="no"?>
<!DOCTYPE svg PUBLIC "-//W3C//DTD SVG 1.1//EN"
 "http://www.w3.org/Graphics/SVG/1.1/DTD/svg11.dtd">
<!-- Generated by graphviz version 2.43.0 (0)
 -->
<!-- Title: ast Pages: 1 -->
<svg width="992pt" height="908pt"
 viewBox="0.00 0.00 992.00 908.00" xmlns="http://www.w3.org/2000/svg" xmlns:xlink="http://www.w3.org/1999/xlink">
<g id="graph0" class="graph" transform="scale(1 1) rotate(0) translate(4 904)">
<title>ast</title>
<polygon fill="white" stroke="transparent" points="-4,4 -4,-904 988,-904 988,4 -4,4"/>
<!-- N1 -->
<g id="node1" class="node">
<title>N1</title>
<polygon fill="none" stroke="black" points="547,-792 469,-792 469,-756 547,-756 547,-792"/>
<text text-anchor="middle" x="508" y="-770.3" font-family="Times,serif" font-size="14.00">InstrList</text>
</g>
<!-- N2 -->
<g id="node4" class="node">
<title>N2</title>
<polygon fill="none" stroke="black" points="182.5,-684 123.5,-684 123.5,-648 182.5,-648 182.5,-684"/>
<text text-anchor="middle" x="153" y="-662.3" font-family="Times,serif" font-size="14.00">Affect</text>
</g>
<!-- N1&#45;&gt;N2 -->
<g id="edge3" class="edge">
<title>N1&#45;&gt;N2</title>
<path fill="none" stroke="black" d="M468.99,-761.35C400.98,-741.04 261.41,-699.37 192.82,-678.89"/>
<polygon fill="black" stroke="black" points="193.42,-675.42 182.84,-675.91 191.42,-682.13 193.42,-675.42"/>
</g>
<!-- N5 -->
<g id="node7" class="node">
<title>N5</title>
<polygon fill="none" stroke="black" points="434.5,-684 375.5,-684 375.5,-648 434.5,-648 434.5,-684"/>
<text text-anchor="middle" x="405" y="-662.3" font-family="Times,serif" font-size="14.00">Affect</text>
</g>
<!-- N1&#45;&gt;N5 -->
<g id="edge6" class="edge">
<title>N1&#45;&gt;N5</title>
<path fill="none" stroke="black" d="M491.45,-755.97C474.58,-738.61 448.24,-711.5 429.07,-691.77"/>
<polygon fill="black" stroke="black" points="431.33,-689.07 421.85,-684.34 426.31,-693.95 431.33,-689.07"/>
</g>
<!-- N8 -->
<g id="node25" class="node">
<title>N8</title>
<polygon fill="none" stroke="black" points="657.5,-684 564.5,-684 564.5,-648 657.5,-648 657.5,-684"/>
<text text-anchor="middle" x="611" y="-662.3" font-family="Times,serif" font-size="14.00">IfThenElse</text>
</g>
<!-- N1&#45;&gt;N8 -->
<g id="edge24" class="edge">
<title>N1&#45;&gt;N8</title>
<path fill="none" stroke="black" d="M524.55,-755.97C541.42,-738.61 567.76,-711.5 586.93,-691.77"/>
<polygon fill="black" stroke="black" points="589.69,-693.95 594.15,-684.34 584.67,-689.07 589.69,-693.95"/>
</g>
<!-- N26 -->
<g id="node27" class="node">
<title>N26</title>
<polygon fill="none" stroke="black" points="884,-684 830,-684 830,-648 884,-648 884,-684"/>
<text text-anchor="middle" x="857" y="-662.3" font-family="Times,serif" font-size="14.00">print</text>
</g>
<!-- N1&#45;&gt;N26 -->
<g id="edge26" class="edge">
<title>N1&#45;&gt;N26</title>
<path fill="none" stroke="black" d="M547.02,-761.15C614.86,-740.54 753.65,-698.39 820.04,-678.23"/>
<polygon fill="black" stroke="black" points="821.12,-681.56 829.67,-675.3 819.08,-674.86 821.12,-681.56"/>
</g>
<!-- N3 -->
<g id="node2" class="node">
<title>N3</title>
<polygon fill="none" stroke="black" points="54,-576 0,-576 0,-540 54,-540 54,-576"/>
<text text-anchor="middle" x="27" y="-554.3" font-family="Times,serif" font-size="14.00">a</text>
</g>
<!-- N4 -->
<g id="node3" class="node">
<title>N4</title>
<polygon fill="none" stroke="black" points="180,-576 126,-576 126,-540 180,-540 180,-576"/>
<text text-anchor="middle" x="153" y="-554.3" font-family="Times,serif" font-size="14.00">2</text>
</g>
<!-- N2&#45;&gt;N3 -->
<g id="edge1" class="edge">
<title>N2&#45;&gt;N3</title>
<path fill="none" stroke="black" d="M132.76,-647.97C111.85,-630.38 79.04,-602.78 55.51,-582.99"/>
<polygon fill="black" stroke="black" points="57.52,-580.1 47.61,-576.34 53.01,-585.46 57.52,-580.1"/>
</g>
<!-- N2&#45;&gt;N4 -->
<g id="edge2" class="edge">
<title>N2&#45;&gt;N4</title>
<path fill="none" stroke="black" d="M153,-647.97C153,-631.38 153,-605.88 153,-586.43"/>
<polygon fill="black" stroke="black" points="156.5,-586.34 153,-576.34 149.5,-586.34 156.5,-586.34"/>
</g>
<!-- N6 -->
<g id="node5" class="node">
<title>N6</title>
<polygon fill="none" stroke="black" points="306,-576 252,-576 252,-540 306,-540 306,-576"/>
<text text-anchor="middle" x="279" y="-554.3" font-family="Times,serif" font-size="14.00">b</text>
</g>
<!-- N7 -->
<g id="node6" class="node">
<title>N7</title>
<polygon fill="none" stroke="black" points="432,-576 378,-576 378,-540 432,-540 432,-576"/>
<text text-anchor="middle" x="405" y="-554.3" font-family="Times,serif" font-size="14.00">0</text>
</g>
<!-- N5&#45;&gt;N6 -->
<g id="edge4" class="edge">
<title>N5&#45;&gt;N6</title>
<path fill="none" stroke="black" d="M384.76,-647.97C363.85,-630.38 331.04,-602.78 307.51,-582.99"/>
<polygon fill="black" stroke="black" points="309.52,-580.1 299.61,-576.34 305.01,-585.46 309.52,-580.1"/>
</g>
<!-- N5&#45;&gt;N7 -->
<g id="edge5" class="edge">
<title>N5&#45;&gt;N7</title>
<path fill="none" stroke="black" d="M405,-647.97C405,-631.38 405,-605.88 405,-586.43"/>
<polygon fill="black" stroke="black" points="408.5,-586.34 405,-576.34 401.5,-586.34 408.5,-586.34"/>
</g>
<!-- N9 -->
<g id="node8" class="node">
<title>N9</title>
<polygon fill="none" stroke="black" points="558,-576 504,-576 504,-540 558,-540 558,-576"/>
<text text-anchor="middle" x="531" y="-554.3" font-family="Times,serif" font-size="14.00">a</text>
</g>
<!-- N10 -->
<g id="node9" class="node">
<title>N10</title>
<polygon fill="none" stroke="black" points="708,-576 630,-576 630,-540 708,-540 708,-576"/>
<text text-anchor="middle" x="669" y="-554.3" font-family="Times,serif" font-size="14.00">InstrList</text>
</g>
<!-- N11 -->
<g id="node20" class="node">
<title>N11</title>
<polygon fill="none" stroke="black" points="698.5,-468 639.5,-468 639.5,-432 698.5,-432 698.5,-468"/>
<text text-anchor="middle" x="669" y="-446.3" font-family="Times,serif" font-size="14.00">Affect</text>
</g>
<!-- N10&#45;&gt;N11 -->
<g id="edge17" class="edge">
<title>N10&#45;&gt;N11</title>
<path fill="none" stroke="black" d="M669,-539.97C669,-523.38 669,-497.88 669,-478.43"/>
<polygon fill="black" stroke="black" points="672.5,-478.34 669,-468.34 665.5,-478.34 672.5,-478.34"/>
</g>
<!-- N12 -->
<g id="node10" class="node">
<title>N12</title>
<polygon fill="none" stroke="black" points="576,-360 522,-360 522,-324 576,-324 576,-360"/>
<text text-anchor="middle" x="549" y="-338.3" font-family="Times,serif" font-size="14.00">b</text>
</g>
<!-- N15 -->
<g id="node11" class="node">
<title>N15</title>
<polygon fill="none" stroke="black" points="513,-144 459,-144 459,-108 513,-108 513,-144"/>
<text text-anchor="middle" x="486" y="-122.3" font-family="Times,serif" font-size="14.00">1</text>
</g>
<!-- N16 -->
<g id="node12" class="node">
<title>N16</title>
<polygon fill="none" stroke="black" points="639,-144 585,-144 585,-108 639,-108 639,-144"/>
<text text-anchor="middle" x="612" y="-122.3" font-family="Times,serif" font-size="14.00">2</text>
</g>
<!-- N14 -->
<g id="node13" class="node">
<title>N14</title>
<polygon fill="none" stroke="black" points="639,-252 585,-252 585,-216 639,-216 639,-252"/>
<text text-anchor="middle" x="612" y="-230.3" font-family="Times,serif" font-size="14.00">+</text>
</g>
<!-- N14&#45;&gt;N15 -->
<g id="edge7" class="edge">
<title>N14&#45;&gt;N15</title>
<path fill="none" stroke="black" d="M591.76,-215.97C570.85,-198.38 538.04,-170.78 514.51,-150.99"/>
<polygon fill="black" stroke="black" points="516.52,-148.1 506.61,-144.34 512.01,-153.46 516.52,-148.1"/>
</g>
<!-- N14&#45;&gt;N16 -->
<g id="edge8" class="edge">
<title>N14&#45;&gt;N16</title>
<path fill="none" stroke="black" d="M612,-215.97C612,-199.38 612,-173.88 612,-154.43"/>
<polygon fill="black" stroke="black" points="615.5,-154.34 612,-144.34 608.5,-154.34 615.5,-154.34"/>
</g>
<!-- N19 -->
<g id="node14" class="node">
<title>N19</title>
<polygon fill="none" stroke="black" points="702,-36 648,-36 648,0 702,0 702,-36"/>
<text text-anchor="middle" x="675" y="-14.3" font-family="Times,serif" font-size="14.00">3</text>
</g>
<!-- N20 -->
<g id="node15" class="node">
<title>N20</title>
<polygon fill="none" stroke="black" points="828,-36 774,-36 774,0 828,0 828,-36"/>
<text text-anchor="middle" x="801" y="-14.3" font-family="Times,serif" font-size="14.00">4</text>
</g>
<!-- N18 -->
<g id="node16" class="node">
<title>N18</title>
<polygon fill="none" stroke="black" points="765,-144 711,-144 711,-108 765,-108 765,-144"/>
<text text-anchor="middle" x="738" y="-122.3" font-family="Times,serif" font-size="14.00">+</text>
</g>
<!-- N18&#45;&gt;N19 -->
<g id="edge9" class="edge">
<title>N18&#45;&gt;N19</title>
<path fill="none" stroke="black" d="M727.88,-107.97C717.79,-90.99 702.16,-64.7 690.51,-45.09"/>
<polygon fill="black" stroke="black" points="693.42,-43.15 685.31,-36.34 687.41,-46.73 693.42,-43.15"/>
</g>
<!-- N18&#45;&gt;N20 -->
<g id="edge10" class="edge">
<title>N18&#45;&gt;N20</title>
<path fill="none" stroke="black" d="M748.12,-107.97C758.21,-90.99 773.84,-64.7 785.49,-45.09"/>
<polygon fill="black" stroke="black" points="788.59,-46.73 790.69,-36.34 782.58,-43.15 788.59,-46.73"/>
</g>
<!-- N21 -->
<g id="node17" class="node">
<title>N21</title>
<polygon fill="none" stroke="black" points="891,-144 837,-144 837,-108 891,-108 891,-144"/>
<text text-anchor="middle" x="864" y="-122.3" font-family="Times,serif" font-size="14.00">5</text>
</g>
<!-- N17 -->
<g id="node18" class="node">
<title>N17</title>
<polygon fill="none" stroke="black" points="765,-252 711,-252 711,-216 765,-216 765,-252"/>
<text text-anchor="middle" x="738" y="-230.3" font-family="Times,serif" font-size="14.00">*</text>
</g>
<!-- N17&#45;&gt;N18 -->
<g id="edge11" class="edge">
<title>N17&#45;&gt;N18</title>
<path fill="none" stroke="black" d="M738,-215.97C738,-199.38 738,-173.88 738,-154.43"/>
<polygon fill="black" stroke="black" points="741.5,-154.34 738,-144.34 734.5,-154.34 741.5,-154.34"/>
</g>
<!-- N17&#45;&gt;N21 -->
<g id="edge12" class="edge">
<title>N17&#45;&gt;N21</title>
<path fill="none" stroke="black" d="M758.24,-215.97C779.15,-198.38 811.96,-170.78 835.49,-150.99"/>
<polygon fill="black" stroke="black" points="837.99,-153.46 843.39,-144.34 833.48,-148.1 837.99,-153.46"/>
</g>
<!-- N13 -->
<g id="node19" class="node">
<title>N13</title>
<polygon fill="none" stroke="black" points="702,-360 648,-360 648,-324 702,-324 702,-360"/>
<text text-anchor="middle" x="675" y="-338.3" font-family="Times,serif" font-size="14.00">+</text>
</g>
<!-- N13&#45;&gt;N14 -->
<g id="edge13" class="edge">
<title>N13&#45;&gt;N14</title>
<path fill="none" stroke="black" d="M664.88,-323.97C654.79,-306.99 639.16,-280.7 627.51,-261.09"/>
<polygon fill="black" stroke="black" points="630.42,-259.15 622.31,-252.34 624.41,-262.73 630.42,-259.15"/>
</g>
<!-- N13&#45;&gt;N17 -->
<g id="edge14" class="edge">
<title>N13&#45;&gt;N17</title>
<path fill="none" stroke="black" d="M685.12,-323.97C695.21,-306.99 710.84,-280.7 722.49,-261.09"/>
<polygon fill="black" stroke="black" points="725.59,-262.73 727.69,-252.34 719.58,-259.15 725.59,-262.73"/>
</g>
<!-- N11&#45;&gt;N12 -->
<g id="edge15" class="edge">
<title>N11&#45;&gt;N12</title>
<path fill="none" stroke="black" d="M649.72,-431.97C629.81,-414.38 598.56,-386.78 576.16,-366.99"/>
<polygon fill="black" stroke="black" points="578.44,-364.34 568.63,-360.34 573.81,-369.58 578.44,-364.34"/>
</g>
<!-- N11&#45;&gt;N13 -->
<g id="edge16" class="edge">
<title>N11&#45;&gt;N13</title>
<path fill="none" stroke="black" d="M669.96,-431.97C670.9,-415.38 672.35,-389.88 673.45,-370.43"/>
<polygon fill="black" stroke="black" points="676.95,-370.52 674.02,-360.34 669.96,-370.13 676.95,-370.52"/>
</g>
<!-- N22 -->
<g id="node21" class="node">
<title>N22</title>
<polygon fill="none" stroke="black" points="858,-576 780,-576 780,-540 858,-540 858,-576"/>
<text text-anchor="middle" x="819" y="-554.3" font-family="Times,serif" font-size="14.00">InstrList</text>
</g>
<!-- N23 -->
<g id="node24" class="node">
<title>N23</title>
<polygon fill="none" stroke="black" points="848.5,-468 789.5,-468 789.5,-432 848.5,-432 848.5,-468"/>
<text text-anchor="middle" x="819" y="-446.3" font-family="Times,serif" font-size="14.00">Affect</text>
</g>
<!-- N22&#45;&gt;N23 -->
<g id="edge20" class="edge">
<title>N22&#45;&gt;N23</title>
<path fill="none" stroke="black" d="M819,-539.97C819,-523.38 819,-497.88 819,-478.43"/>
<polygon fill="black" stroke="black" points="822.5,-478.34 819,-468.34 815.5,-478.34 822.5,-478.34"/>
</g>
<!-- N24 -->
<g id="node22" class="node">
<title>N24</title>
<polygon fill="none" stroke="black" points="840,-360 786,-360 786,-324 840,-324 840,-360"/>
<text text-anchor="middle" x="813" y="-338.3" font-family="Times,serif" font-size="14.00">b</text>
</g>
<!-- N25 -->
<g id="node23" class="node">
<title>N25</title>
<polygon fill="none" stroke="black" points="966,-360 912,-360 912,-324 966,-324 966,-360"/>
<text text-anchor="middle" x="939" y="-338.3" font-family="Times,serif" font-size="14.00">2</text>
</g>
<!-- N23&#45;&gt;N24 -->
<g id="edge18" class="edge">
<title>N23&#45;&gt;N24</title>
<path fill="none" stroke="black" d="M818.04,-431.97C817.1,-415.38 815.65,-389.88 814.55,-370.43"/>
<polygon fill="black" stroke="black" points="818.04,-370.13 813.98,-360.34 811.05,-370.52 818.04,-370.13"/>
</g>
<!-- N23&#45;&gt;N25 -->
<g id="edge19" class="edge">
<title>N23&#45;&gt;N25</title>
<path fill="none" stroke="black" d="M838.28,-431.97C858.19,-414.38 889.44,-386.78 911.84,-366.99"/>
<polygon fill="black" stroke="black" points="914.19,-369.58 919.37,-360.34 909.56,-364.34 914.19,-369.58"/>
</g>
<!-- N8&#45;&gt;N9 -->
<g id="edge21" class="edge">
<title>N8&#45;&gt;N9</title>
<path fill="none" stroke="black" d="M598.15,-647.97C585.22,-630.84 565.13,-604.22 550.29,-584.56"/>
<polygon fill="black" stroke="black" points="552.91,-582.21 544.09,-576.34 547.32,-586.43 552.91,-582.21"/>
</g>
<!-- N8&#45;&gt;N10 -->
<g id="edge22" class="edge">
<title>N8&#45;&gt;N10</title>
<path fill="none" stroke="black" d="M620.32,-647.97C629.57,-631.07 643.87,-604.94 654.58,-585.36"/>
<polygon fill="black" stroke="black" points="657.78,-586.79 659.51,-576.34 651.64,-583.43 657.78,-586.79"/>
</g>
<!-- N8&#45;&gt;N22 -->
<g id="edge23" class="edge">
<title>N8&#45;&gt;N22</title>
<path fill="none" stroke="black" d="M644.42,-647.97C680.25,-629.71 737.23,-600.67 776.29,-580.76"/>
<polygon fill="black" stroke="black" points="778,-583.82 785.32,-576.16 774.82,-577.59 778,-583.82"/>
</g>
<!-- N27 -->
<g id="node26" class="node">
<title>N27</title>
<polygon fill="none" stroke="black" points="984,-576 930,-576 930,-540 984,-540 984,-576"/>
<text text-anchor="middle" x="957" y="-554.3" font-family="Times,serif" font-size="14.00">b</text>
</g>
<!-- N26&#45;&gt;N27 -->
<g id="edge25" class="edge">
<title>N26&#45;&gt;N27</title>
<path fill="none" stroke="black" d="M873.07,-647.97C889.44,-630.61 915.02,-603.5 933.63,-583.77"/>
<polygon fill="black" stroke="black" points="936.32,-586.02 940.64,-576.34 931.23,-581.21 936.32,-586.02"/>
</g>
<!-- N0 -->
<g id="node28" class="node">
<title>N0</title>
<polygon fill="none" stroke="black" points="547.5,-900 468.5,-900 468.5,-864 547.5,-864 547.5,-900"/>
<text text-anchor="middle" x="508" y="-878.3" font-family="Times,serif" font-size="14.00">Program</text>
</g>
<!-- N0&#45;&gt;N1 -->
<g id="edge27" class="edge">
<title>N0&#45;&gt;N1</title>
<path fill="none" stroke="black" d="M508,-863.97C508,-847.38 508,-821.88 508,-802.43"/>
<polygon fill="black" stroke="black" points="511.5,-802.34 508,-792.34 504.5,-802.34 511.5,-802.34"/>
</g>
</g>
</svg>
