<?xml version="1.0" encoding="UTF-8" standalone="no"?>
<!DOCTYPE svg PUBLIC "-//W3C//DTD SVG 1.1//EN"
 "http://www.w3.org/Graphics/SVG/1.1/DTD/svg11.dtd">
<!-- Generated by graphviz version 2.43.0 (0)
 -->
<!-- Title: ast Pages: 1 -->
<svg width="725pt" height="800pt"
 viewBox="0.00 0.00 725.00 800.00" xmlns="http://www.w3.org/2000/svg" xmlns:xlink="http://www.w3.org/1999/xlink">
<g id="graph0" class="graph" transform="scale(1 1) rotate(0) translate(4 796)">
<title>ast</title>
<polygon fill="white" stroke="transparent" points="-4,4 -4,-796 721,-796 721,4 -4,4"/>
<!-- N0 -->
<g id="node1" class="node">
<title>N0</title>
<polygon fill="none" stroke="black" points="267.5,-792 188.5,-792 188.5,-756 267.5,-756 267.5,-792"/>
<text text-anchor="middle" x="228" y="-770.3" font-family="Times,serif" font-size="14.00">Program</text>
</g>
<!-- N1 -->
<g id="node2" class="node">
<title>N1</title>
<polygon fill="none" stroke="black" points="269.5,-684 186.5,-684 186.5,-648 269.5,-648 269.5,-684"/>
<text text-anchor="middle" x="228" y="-662.3" font-family="Times,serif" font-size="14.00">LetInEnd</text>
</g>
<!-- N0&#45;&gt;N1 -->
<g id="edge18" class="edge">
<title>N0&#45;&gt;N1</title>
<path fill="none" stroke="black" d="M228,-755.97C228,-739.38 228,-713.88 228,-694.43"/>
<polygon fill="black" stroke="black" points="231.5,-694.34 228,-684.34 224.5,-694.34 231.5,-694.34"/>
</g>
<!-- N2 -->
<g id="node3" class="node">
<title>N2</title>
<polygon fill="none" stroke="black" points="204,-576 78,-576 78,-540 204,-540 204,-576"/>
<text text-anchor="middle" x="141" y="-554.3" font-family="Times,serif" font-size="14.00">DeclarationList</text>
</g>
<!-- N1&#45;&gt;N2 -->
<g id="edge4" class="edge">
<title>N1&#45;&gt;N2</title>
<path fill="none" stroke="black" d="M214.02,-647.97C199.9,-630.76 177.92,-603.98 161.76,-584.29"/>
<polygon fill="black" stroke="black" points="164.28,-581.85 155.23,-576.34 158.87,-586.29 164.28,-581.85"/>
</g>
<!-- N6 -->
<g id="node7" class="node">
<title>N6</title>
<polygon fill="none" stroke="black" points="354,-576 276,-576 276,-540 354,-540 354,-576"/>
<text text-anchor="middle" x="315" y="-554.3" font-family="Times,serif" font-size="14.00">ExprSeq</text>
</g>
<!-- N1&#45;&gt;N6 -->
<g id="edge17" class="edge">
<title>N1&#45;&gt;N6</title>
<path fill="none" stroke="black" d="M241.98,-647.97C256.1,-630.76 278.08,-603.98 294.24,-584.29"/>
<polygon fill="black" stroke="black" points="297.13,-586.29 300.77,-576.34 291.72,-581.85 297.13,-586.29"/>
</g>
<!-- N3 -->
<g id="node4" class="node">
<title>N3</title>
<polygon fill="none" stroke="black" points="178,-468 104,-468 104,-432 178,-432 178,-468"/>
<text text-anchor="middle" x="141" y="-446.3" font-family="Times,serif" font-size="14.00">Dec_Var</text>
</g>
<!-- N2&#45;&gt;N3 -->
<g id="edge3" class="edge">
<title>N2&#45;&gt;N3</title>
<path fill="none" stroke="black" d="M141,-539.97C141,-523.38 141,-497.88 141,-478.43"/>
<polygon fill="black" stroke="black" points="144.5,-478.34 141,-468.34 137.5,-478.34 144.5,-478.34"/>
</g>
<!-- N4 -->
<g id="node5" class="node">
<title>N4</title>
<polygon fill="none" stroke="black" points="54,-360 0,-360 0,-324 54,-324 54,-360"/>
<text text-anchor="middle" x="27" y="-338.3" font-family="Times,serif" font-size="14.00">i</text>
</g>
<!-- N3&#45;&gt;N4 -->
<g id="edge1" class="edge">
<title>N3&#45;&gt;N4</title>
<path fill="none" stroke="black" d="M122.68,-431.97C103.85,-414.46 74.34,-387.02 53.08,-367.25"/>
<polygon fill="black" stroke="black" points="55.36,-364.59 45.65,-360.34 50.59,-369.71 55.36,-364.59"/>
</g>
<!-- N5 -->
<g id="node6" class="node">
<title>N5</title>
<polygon fill="none" stroke="black" points="180,-360 126,-360 126,-324 180,-324 180,-360"/>
<text text-anchor="middle" x="153" y="-338.3" font-family="Times,serif" font-size="14.00">0</text>
</g>
<!-- N3&#45;&gt;N5 -->
<g id="edge2" class="edge">
<title>N3&#45;&gt;N5</title>
<path fill="none" stroke="black" d="M142.93,-431.97C144.81,-415.38 147.69,-389.88 149.89,-370.43"/>
<polygon fill="black" stroke="black" points="153.39,-370.67 151.04,-360.34 146.43,-369.88 153.39,-370.67"/>
</g>
<!-- N7 -->
<g id="node8" class="node">
<title>N7</title>
<polygon fill="none" stroke="black" points="343.5,-468 286.5,-468 286.5,-432 343.5,-432 343.5,-468"/>
<text text-anchor="middle" x="315" y="-446.3" font-family="Times,serif" font-size="14.00">While</text>
</g>
<!-- N6&#45;&gt;N7 -->
<g id="edge16" class="edge">
<title>N6&#45;&gt;N7</title>
<path fill="none" stroke="black" d="M315,-539.97C315,-523.38 315,-497.88 315,-478.43"/>
<polygon fill="black" stroke="black" points="318.5,-478.34 315,-468.34 311.5,-478.34 318.5,-478.34"/>
</g>
<!-- N8 -->
<g id="node11" class="node">
<title>N8</title>
<polygon fill="none" stroke="black" points="330,-360 276,-360 276,-324 330,-324 330,-360"/>
<text text-anchor="middle" x="303" y="-338.3" font-family="Times,serif" font-size="14.00">&gt;</text>
</g>
<!-- N7&#45;&gt;N8 -->
<g id="edge7" class="edge">
<title>N7&#45;&gt;N8</title>
<path fill="none" stroke="black" d="M313.07,-431.97C311.19,-415.38 308.31,-389.88 306.11,-370.43"/>
<polygon fill="black" stroke="black" points="309.57,-369.88 304.96,-360.34 302.61,-370.67 309.57,-369.88"/>
</g>
<!-- N11 -->
<g id="node12" class="node">
<title>N11</title>
<polygon fill="none" stroke="black" points="480,-360 402,-360 402,-324 480,-324 480,-360"/>
<text text-anchor="middle" x="441" y="-338.3" font-family="Times,serif" font-size="14.00">ExprSeq</text>
</g>
<!-- N7&#45;&gt;N11 -->
<g id="edge15" class="edge">
<title>N7&#45;&gt;N11</title>
<path fill="none" stroke="black" d="M335.24,-431.97C356.15,-414.38 388.96,-386.78 412.49,-366.99"/>
<polygon fill="black" stroke="black" points="414.99,-369.46 420.39,-360.34 410.48,-364.1 414.99,-369.46"/>
</g>
<!-- N9 -->
<g id="node9" class="node">
<title>N9</title>
<polygon fill="none" stroke="black" points="207,-252 153,-252 153,-216 207,-216 207,-252"/>
<text text-anchor="middle" x="180" y="-230.3" font-family="Times,serif" font-size="14.00">10</text>
</g>
<!-- N10 -->
<g id="node10" class="node">
<title>N10</title>
<polygon fill="none" stroke="black" points="333,-252 279,-252 279,-216 333,-216 333,-252"/>
<text text-anchor="middle" x="306" y="-230.3" font-family="Times,serif" font-size="14.00">5</text>
</g>
<!-- N8&#45;&gt;N9 -->
<g id="edge5" class="edge">
<title>N8&#45;&gt;N9</title>
<path fill="none" stroke="black" d="M283.24,-323.97C262.83,-306.38 230.8,-278.78 207.83,-258.99"/>
<polygon fill="black" stroke="black" points="209.98,-256.22 200.12,-252.34 205.41,-261.52 209.98,-256.22"/>
</g>
<!-- N8&#45;&gt;N10 -->
<g id="edge6" class="edge">
<title>N8&#45;&gt;N10</title>
<path fill="none" stroke="black" d="M303.48,-323.97C303.95,-307.38 304.67,-281.88 305.22,-262.43"/>
<polygon fill="black" stroke="black" points="308.72,-262.44 305.51,-252.34 301.73,-262.24 308.72,-262.44"/>
</g>
<!-- N12 -->
<g id="node16" class="node">
<title>N12</title>
<polygon fill="none" stroke="black" points="465,-252 411,-252 411,-216 465,-216 465,-252"/>
<text text-anchor="middle" x="438" y="-230.3" font-family="Times,serif" font-size="14.00">+</text>
</g>
<!-- N11&#45;&gt;N12 -->
<g id="edge11" class="edge">
<title>N11&#45;&gt;N12</title>
<path fill="none" stroke="black" d="M440.52,-323.97C440.05,-307.38 439.33,-281.88 438.78,-262.43"/>
<polygon fill="black" stroke="black" points="442.27,-262.24 438.49,-252.34 435.28,-262.44 442.27,-262.24"/>
</g>
<!-- N16 -->
<g id="node19" class="node">
<title>N16</title>
<polygon fill="none" stroke="black" points="591,-252 537,-252 537,-216 591,-216 591,-252"/>
<text text-anchor="middle" x="564" y="-230.3" font-family="Times,serif" font-size="14.00">+</text>
</g>
<!-- N11&#45;&gt;N16 -->
<g id="edge14" class="edge">
<title>N11&#45;&gt;N16</title>
<path fill="none" stroke="black" d="M460.76,-323.97C481.17,-306.38 513.2,-278.78 536.17,-258.99"/>
<polygon fill="black" stroke="black" points="538.59,-261.52 543.88,-252.34 534.02,-256.22 538.59,-261.52"/>
</g>
<!-- N13 -->
<g id="node13" class="node">
<title>N13</title>
<polygon fill="none" stroke="black" points="339,-144 275,-144 275,-108 339,-108 339,-144"/>
<text text-anchor="middle" x="307" y="-122.3" font-family="Times,serif" font-size="14.00">Lvalue</text>
</g>
<!-- N14 -->
<g id="node14" class="node">
<title>N14</title>
<polygon fill="none" stroke="black" points="334,-36 280,-36 280,0 334,0 334,-36"/>
<text text-anchor="middle" x="307" y="-14.3" font-family="Times,serif" font-size="14.00">i</text>
</g>
<!-- N13&#45;&gt;N14 -->
<g id="edge8" class="edge">
<title>N13&#45;&gt;N14</title>
<path fill="none" stroke="black" d="M307,-107.97C307,-91.38 307,-65.88 307,-46.43"/>
<polygon fill="black" stroke="black" points="310.5,-46.34 307,-36.34 303.5,-46.34 310.5,-46.34"/>
</g>
<!-- N15 -->
<g id="node15" class="node">
<title>N15</title>
<polygon fill="none" stroke="black" points="465,-144 411,-144 411,-108 465,-108 465,-144"/>
<text text-anchor="middle" x="438" y="-122.3" font-family="Times,serif" font-size="14.00">1</text>
</g>
<!-- N12&#45;&gt;N13 -->
<g id="edge9" class="edge">
<title>N12&#45;&gt;N13</title>
<path fill="none" stroke="black" d="M416.95,-215.97C395.12,-198.3 360.81,-170.54 336.32,-150.73"/>
<polygon fill="black" stroke="black" points="338.41,-147.91 328.43,-144.34 334,-153.35 338.41,-147.91"/>
</g>
<!-- N12&#45;&gt;N15 -->
<g id="edge10" class="edge">
<title>N12&#45;&gt;N15</title>
<path fill="none" stroke="black" d="M438,-215.97C438,-199.38 438,-173.88 438,-154.43"/>
<polygon fill="black" stroke="black" points="441.5,-154.34 438,-144.34 434.5,-154.34 441.5,-154.34"/>
</g>
<!-- N17 -->
<g id="node17" class="node">
<title>N17</title>
<polygon fill="none" stroke="black" points="591,-144 537,-144 537,-108 591,-108 591,-144"/>
<text text-anchor="middle" x="564" y="-122.3" font-family="Times,serif" font-size="14.00">1</text>
</g>
<!-- N18 -->
<g id="node18" class="node">
<title>N18</title>
<polygon fill="none" stroke="black" points="717,-144 663,-144 663,-108 717,-108 717,-144"/>
<text text-anchor="middle" x="690" y="-122.3" font-family="Times,serif" font-size="14.00">2</text>
</g>
<!-- N16&#45;&gt;N17 -->
<g id="edge12" class="edge">
<title>N16&#45;&gt;N17</title>
<path fill="none" stroke="black" d="M564,-215.97C564,-199.38 564,-173.88 564,-154.43"/>
<polygon fill="black" stroke="black" points="567.5,-154.34 564,-144.34 560.5,-154.34 567.5,-154.34"/>
</g>
<!-- N16&#45;&gt;N18 -->
<g id="edge13" class="edge">
<title>N16&#45;&gt;N18</title>
<path fill="none" stroke="black" d="M584.24,-215.97C605.15,-198.38 637.96,-170.78 661.49,-150.99"/>
<polygon fill="black" stroke="black" points="663.99,-153.46 669.39,-144.34 659.48,-148.1 663.99,-153.46"/>
</g>
</g>
</svg>
