<?xml version="1.0" encoding="UTF-8" standalone="no"?>
<!DOCTYPE svg PUBLIC "-//W3C//DTD SVG 1.1//EN"
 "http://www.w3.org/Graphics/SVG/1.1/DTD/svg11.dtd">
<!-- Generated by graphviz version 2.43.0 (0)
 -->
<!-- Title: ast Pages: 1 -->
<svg width="697pt" height="584pt"
 viewBox="0.00 0.00 696.50 584.00" xmlns="http://www.w3.org/2000/svg" xmlns:xlink="http://www.w3.org/1999/xlink">
<g id="graph0" class="graph" transform="scale(1 1) rotate(0) translate(4 580)">
<title>ast</title>
<polygon fill="white" stroke="transparent" points="-4,4 -4,-580 692.5,-580 692.5,4 -4,4"/>
<!-- N0 -->
<g id="node1" class="node">
<title>N0</title>
<polygon fill="none" stroke="black" points="299.5,-576 220.5,-576 220.5,-540 299.5,-540 299.5,-576"/>
<text text-anchor="middle" x="260" y="-554.3" font-family="Times,serif" font-size="14.00">Program</text>
</g>
<!-- N1 -->
<g id="node2" class="node">
<title>N1</title>
<polygon fill="none" stroke="black" points="301.5,-468 218.5,-468 218.5,-432 301.5,-432 301.5,-468"/>
<text text-anchor="middle" x="260" y="-446.3" font-family="Times,serif" font-size="14.00">LetInEnd</text>
</g>
<!-- N0&#45;&gt;N1 -->
<g id="edge12" class="edge">
<title>N0&#45;&gt;N1</title>
<path fill="none" stroke="black" d="M260,-539.97C260,-523.38 260,-497.88 260,-478.43"/>
<polygon fill="black" stroke="black" points="263.5,-478.34 260,-468.34 256.5,-478.34 263.5,-478.34"/>
</g>
<!-- N2 -->
<g id="node3" class="node">
<title>N2</title>
<polygon fill="none" stroke="black" points="236,-360 110,-360 110,-324 236,-324 236,-360"/>
<text text-anchor="middle" x="173" y="-338.3" font-family="Times,serif" font-size="14.00">DeclarationList</text>
</g>
<!-- N1&#45;&gt;N2 -->
<g id="edge4" class="edge">
<title>N1&#45;&gt;N2</title>
<path fill="none" stroke="black" d="M246.02,-431.97C231.9,-414.76 209.92,-387.98 193.76,-368.29"/>
<polygon fill="black" stroke="black" points="196.28,-365.85 187.23,-360.34 190.87,-370.29 196.28,-365.85"/>
</g>
<!-- N6 -->
<g id="node7" class="node">
<title>N6</title>
<polygon fill="none" stroke="black" points="425,-360 347,-360 347,-324 425,-324 425,-360"/>
<text text-anchor="middle" x="386" y="-338.3" font-family="Times,serif" font-size="14.00">ExprSeq</text>
</g>
<!-- N1&#45;&gt;N6 -->
<g id="edge11" class="edge">
<title>N1&#45;&gt;N6</title>
<path fill="none" stroke="black" d="M280.24,-431.97C301.15,-414.38 333.96,-386.78 357.49,-366.99"/>
<polygon fill="black" stroke="black" points="359.99,-369.46 365.39,-360.34 355.48,-364.1 359.99,-369.46"/>
</g>
<!-- N3 -->
<g id="node4" class="node">
<title>N3</title>
<polygon fill="none" stroke="black" points="190,-252 116,-252 116,-216 190,-216 190,-252"/>
<text text-anchor="middle" x="153" y="-230.3" font-family="Times,serif" font-size="14.00">Dec_Var</text>
</g>
<!-- N2&#45;&gt;N3 -->
<g id="edge3" class="edge">
<title>N2&#45;&gt;N3</title>
<path fill="none" stroke="black" d="M169.79,-323.97C166.66,-307.38 161.85,-281.88 158.18,-262.43"/>
<polygon fill="black" stroke="black" points="161.57,-261.52 156.27,-252.34 154.69,-262.82 161.57,-261.52"/>
</g>
<!-- N4 -->
<g id="node5" class="node">
<title>N4</title>
<polygon fill="none" stroke="black" points="54,-144 0,-144 0,-108 54,-108 54,-144"/>
<text text-anchor="middle" x="27" y="-122.3" font-family="Times,serif" font-size="14.00">a</text>
</g>
<!-- N3&#45;&gt;N4 -->
<g id="edge1" class="edge">
<title>N3&#45;&gt;N4</title>
<path fill="none" stroke="black" d="M132.76,-215.97C111.85,-198.38 79.04,-170.78 55.51,-150.99"/>
<polygon fill="black" stroke="black" points="57.52,-148.1 47.61,-144.34 53.01,-153.46 57.52,-148.1"/>
</g>
<!-- N5 -->
<g id="node6" class="node">
<title>N5</title>
<polygon fill="none" stroke="black" points="180,-144 126,-144 126,-108 180,-108 180,-144"/>
<text text-anchor="middle" x="153" y="-122.3" font-family="Times,serif" font-size="14.00">0</text>
</g>
<!-- N3&#45;&gt;N5 -->
<g id="edge2" class="edge">
<title>N3&#45;&gt;N5</title>
<path fill="none" stroke="black" d="M153,-215.97C153,-199.38 153,-173.88 153,-154.43"/>
<polygon fill="black" stroke="black" points="156.5,-154.34 153,-144.34 149.5,-154.34 156.5,-154.34"/>
</g>
<!-- N7 -->
<g id="node8" class="node">
<title>N7</title>
<polygon fill="none" stroke="black" points="432,-252 378,-252 378,-216 432,-216 432,-252"/>
<text text-anchor="middle" x="405" y="-230.3" font-family="Times,serif" font-size="14.00">For</text>
</g>
<!-- N6&#45;&gt;N7 -->
<g id="edge10" class="edge">
<title>N6&#45;&gt;N7</title>
<path fill="none" stroke="black" d="M389.05,-323.97C392.03,-307.38 396.6,-281.88 400.08,-262.43"/>
<polygon fill="black" stroke="black" points="403.57,-262.8 401.89,-252.34 396.68,-261.57 403.57,-262.8"/>
</g>
<!-- N8 -->
<g id="node9" class="node">
<title>N8</title>
<polygon fill="none" stroke="black" points="306,-144 252,-144 252,-108 306,-108 306,-144"/>
<text text-anchor="middle" x="279" y="-122.3" font-family="Times,serif" font-size="14.00">i</text>
</g>
<!-- N7&#45;&gt;N8 -->
<g id="edge5" class="edge">
<title>N7&#45;&gt;N8</title>
<path fill="none" stroke="black" d="M384.76,-215.97C363.85,-198.38 331.04,-170.78 307.51,-150.99"/>
<polygon fill="black" stroke="black" points="309.52,-148.1 299.61,-144.34 305.01,-153.46 309.52,-148.1"/>
</g>
<!-- N9 -->
<g id="node10" class="node">
<title>N9</title>
<polygon fill="none" stroke="black" points="432,-144 378,-144 378,-108 432,-108 432,-144"/>
<text text-anchor="middle" x="405" y="-122.3" font-family="Times,serif" font-size="14.00">0</text>
</g>
<!-- N7&#45;&gt;N9 -->
<g id="edge6" class="edge">
<title>N7&#45;&gt;N9</title>
<path fill="none" stroke="black" d="M405,-215.97C405,-199.38 405,-173.88 405,-154.43"/>
<polygon fill="black" stroke="black" points="408.5,-154.34 405,-144.34 401.5,-154.34 408.5,-154.34"/>
</g>
<!-- N10 -->
<g id="node11" class="node">
<title>N10</title>
<polygon fill="none" stroke="black" points="558,-144 504,-144 504,-108 558,-108 558,-144"/>
<text text-anchor="middle" x="531" y="-122.3" font-family="Times,serif" font-size="14.00">100</text>
</g>
<!-- N7&#45;&gt;N10 -->
<g id="edge7" class="edge">
<title>N7&#45;&gt;N10</title>
<path fill="none" stroke="black" d="M425.24,-215.97C446.15,-198.38 478.96,-170.78 502.49,-150.99"/>
<polygon fill="black" stroke="black" points="504.99,-153.46 510.39,-144.34 500.48,-148.1 504.99,-153.46"/>
</g>
<!-- N11 -->
<g id="node13" class="node">
<title>N11</title>
<polygon fill="none" stroke="black" points="684,-144 630,-144 630,-108 684,-108 684,-144"/>
<text text-anchor="middle" x="657" y="-122.3" font-family="Times,serif" font-size="14.00">Print</text>
</g>
<!-- N7&#45;&gt;N11 -->
<g id="edge9" class="edge">
<title>N7&#45;&gt;N11</title>
<path fill="none" stroke="black" d="M432.45,-221.45C478.11,-202.25 569.67,-163.73 620.64,-142.29"/>
<polygon fill="black" stroke="black" points="622.11,-145.47 629.97,-138.37 619.39,-139.02 622.11,-145.47"/>
</g>
<!-- N12 -->
<g id="node12" class="node">
<title>N12</title>
<polygon fill="none" stroke="black" points="688.5,-36 625.5,-36 625.5,0 688.5,0 688.5,-36"/>
<text text-anchor="middle" x="657" y="-14.3" font-family="Times,serif" font-size="14.00">&quot;aaaa&quot;</text>
</g>
<!-- N11&#45;&gt;N12 -->
<g id="edge8" class="edge">
<title>N11&#45;&gt;N12</title>
<path fill="none" stroke="black" d="M657,-107.97C657,-91.38 657,-65.88 657,-46.43"/>
<polygon fill="black" stroke="black" points="660.5,-46.34 657,-36.34 653.5,-46.34 660.5,-46.34"/>
</g>
</g>
</svg>
