<?xml version="1.0" encoding="UTF-8" standalone="no"?>
<!DOCTYPE svg PUBLIC "-//W3C//DTD SVG 1.1//EN"
 "http://www.w3.org/Graphics/SVG/1.1/DTD/svg11.dtd">
<!-- Generated by graphviz version 2.43.0 (0)
 -->
<!-- Title: ast Pages: 1 -->
<svg width="1787pt" height="1016pt"
 viewBox="0.00 0.00 1787.00 1016.00" xmlns="http://www.w3.org/2000/svg" xmlns:xlink="http://www.w3.org/1999/xlink">
<g id="graph0" class="graph" transform="scale(1 1) rotate(0) translate(4 1012)">
<title>ast</title>
<polygon fill="white" stroke="transparent" points="-4,4 -4,-1012 1783,-1012 1783,4 -4,4"/>
<!-- N0 -->
<g id="node1" class="node">
<title>N0</title>
<polygon fill="none" stroke="black" points="823.5,-1008 744.5,-1008 744.5,-972 823.5,-972 823.5,-1008"/>
<text text-anchor="middle" x="784" y="-986.3" font-family="Times,serif" font-size="14.00">Program</text>
</g>
<!-- N1 -->
<g id="node2" class="node">
<title>N1</title>
<polygon fill="none" stroke="black" points="825.5,-900 742.5,-900 742.5,-864 825.5,-864 825.5,-900"/>
<text text-anchor="middle" x="784" y="-878.3" font-family="Times,serif" font-size="14.00">LetInEnd</text>
</g>
<!-- N0&#45;&gt;N1 -->
<g id="edge45" class="edge">
<title>N0&#45;&gt;N1</title>
<path fill="none" stroke="black" d="M784,-971.97C784,-955.38 784,-929.88 784,-910.43"/>
<polygon fill="black" stroke="black" points="787.5,-910.34 784,-900.34 780.5,-910.34 787.5,-910.34"/>
</g>
<!-- N2 -->
<g id="node3" class="node">
<title>N2</title>
<polygon fill="none" stroke="black" points="633,-792 507,-792 507,-756 633,-756 633,-792"/>
<text text-anchor="middle" x="570" y="-770.3" font-family="Times,serif" font-size="14.00">DeclarationList</text>
</g>
<!-- N1&#45;&gt;N2 -->
<g id="edge20" class="edge">
<title>N1&#45;&gt;N2</title>
<path fill="none" stroke="black" d="M749.62,-863.97C712.68,-845.67 653.88,-816.55 613.69,-796.64"/>
<polygon fill="black" stroke="black" points="615.17,-793.47 604.65,-792.16 612.06,-799.74 615.17,-793.47"/>
</g>
<!-- N22 -->
<g id="node23" class="node">
<title>N22</title>
<polygon fill="none" stroke="black" points="1215,-792 1137,-792 1137,-756 1215,-756 1215,-792"/>
<text text-anchor="middle" x="1176" y="-770.3" font-family="Times,serif" font-size="14.00">ExprSeq</text>
</g>
<!-- N1&#45;&gt;N22 -->
<g id="edge44" class="edge">
<title>N1&#45;&gt;N22</title>
<path fill="none" stroke="black" d="M825.58,-869.76C898.46,-850.05 1048.93,-809.36 1126.84,-788.29"/>
<polygon fill="black" stroke="black" points="1128.15,-791.57 1136.89,-785.58 1126.32,-784.81 1128.15,-791.57"/>
</g>
<!-- N3 -->
<g id="node4" class="node">
<title>N3</title>
<polygon fill="none" stroke="black" points="222,-684 144,-684 144,-648 222,-648 222,-684"/>
<text text-anchor="middle" x="183" y="-662.3" font-family="Times,serif" font-size="14.00">DecType</text>
</g>
<!-- N2&#45;&gt;N3 -->
<g id="edge6" class="edge">
<title>N2&#45;&gt;N3</title>
<path fill="none" stroke="black" d="M507.82,-755.97C431.05,-734.94 302.05,-699.61 231.94,-680.41"/>
<polygon fill="black" stroke="black" points="232.61,-676.96 222.04,-677.69 230.76,-683.71 232.61,-676.96"/>
</g>
<!-- N9 -->
<g id="node10" class="node">
<title>N9</title>
<polygon fill="none" stroke="black" points="535,-684 457,-684 457,-648 535,-648 535,-684"/>
<text text-anchor="middle" x="496" y="-662.3" font-family="Times,serif" font-size="14.00">DecType</text>
</g>
<!-- N2&#45;&gt;N9 -->
<g id="edge10" class="edge">
<title>N2&#45;&gt;N9</title>
<path fill="none" stroke="black" d="M558.11,-755.97C546.15,-738.84 527.57,-712.22 513.84,-692.56"/>
<polygon fill="black" stroke="black" points="516.7,-690.54 508.11,-684.34 510.96,-694.54 516.7,-690.54"/>
</g>
<!-- N13 -->
<g id="node14" class="node">
<title>N13</title>
<polygon fill="none" stroke="black" points="681,-684 607,-684 607,-648 681,-648 681,-684"/>
<text text-anchor="middle" x="644" y="-662.3" font-family="Times,serif" font-size="14.00">Dec_Var</text>
</g>
<!-- N2&#45;&gt;N13 -->
<g id="edge19" class="edge">
<title>N2&#45;&gt;N13</title>
<path fill="none" stroke="black" d="M581.89,-755.97C593.85,-738.84 612.43,-712.22 626.16,-692.56"/>
<polygon fill="black" stroke="black" points="629.04,-694.54 631.89,-684.34 623.3,-690.54 629.04,-694.54"/>
</g>
<!-- N4 -->
<g id="node5" class="node">
<title>N4</title>
<polygon fill="none" stroke="black" points="54,-576 0,-576 0,-540 54,-540 54,-576"/>
<text text-anchor="middle" x="27" y="-554.3" font-family="Times,serif" font-size="14.00">rec</text>
</g>
<!-- N3&#45;&gt;N4 -->
<g id="edge4" class="edge">
<title>N3&#45;&gt;N4</title>
<path fill="none" stroke="black" d="M157.94,-647.97C131.63,-630.1 90.12,-601.89 60.9,-582.04"/>
<polygon fill="black" stroke="black" points="62.5,-578.89 52.26,-576.16 58.56,-584.68 62.5,-578.89"/>
</g>
<!-- N5 -->
<g id="node6" class="node">
<title>N5</title>
<polygon fill="none" stroke="black" points="240,-576 126,-576 126,-540 240,-540 240,-576"/>
<text text-anchor="middle" x="183" y="-554.3" font-family="Times,serif" font-size="14.00">TypeFieldList</text>
</g>
<!-- N3&#45;&gt;N5 -->
<g id="edge5" class="edge">
<title>N3&#45;&gt;N5</title>
<path fill="none" stroke="black" d="M183,-647.97C183,-631.38 183,-605.88 183,-586.43"/>
<polygon fill="black" stroke="black" points="186.5,-586.34 183,-576.34 179.5,-586.34 186.5,-586.34"/>
</g>
<!-- N6 -->
<g id="node7" class="node">
<title>N6</title>
<polygon fill="none" stroke="black" points="226.5,-468 139.5,-468 139.5,-432 226.5,-432 226.5,-468"/>
<text text-anchor="middle" x="183" y="-446.3" font-family="Times,serif" font-size="14.00">TypeField</text>
</g>
<!-- N5&#45;&gt;N6 -->
<g id="edge3" class="edge">
<title>N5&#45;&gt;N6</title>
<path fill="none" stroke="black" d="M183,-539.97C183,-523.38 183,-497.88 183,-478.43"/>
<polygon fill="black" stroke="black" points="186.5,-478.34 183,-468.34 179.5,-478.34 186.5,-478.34"/>
</g>
<!-- N7 -->
<g id="node8" class="node">
<title>N7</title>
<polygon fill="none" stroke="black" points="147,-360 93,-360 93,-324 147,-324 147,-360"/>
<text text-anchor="middle" x="120" y="-338.3" font-family="Times,serif" font-size="14.00">val</text>
</g>
<!-- N6&#45;&gt;N7 -->
<g id="edge1" class="edge">
<title>N6&#45;&gt;N7</title>
<path fill="none" stroke="black" d="M172.88,-431.97C162.79,-414.99 147.16,-388.7 135.51,-369.09"/>
<polygon fill="black" stroke="black" points="138.42,-367.15 130.31,-360.34 132.41,-370.73 138.42,-367.15"/>
</g>
<!-- N8 -->
<g id="node9" class="node">
<title>N8</title>
<polygon fill="none" stroke="black" points="273,-360 219,-360 219,-324 273,-324 273,-360"/>
<text text-anchor="middle" x="246" y="-338.3" font-family="Times,serif" font-size="14.00">int</text>
</g>
<!-- N6&#45;&gt;N8 -->
<g id="edge2" class="edge">
<title>N6&#45;&gt;N8</title>
<path fill="none" stroke="black" d="M193.12,-431.97C203.21,-414.99 218.84,-388.7 230.49,-369.09"/>
<polygon fill="black" stroke="black" points="233.59,-370.73 235.69,-360.34 227.58,-367.15 233.59,-370.73"/>
</g>
<!-- N10 -->
<g id="node11" class="node">
<title>N10</title>
<polygon fill="none" stroke="black" points="380,-576 312,-576 312,-540 380,-540 380,-576"/>
<text text-anchor="middle" x="346" y="-554.3" font-family="Times,serif" font-size="14.00">rec_arr</text>
</g>
<!-- N9&#45;&gt;N10 -->
<g id="edge8" class="edge">
<title>N9&#45;&gt;N10</title>
<path fill="none" stroke="black" d="M471.9,-647.97C446.68,-630.15 406.93,-602.06 378.85,-582.21"/>
<polygon fill="black" stroke="black" points="380.73,-579.25 370.54,-576.34 376.69,-584.97 380.73,-579.25"/>
</g>
<!-- N11 -->
<g id="node12" class="node">
<title>N11</title>
<polygon fill="none" stroke="black" points="543.5,-576 452.5,-576 452.5,-540 543.5,-540 543.5,-576"/>
<text text-anchor="middle" x="498" y="-554.3" font-family="Times,serif" font-size="14.00">ArrayType</text>
</g>
<!-- N9&#45;&gt;N11 -->
<g id="edge9" class="edge">
<title>N9&#45;&gt;N11</title>
<path fill="none" stroke="black" d="M496.32,-647.97C496.63,-631.38 497.12,-605.88 497.48,-586.43"/>
<polygon fill="black" stroke="black" points="500.98,-586.4 497.67,-576.34 493.98,-586.27 500.98,-586.4"/>
</g>
<!-- N12 -->
<g id="node13" class="node">
<title>N12</title>
<polygon fill="none" stroke="black" points="525,-468 471,-468 471,-432 525,-432 525,-468"/>
<text text-anchor="middle" x="498" y="-446.3" font-family="Times,serif" font-size="14.00">rec</text>
</g>
<!-- N11&#45;&gt;N12 -->
<g id="edge7" class="edge">
<title>N11&#45;&gt;N12</title>
<path fill="none" stroke="black" d="M498,-539.97C498,-523.38 498,-497.88 498,-478.43"/>
<polygon fill="black" stroke="black" points="501.5,-478.34 498,-468.34 494.5,-478.34 501.5,-478.34"/>
</g>
<!-- N14 -->
<g id="node15" class="node">
<title>N14</title>
<polygon fill="none" stroke="black" points="670,-576 616,-576 616,-540 670,-540 670,-576"/>
<text text-anchor="middle" x="643" y="-554.3" font-family="Times,serif" font-size="14.00">table</text>
</g>
<!-- N13&#45;&gt;N14 -->
<g id="edge17" class="edge">
<title>N13&#45;&gt;N14</title>
<path fill="none" stroke="black" d="M643.84,-647.97C643.68,-631.38 643.44,-605.88 643.26,-586.43"/>
<polygon fill="black" stroke="black" points="646.76,-586.31 643.16,-576.34 639.76,-586.37 646.76,-586.31"/>
</g>
<!-- N15 -->
<g id="node16" class="node">
<title>N15</title>
<polygon fill="none" stroke="black" points="846,-576 742,-576 742,-540 846,-540 846,-576"/>
<text text-anchor="middle" x="794" y="-554.3" font-family="Times,serif" font-size="14.00">ArrayCreate</text>
</g>
<!-- N13&#45;&gt;N15 -->
<g id="edge18" class="edge">
<title>N13&#45;&gt;N15</title>
<path fill="none" stroke="black" d="M668.1,-647.97C693.32,-630.15 733.07,-602.06 761.15,-582.21"/>
<polygon fill="black" stroke="black" points="763.31,-584.97 769.46,-576.34 759.27,-579.25 763.31,-584.97"/>
</g>
<!-- N16 -->
<g id="node17" class="node">
<title>N16</title>
<polygon fill="none" stroke="black" points="680,-468 612,-468 612,-432 680,-432 680,-468"/>
<text text-anchor="middle" x="646" y="-446.3" font-family="Times,serif" font-size="14.00">rec_arr</text>
</g>
<!-- N15&#45;&gt;N16 -->
<g id="edge14" class="edge">
<title>N15&#45;&gt;N16</title>
<path fill="none" stroke="black" d="M770.22,-539.97C745.34,-522.15 706.12,-494.06 678.41,-474.21"/>
<polygon fill="black" stroke="black" points="680.38,-471.32 670.21,-468.34 676.3,-477.01 680.38,-471.32"/>
</g>
<!-- N17 -->
<g id="node18" class="node">
<title>N17</title>
<polygon fill="none" stroke="black" points="806,-468 752,-468 752,-432 806,-432 806,-468"/>
<text text-anchor="middle" x="779" y="-446.3" font-family="Times,serif" font-size="14.00">2</text>
</g>
<!-- N15&#45;&gt;N17 -->
<g id="edge15" class="edge">
<title>N15&#45;&gt;N17</title>
<path fill="none" stroke="black" d="M791.59,-539.97C789.24,-523.38 785.63,-497.88 782.88,-478.43"/>
<polygon fill="black" stroke="black" points="786.32,-477.75 781.45,-468.34 779.39,-478.73 786.32,-477.75"/>
</g>
<!-- N18 -->
<g id="node19" class="node">
<title>N18</title>
<polygon fill="none" stroke="black" points="982,-468 878,-468 878,-432 982,-432 982,-468"/>
<text text-anchor="middle" x="930" y="-446.3" font-family="Times,serif" font-size="14.00">ArrayCreate</text>
</g>
<!-- N15&#45;&gt;N18 -->
<g id="edge16" class="edge">
<title>N15&#45;&gt;N18</title>
<path fill="none" stroke="black" d="M815.85,-539.97C838.52,-522.3 874.14,-494.54 899.56,-474.73"/>
<polygon fill="black" stroke="black" points="902.02,-477.25 907.75,-468.34 897.71,-471.73 902.02,-477.25"/>
</g>
<!-- N19 -->
<g id="node20" class="node">
<title>N19</title>
<polygon fill="none" stroke="black" points="797,-360 729,-360 729,-324 797,-324 797,-360"/>
<text text-anchor="middle" x="763" y="-338.3" font-family="Times,serif" font-size="14.00">rec_arr</text>
</g>
<!-- N18&#45;&gt;N19 -->
<g id="edge11" class="edge">
<title>N18&#45;&gt;N19</title>
<path fill="none" stroke="black" d="M903.17,-431.97C874.77,-413.94 829.8,-385.4 798.49,-365.53"/>
<polygon fill="black" stroke="black" points="800.36,-362.57 790.04,-360.16 796.61,-368.48 800.36,-362.57"/>
</g>
<!-- N20 -->
<g id="node21" class="node">
<title>N20</title>
<polygon fill="none" stroke="black" points="923,-360 869,-360 869,-324 923,-324 923,-360"/>
<text text-anchor="middle" x="896" y="-338.3" font-family="Times,serif" font-size="14.00">2</text>
</g>
<!-- N18&#45;&gt;N20 -->
<g id="edge12" class="edge">
<title>N18&#45;&gt;N20</title>
<path fill="none" stroke="black" d="M924.54,-431.97C919.17,-415.22 910.89,-389.41 904.63,-369.89"/>
<polygon fill="black" stroke="black" points="907.95,-368.79 901.56,-360.34 901.28,-370.93 907.95,-368.79"/>
</g>
<!-- N21 -->
<g id="node22" class="node">
<title>N21</title>
<polygon fill="none" stroke="black" points="1049,-360 995,-360 995,-324 1049,-324 1049,-360"/>
<text text-anchor="middle" x="1022" y="-338.3" font-family="Times,serif" font-size="14.00">nil</text>
</g>
<!-- N18&#45;&gt;N21 -->
<g id="edge13" class="edge">
<title>N18&#45;&gt;N21</title>
<path fill="none" stroke="black" d="M944.78,-431.97C959.78,-414.69 983.17,-387.74 1000.27,-368.03"/>
<polygon fill="black" stroke="black" points="1003.04,-370.19 1006.95,-360.34 997.75,-365.6 1003.04,-370.19"/>
</g>
<!-- N23 -->
<g id="node24" class="node">
<title>N23</title>
<polygon fill="none" stroke="black" points="1203,-684 1149,-684 1149,-648 1203,-648 1203,-684"/>
<text text-anchor="middle" x="1176" y="-662.3" font-family="Times,serif" font-size="14.00">For</text>
</g>
<!-- N22&#45;&gt;N23 -->
<g id="edge37" class="edge">
<title>N22&#45;&gt;N23</title>
<path fill="none" stroke="black" d="M1176,-755.97C1176,-739.38 1176,-713.88 1176,-694.43"/>
<polygon fill="black" stroke="black" points="1179.5,-694.34 1176,-684.34 1172.5,-694.34 1179.5,-694.34"/>
</g>
<!-- N40 -->
<g id="node41" class="node">
<title>N40</title>
<polygon fill="none" stroke="black" points="1673.5,-684 1568.5,-684 1568.5,-648 1673.5,-648 1673.5,-684"/>
<text text-anchor="middle" x="1621" y="-662.3" font-family="Times,serif" font-size="14.00">AffectLvalue</text>
</g>
<!-- N22&#45;&gt;N40 -->
<g id="edge43" class="edge">
<title>N22&#45;&gt;N40</title>
<path fill="none" stroke="black" d="M1215.1,-763.69C1292.35,-745.29 1465.1,-704.14 1558.39,-681.91"/>
<polygon fill="black" stroke="black" points="1559.34,-685.28 1568.26,-679.56 1557.72,-678.48 1559.34,-685.28"/>
</g>
<!-- N24 -->
<g id="node25" class="node">
<title>N24</title>
<polygon fill="none" stroke="black" points="1014,-576 960,-576 960,-540 1014,-540 1014,-576"/>
<text text-anchor="middle" x="987" y="-554.3" font-family="Times,serif" font-size="14.00">i</text>
</g>
<!-- N23&#45;&gt;N24 -->
<g id="edge21" class="edge">
<title>N23&#45;&gt;N24</title>
<path fill="none" stroke="black" d="M1148.92,-649.81C1115.8,-631.24 1059.62,-599.73 1022.92,-579.14"/>
<polygon fill="black" stroke="black" points="1024.46,-576 1014.03,-574.16 1021.04,-582.1 1024.46,-576"/>
</g>
<!-- N25 -->
<g id="node26" class="node">
<title>N25</title>
<polygon fill="none" stroke="black" points="1140,-576 1086,-576 1086,-540 1140,-540 1140,-576"/>
<text text-anchor="middle" x="1113" y="-554.3" font-family="Times,serif" font-size="14.00">0</text>
</g>
<!-- N23&#45;&gt;N25 -->
<g id="edge22" class="edge">
<title>N23&#45;&gt;N25</title>
<path fill="none" stroke="black" d="M1165.88,-647.97C1155.79,-630.99 1140.16,-604.7 1128.51,-585.09"/>
<polygon fill="black" stroke="black" points="1131.42,-583.15 1123.31,-576.34 1125.41,-586.73 1131.42,-583.15"/>
</g>
<!-- N26 -->
<g id="node27" class="node">
<title>N26</title>
<polygon fill="none" stroke="black" points="1266,-576 1212,-576 1212,-540 1266,-540 1266,-576"/>
<text text-anchor="middle" x="1239" y="-554.3" font-family="Times,serif" font-size="14.00">1</text>
</g>
<!-- N23&#45;&gt;N26 -->
<g id="edge23" class="edge">
<title>N23&#45;&gt;N26</title>
<path fill="none" stroke="black" d="M1186.12,-647.97C1196.21,-630.99 1211.84,-604.7 1223.49,-585.09"/>
<polygon fill="black" stroke="black" points="1226.59,-586.73 1228.69,-576.34 1220.58,-583.15 1226.59,-586.73"/>
</g>
<!-- N27 -->
<g id="node28" class="node">
<title>N27</title>
<polygon fill="none" stroke="black" points="1443.5,-576 1338.5,-576 1338.5,-540 1443.5,-540 1443.5,-576"/>
<text text-anchor="middle" x="1391" y="-554.3" font-family="Times,serif" font-size="14.00">AffectLvalue</text>
</g>
<!-- N23&#45;&gt;N27 -->
<g id="edge36" class="edge">
<title>N23&#45;&gt;N27</title>
<path fill="none" stroke="black" d="M1203.23,-651.58C1239.44,-633.72 1303.89,-601.95 1347.04,-580.67"/>
<polygon fill="black" stroke="black" points="1348.75,-583.73 1356.17,-576.17 1345.66,-577.45 1348.75,-583.73"/>
</g>
<!-- N28 -->
<g id="node29" class="node">
<title>N28</title>
<polygon fill="none" stroke="black" points="1294,-468 1230,-468 1230,-432 1294,-432 1294,-468"/>
<text text-anchor="middle" x="1262" y="-446.3" font-family="Times,serif" font-size="14.00">Lvalue</text>
</g>
<!-- N27&#45;&gt;N28 -->
<g id="edge28" class="edge">
<title>N27&#45;&gt;N28</title>
<path fill="none" stroke="black" d="M1370.27,-539.97C1348.77,-522.3 1314.99,-494.54 1290.88,-474.73"/>
<polygon fill="black" stroke="black" points="1293.05,-471.99 1283.1,-468.34 1288.61,-477.39 1293.05,-471.99"/>
</g>
<!-- N33 -->
<g id="node34" class="node">
<title>N33</title>
<polygon fill="none" stroke="black" points="1457.5,-468 1366.5,-468 1366.5,-432 1457.5,-432 1457.5,-468"/>
<text text-anchor="middle" x="1412" y="-446.3" font-family="Times,serif" font-size="14.00">RecCreate</text>
</g>
<!-- N27&#45;&gt;N33 -->
<g id="edge35" class="edge">
<title>N27&#45;&gt;N33</title>
<path fill="none" stroke="black" d="M1394.37,-539.97C1397.68,-523.3 1402.76,-497.65 1406.62,-478.16"/>
<polygon fill="black" stroke="black" points="1410.05,-478.83 1408.56,-468.34 1403.19,-477.47 1410.05,-478.83"/>
</g>
<!-- N29 -->
<g id="node30" class="node">
<title>N29</title>
<polygon fill="none" stroke="black" points="1175,-360 1121,-360 1121,-324 1175,-324 1175,-360"/>
<text text-anchor="middle" x="1148" y="-338.3" font-family="Times,serif" font-size="14.00">table</text>
</g>
<!-- N28&#45;&gt;N29 -->
<g id="edge26" class="edge">
<title>N28&#45;&gt;N29</title>
<path fill="none" stroke="black" d="M1243.68,-431.97C1224.85,-414.46 1195.34,-387.02 1174.08,-367.25"/>
<polygon fill="black" stroke="black" points="1176.36,-364.59 1166.65,-360.34 1171.59,-369.71 1176.36,-364.59"/>
</g>
<!-- N32 -->
<g id="node33" class="node">
<title>N32</title>
<polygon fill="none" stroke="black" points="1301,-360 1247,-360 1247,-324 1301,-324 1301,-360"/>
<text text-anchor="middle" x="1274" y="-338.3" font-family="Times,serif" font-size="14.00">table</text>
</g>
<!-- N28&#45;&gt;N32 -->
<g id="edge27" class="edge">
<title>N28&#45;&gt;N32</title>
<path fill="none" stroke="black" d="M1263.93,-431.97C1265.81,-415.38 1268.69,-389.88 1270.89,-370.43"/>
<polygon fill="black" stroke="black" points="1274.39,-370.67 1272.04,-360.34 1267.43,-369.88 1274.39,-370.67"/>
</g>
<!-- N30 -->
<g id="node31" class="node">
<title>N30</title>
<polygon fill="none" stroke="black" points="1180,-252 1116,-252 1116,-216 1180,-216 1180,-252"/>
<text text-anchor="middle" x="1148" y="-230.3" font-family="Times,serif" font-size="14.00">Lvalue</text>
</g>
<!-- N29&#45;&gt;N30 -->
<g id="edge25" class="edge">
<title>N29&#45;&gt;N30</title>
<path fill="none" stroke="black" d="M1148,-323.97C1148,-307.38 1148,-281.88 1148,-262.43"/>
<polygon fill="black" stroke="black" points="1151.5,-262.34 1148,-252.34 1144.5,-262.34 1151.5,-262.34"/>
</g>
<!-- N31 -->
<g id="node32" class="node">
<title>N31</title>
<polygon fill="none" stroke="black" points="1175,-144 1121,-144 1121,-108 1175,-108 1175,-144"/>
<text text-anchor="middle" x="1148" y="-122.3" font-family="Times,serif" font-size="14.00">i</text>
</g>
<!-- N30&#45;&gt;N31 -->
<g id="edge24" class="edge">
<title>N30&#45;&gt;N31</title>
<path fill="none" stroke="black" d="M1148,-215.97C1148,-199.38 1148,-173.88 1148,-154.43"/>
<polygon fill="black" stroke="black" points="1151.5,-154.34 1148,-144.34 1144.5,-154.34 1151.5,-154.34"/>
</g>
<!-- N34 -->
<g id="node35" class="node">
<title>N34</title>
<polygon fill="none" stroke="black" points="1427,-360 1373,-360 1373,-324 1427,-324 1427,-360"/>
<text text-anchor="middle" x="1400" y="-338.3" font-family="Times,serif" font-size="14.00">rec</text>
</g>
<!-- N33&#45;&gt;N34 -->
<g id="edge33" class="edge">
<title>N33&#45;&gt;N34</title>
<path fill="none" stroke="black" d="M1410.07,-431.97C1408.19,-415.38 1405.31,-389.88 1403.11,-370.43"/>
<polygon fill="black" stroke="black" points="1406.57,-369.88 1401.96,-360.34 1399.61,-370.67 1406.57,-369.88"/>
</g>
<!-- N35 -->
<g id="node36" class="node">
<title>N35</title>
<polygon fill="none" stroke="black" points="1605,-360 1499,-360 1499,-324 1605,-324 1605,-360"/>
<text text-anchor="middle" x="1552" y="-338.3" font-family="Times,serif" font-size="14.00">RecFieldList</text>
</g>
<!-- N33&#45;&gt;N35 -->
<g id="edge34" class="edge">
<title>N33&#45;&gt;N35</title>
<path fill="none" stroke="black" d="M1434.49,-431.97C1457.93,-414.23 1494.81,-386.3 1521,-366.47"/>
<polygon fill="black" stroke="black" points="1523.24,-369.17 1529.1,-360.34 1519.01,-363.59 1523.24,-369.17"/>
</g>
<!-- N36 -->
<g id="node40" class="node">
<title>N36</title>
<polygon fill="none" stroke="black" points="1617.5,-252 1486.5,-252 1486.5,-216 1617.5,-216 1617.5,-252"/>
<text text-anchor="middle" x="1552" y="-230.3" font-family="Times,serif" font-size="14.00">AffectVarInType</text>
</g>
<!-- N35&#45;&gt;N36 -->
<g id="edge32" class="edge">
<title>N35&#45;&gt;N36</title>
<path fill="none" stroke="black" d="M1552,-323.97C1552,-307.38 1552,-281.88 1552,-262.43"/>
<polygon fill="black" stroke="black" points="1555.5,-262.34 1552,-252.34 1548.5,-262.34 1555.5,-262.34"/>
</g>
<!-- N37 -->
<g id="node37" class="node">
<title>N37</title>
<polygon fill="none" stroke="black" points="1518,-144 1454,-144 1454,-108 1518,-108 1518,-144"/>
<text text-anchor="middle" x="1486" y="-122.3" font-family="Times,serif" font-size="14.00">Lvalue</text>
</g>
<!-- N38 -->
<g id="node38" class="node">
<title>N38</title>
<polygon fill="none" stroke="black" points="1513,-36 1459,-36 1459,0 1513,0 1513,-36"/>
<text text-anchor="middle" x="1486" y="-14.3" font-family="Times,serif" font-size="14.00">val</text>
</g>
<!-- N37&#45;&gt;N38 -->
<g id="edge29" class="edge">
<title>N37&#45;&gt;N38</title>
<path fill="none" stroke="black" d="M1486,-107.97C1486,-91.38 1486,-65.88 1486,-46.43"/>
<polygon fill="black" stroke="black" points="1489.5,-46.34 1486,-36.34 1482.5,-46.34 1489.5,-46.34"/>
</g>
<!-- N39 -->
<g id="node39" class="node">
<title>N39</title>
<polygon fill="none" stroke="black" points="1644,-144 1590,-144 1590,-108 1644,-108 1644,-144"/>
<text text-anchor="middle" x="1617" y="-122.3" font-family="Times,serif" font-size="14.00">42</text>
</g>
<!-- N36&#45;&gt;N37 -->
<g id="edge30" class="edge">
<title>N36&#45;&gt;N37</title>
<path fill="none" stroke="black" d="M1541.4,-215.97C1530.83,-198.99 1514.45,-172.7 1502.24,-153.09"/>
<polygon fill="black" stroke="black" points="1505.05,-150.98 1496.8,-144.34 1499.11,-154.68 1505.05,-150.98"/>
</g>
<!-- N36&#45;&gt;N39 -->
<g id="edge31" class="edge">
<title>N36&#45;&gt;N39</title>
<path fill="none" stroke="black" d="M1562.44,-215.97C1572.85,-198.99 1588.98,-172.7 1601,-153.09"/>
<polygon fill="black" stroke="black" points="1604.12,-154.7 1606.37,-144.34 1598.16,-151.04 1604.12,-154.7"/>
</g>
<!-- N41 -->
<g id="node42" class="node">
<title>N41</title>
<polygon fill="none" stroke="black" points="1653,-576 1589,-576 1589,-540 1653,-540 1653,-576"/>
<text text-anchor="middle" x="1621" y="-554.3" font-family="Times,serif" font-size="14.00">Lvalue</text>
</g>
<!-- N40&#45;&gt;N41 -->
<g id="edge41" class="edge">
<title>N40&#45;&gt;N41</title>
<path fill="none" stroke="black" d="M1621,-647.97C1621,-631.38 1621,-605.88 1621,-586.43"/>
<polygon fill="black" stroke="black" points="1624.5,-586.34 1621,-576.34 1617.5,-586.34 1624.5,-586.34"/>
</g>
<!-- N45 -->
<g id="node46" class="node">
<title>N45</title>
<polygon fill="none" stroke="black" points="1779,-576 1725,-576 1725,-540 1779,-540 1779,-576"/>
<text text-anchor="middle" x="1752" y="-554.3" font-family="Times,serif" font-size="14.00">51</text>
</g>
<!-- N40&#45;&gt;N45 -->
<g id="edge42" class="edge">
<title>N40&#45;&gt;N45</title>
<path fill="none" stroke="black" d="M1642.05,-647.97C1663.88,-630.3 1698.19,-602.54 1722.68,-582.73"/>
<polygon fill="black" stroke="black" points="1725,-585.35 1730.57,-576.34 1720.59,-579.91 1725,-585.35"/>
</g>
<!-- N42 -->
<g id="node43" class="node">
<title>N42</title>
<polygon fill="none" stroke="black" points="1648,-468 1594,-468 1594,-432 1648,-432 1648,-468"/>
<text text-anchor="middle" x="1621" y="-446.3" font-family="Times,serif" font-size="14.00">table</text>
</g>
<!-- N41&#45;&gt;N42 -->
<g id="edge39" class="edge">
<title>N41&#45;&gt;N42</title>
<path fill="none" stroke="black" d="M1621,-539.97C1621,-523.38 1621,-497.88 1621,-478.43"/>
<polygon fill="black" stroke="black" points="1624.5,-478.34 1621,-468.34 1617.5,-478.34 1624.5,-478.34"/>
</g>
<!-- N44 -->
<g id="node45" class="node">
<title>N44</title>
<polygon fill="none" stroke="black" points="1774,-468 1720,-468 1720,-432 1774,-432 1774,-468"/>
<text text-anchor="middle" x="1747" y="-446.3" font-family="Times,serif" font-size="14.00">val</text>
</g>
<!-- N41&#45;&gt;N44 -->
<g id="edge40" class="edge">
<title>N41&#45;&gt;N44</title>
<path fill="none" stroke="black" d="M1641.24,-539.97C1662.15,-522.38 1694.96,-494.78 1718.49,-474.99"/>
<polygon fill="black" stroke="black" points="1720.99,-477.46 1726.39,-468.34 1716.48,-472.1 1720.99,-477.46"/>
</g>
<!-- N43 -->
<g id="node44" class="node">
<title>N43</title>
<polygon fill="none" stroke="black" points="1731,-360 1677,-360 1677,-324 1731,-324 1731,-360"/>
<text text-anchor="middle" x="1704" y="-338.3" font-family="Times,serif" font-size="14.00">0</text>
</g>
<!-- N42&#45;&gt;N43 -->
<g id="edge38" class="edge">
<title>N42&#45;&gt;N43</title>
<path fill="none" stroke="black" d="M1634.34,-431.97C1647.81,-414.76 1668.78,-387.98 1684.19,-368.29"/>
<polygon fill="black" stroke="black" points="1687.01,-370.37 1690.42,-360.34 1681.5,-366.06 1687.01,-370.37"/>
</g>
</g>
</svg>
