<?xml version="1.0" encoding="UTF-8" standalone="no"?>
<!DOCTYPE svg PUBLIC "-//W3C//DTD SVG 1.1//EN"
 "http://www.w3.org/Graphics/SVG/1.1/DTD/svg11.dtd">
<!-- Generated by graphviz version 2.43.0 (0)
 -->
<!-- Title: ast Pages: 1 -->
<svg width="2710pt" height="908pt"
 viewBox="0.00 0.00 2710.00 908.00" xmlns="http://www.w3.org/2000/svg" xmlns:xlink="http://www.w3.org/1999/xlink">
<g id="graph0" class="graph" transform="scale(1 1) rotate(0) translate(4 904)">
<title>ast</title>
<polygon fill="white" stroke="transparent" points="-4,4 -4,-904 2706,-904 2706,4 -4,4"/>
<!-- N0 -->
<g id="node1" class="node">
<title>N0</title>
<polygon fill="none" stroke="black" points="1707.5,-900 1628.5,-900 1628.5,-864 1707.5,-864 1707.5,-900"/>
<text text-anchor="middle" x="1668" y="-878.3" font-family="Times,serif" font-size="14.00">Program</text>
</g>
<!-- N1 -->
<g id="node2" class="node">
<title>N1</title>
<polygon fill="none" stroke="black" points="1709.5,-792 1626.5,-792 1626.5,-756 1709.5,-756 1709.5,-792"/>
<text text-anchor="middle" x="1668" y="-770.3" font-family="Times,serif" font-size="14.00">LetInEnd</text>
</g>
<!-- N0&#45;&gt;N1 -->
<g id="edge57" class="edge">
<title>N0&#45;&gt;N1</title>
<path fill="none" stroke="black" d="M1668,-863.97C1668,-847.38 1668,-821.88 1668,-802.43"/>
<polygon fill="black" stroke="black" points="1671.5,-802.34 1668,-792.34 1664.5,-802.34 1671.5,-802.34"/>
</g>
<!-- N2 -->
<g id="node3" class="node">
<title>N2</title>
<polygon fill="none" stroke="black" points="1195,-684 1069,-684 1069,-648 1195,-648 1195,-684"/>
<text text-anchor="middle" x="1132" y="-662.3" font-family="Times,serif" font-size="14.00">DeclarationList</text>
</g>
<!-- N1&#45;&gt;N2 -->
<g id="edge42" class="edge">
<title>N1&#45;&gt;N2</title>
<path fill="none" stroke="black" d="M1626.39,-764.77C1535.66,-746.83 1319.05,-703.99 1205.04,-681.44"/>
<polygon fill="black" stroke="black" points="1205.49,-677.97 1195,-679.46 1204.13,-684.83 1205.49,-677.97"/>
</g>
<!-- N44 -->
<g id="node45" class="node">
<title>N44</title>
<polygon fill="none" stroke="black" points="2218,-684 2140,-684 2140,-648 2218,-648 2218,-684"/>
<text text-anchor="middle" x="2179" y="-662.3" font-family="Times,serif" font-size="14.00">ExprSeq</text>
</g>
<!-- N1&#45;&gt;N44 -->
<g id="edge56" class="edge">
<title>N1&#45;&gt;N44</title>
<path fill="none" stroke="black" d="M1709.82,-764.33C1803.49,-744.89 2029.8,-697.95 2129.93,-677.18"/>
<polygon fill="black" stroke="black" points="2130.71,-680.59 2139.79,-675.13 2129.29,-673.74 2130.71,-680.59"/>
</g>
<!-- N3 -->
<g id="node4" class="node">
<title>N3</title>
<polygon fill="none" stroke="black" points="413,-576 335,-576 335,-540 413,-540 413,-576"/>
<text text-anchor="middle" x="374" y="-554.3" font-family="Times,serif" font-size="14.00">DecType</text>
</g>
<!-- N2&#45;&gt;N3 -->
<g id="edge9" class="edge">
<title>N2&#45;&gt;N3</title>
<path fill="none" stroke="black" d="M1068.68,-656.14C921.1,-635.51 556.74,-584.55 423.68,-565.95"/>
<polygon fill="black" stroke="black" points="423.77,-562.43 413.38,-564.51 422.8,-569.36 423.77,-562.43"/>
</g>
<!-- N12 -->
<g id="node13" class="node">
<title>N12</title>
<polygon fill="none" stroke="black" points="794,-576 716,-576 716,-540 794,-540 794,-576"/>
<text text-anchor="middle" x="755" y="-554.3" font-family="Times,serif" font-size="14.00">DecType</text>
</g>
<!-- N2&#45;&gt;N12 -->
<g id="edge15" class="edge">
<title>N2&#45;&gt;N12</title>
<path fill="none" stroke="black" d="M1071.43,-647.97C997.03,-627.05 872.3,-591.98 803.77,-572.71"/>
<polygon fill="black" stroke="black" points="804.65,-569.32 794.08,-569.99 802.76,-576.06 804.65,-569.32"/>
</g>
<!-- N18 -->
<g id="node19" class="node">
<title>N18</title>
<polygon fill="none" stroke="black" points="1171,-576 1093,-576 1093,-540 1171,-540 1171,-576"/>
<text text-anchor="middle" x="1132" y="-554.3" font-family="Times,serif" font-size="14.00">DecType</text>
</g>
<!-- N2&#45;&gt;N18 -->
<g id="edge27" class="edge">
<title>N2&#45;&gt;N18</title>
<path fill="none" stroke="black" d="M1132,-647.97C1132,-631.38 1132,-605.88 1132,-586.43"/>
<polygon fill="black" stroke="black" points="1135.5,-586.34 1132,-576.34 1128.5,-586.34 1135.5,-586.34"/>
</g>
<!-- N30 -->
<g id="node31" class="node">
<title>N30</title>
<polygon fill="none" stroke="black" points="1457,-576 1383,-576 1383,-540 1457,-540 1457,-576"/>
<text text-anchor="middle" x="1420" y="-554.3" font-family="Times,serif" font-size="14.00">Dec_Var</text>
</g>
<!-- N2&#45;&gt;N30 -->
<g id="edge41" class="edge">
<title>N2&#45;&gt;N30</title>
<path fill="none" stroke="black" d="M1178.27,-647.97C1231.86,-628.25 1319.64,-595.94 1373.38,-576.16"/>
<polygon fill="black" stroke="black" points="1374.82,-579.36 1383,-572.62 1372.4,-572.79 1374.82,-579.36"/>
</g>
<!-- N4 -->
<g id="node5" class="node">
<title>N4</title>
<polygon fill="none" stroke="black" points="245,-468 191,-468 191,-432 245,-432 245,-468"/>
<text text-anchor="middle" x="218" y="-446.3" font-family="Times,serif" font-size="14.00">club</text>
</g>
<!-- N3&#45;&gt;N4 -->
<g id="edge7" class="edge">
<title>N3&#45;&gt;N4</title>
<path fill="none" stroke="black" d="M348.94,-539.97C322.63,-522.1 281.12,-493.89 251.9,-474.04"/>
<polygon fill="black" stroke="black" points="253.5,-470.89 243.26,-468.16 249.56,-476.68 253.5,-470.89"/>
</g>
<!-- N5 -->
<g id="node6" class="node">
<title>N5</title>
<polygon fill="none" stroke="black" points="431,-468 317,-468 317,-432 431,-432 431,-468"/>
<text text-anchor="middle" x="374" y="-446.3" font-family="Times,serif" font-size="14.00">TypeFieldList</text>
</g>
<!-- N3&#45;&gt;N5 -->
<g id="edge8" class="edge">
<title>N3&#45;&gt;N5</title>
<path fill="none" stroke="black" d="M374,-539.97C374,-523.38 374,-497.88 374,-478.43"/>
<polygon fill="black" stroke="black" points="377.5,-478.34 374,-468.34 370.5,-478.34 377.5,-478.34"/>
</g>
<!-- N6 -->
<g id="node7" class="node">
<title>N6</title>
<polygon fill="none" stroke="black" points="199.5,-360 112.5,-360 112.5,-324 199.5,-324 199.5,-360"/>
<text text-anchor="middle" x="156" y="-338.3" font-family="Times,serif" font-size="14.00">TypeField</text>
</g>
<!-- N5&#45;&gt;N6 -->
<g id="edge3" class="edge">
<title>N5&#45;&gt;N6</title>
<path fill="none" stroke="black" d="M338.97,-431.97C301.34,-413.67 241.44,-384.55 200.5,-364.64"/>
<polygon fill="black" stroke="black" points="201.82,-361.39 191.3,-360.16 198.76,-367.68 201.82,-361.39"/>
</g>
<!-- N9 -->
<g id="node10" class="node">
<title>N9</title>
<polygon fill="none" stroke="black" points="417.5,-360 330.5,-360 330.5,-324 417.5,-324 417.5,-360"/>
<text text-anchor="middle" x="374" y="-338.3" font-family="Times,serif" font-size="14.00">TypeField</text>
</g>
<!-- N5&#45;&gt;N9 -->
<g id="edge6" class="edge">
<title>N5&#45;&gt;N9</title>
<path fill="none" stroke="black" d="M374,-431.97C374,-415.38 374,-389.88 374,-370.43"/>
<polygon fill="black" stroke="black" points="377.5,-370.34 374,-360.34 370.5,-370.34 377.5,-370.34"/>
</g>
<!-- N7 -->
<g id="node8" class="node">
<title>N7</title>
<polygon fill="none" stroke="black" points="54,-252 0,-252 0,-216 54,-216 54,-252"/>
<text text-anchor="middle" x="27" y="-230.3" font-family="Times,serif" font-size="14.00">nom</text>
</g>
<!-- N6&#45;&gt;N7 -->
<g id="edge1" class="edge">
<title>N6&#45;&gt;N7</title>
<path fill="none" stroke="black" d="M135.27,-323.97C113.77,-306.3 79.99,-278.54 55.88,-258.73"/>
<polygon fill="black" stroke="black" points="58.05,-255.99 48.1,-252.34 53.61,-261.39 58.05,-255.99"/>
</g>
<!-- N8 -->
<g id="node9" class="node">
<title>N8</title>
<polygon fill="none" stroke="black" points="185.5,-252 126.5,-252 126.5,-216 185.5,-216 185.5,-252"/>
<text text-anchor="middle" x="156" y="-230.3" font-family="Times,serif" font-size="14.00">string</text>
</g>
<!-- N6&#45;&gt;N8 -->
<g id="edge2" class="edge">
<title>N6&#45;&gt;N8</title>
<path fill="none" stroke="black" d="M156,-323.97C156,-307.38 156,-281.88 156,-262.43"/>
<polygon fill="black" stroke="black" points="159.5,-262.34 156,-252.34 152.5,-262.34 159.5,-262.34"/>
</g>
<!-- N10 -->
<g id="node11" class="node">
<title>N10</title>
<polygon fill="none" stroke="black" points="320,-252 258,-252 258,-216 320,-216 320,-252"/>
<text text-anchor="middle" x="289" y="-230.3" font-family="Times,serif" font-size="14.00">sports</text>
</g>
<!-- N9&#45;&gt;N10 -->
<g id="edge4" class="edge">
<title>N9&#45;&gt;N10</title>
<path fill="none" stroke="black" d="M360.34,-323.97C346.55,-306.76 325.07,-279.98 309.28,-260.29"/>
<polygon fill="black" stroke="black" points="311.89,-257.95 302.91,-252.34 306.43,-262.33 311.89,-257.95"/>
</g>
<!-- N11 -->
<g id="node12" class="node">
<title>N11</title>
<polygon fill="none" stroke="black" points="469.5,-252 392.5,-252 392.5,-216 469.5,-216 469.5,-252"/>
<text text-anchor="middle" x="431" y="-230.3" font-family="Times,serif" font-size="14.00">sportlist</text>
</g>
<!-- N9&#45;&gt;N11 -->
<g id="edge5" class="edge">
<title>N9&#45;&gt;N11</title>
<path fill="none" stroke="black" d="M383.16,-323.97C392.24,-307.07 406.3,-280.94 416.83,-261.36"/>
<polygon fill="black" stroke="black" points="420.02,-262.81 421.68,-252.34 413.86,-259.49 420.02,-262.81"/>
</g>
<!-- N13 -->
<g id="node14" class="node">
<title>N13</title>
<polygon fill="none" stroke="black" points="626,-468 504,-468 504,-432 626,-432 626,-468"/>
<text text-anchor="middle" x="565" y="-446.3" font-family="Times,serif" font-size="14.00">meilleurJoueur</text>
</g>
<!-- N12&#45;&gt;N13 -->
<g id="edge13" class="edge">
<title>N12&#45;&gt;N13</title>
<path fill="none" stroke="black" d="M724.47,-539.97C692.02,-521.86 640.57,-493.16 604.92,-473.27"/>
<polygon fill="black" stroke="black" points="606.2,-469.98 595.77,-468.16 602.79,-476.09 606.2,-469.98"/>
</g>
<!-- N14 -->
<g id="node15" class="node">
<title>N14</title>
<polygon fill="none" stroke="black" points="812,-468 698,-468 698,-432 812,-432 812,-468"/>
<text text-anchor="middle" x="755" y="-446.3" font-family="Times,serif" font-size="14.00">TypeFieldList</text>
</g>
<!-- N12&#45;&gt;N14 -->
<g id="edge14" class="edge">
<title>N12&#45;&gt;N14</title>
<path fill="none" stroke="black" d="M755,-539.97C755,-523.38 755,-497.88 755,-478.43"/>
<polygon fill="black" stroke="black" points="758.5,-478.34 755,-468.34 751.5,-478.34 758.5,-478.34"/>
</g>
<!-- N15 -->
<g id="node16" class="node">
<title>N15</title>
<polygon fill="none" stroke="black" points="741.5,-360 654.5,-360 654.5,-324 741.5,-324 741.5,-360"/>
<text text-anchor="middle" x="698" y="-338.3" font-family="Times,serif" font-size="14.00">TypeField</text>
</g>
<!-- N14&#45;&gt;N15 -->
<g id="edge12" class="edge">
<title>N14&#45;&gt;N15</title>
<path fill="none" stroke="black" d="M745.84,-431.97C736.76,-415.07 722.7,-388.94 712.17,-369.36"/>
<polygon fill="black" stroke="black" points="715.14,-367.49 707.32,-360.34 708.98,-370.81 715.14,-367.49"/>
</g>
<!-- N16 -->
<g id="node17" class="node">
<title>N16</title>
<polygon fill="none" stroke="black" points="596,-252 542,-252 542,-216 596,-216 596,-252"/>
<text text-anchor="middle" x="569" y="-230.3" font-family="Times,serif" font-size="14.00">nom</text>
</g>
<!-- N15&#45;&gt;N16 -->
<g id="edge10" class="edge">
<title>N15&#45;&gt;N16</title>
<path fill="none" stroke="black" d="M677.27,-323.97C655.77,-306.3 621.99,-278.54 597.88,-258.73"/>
<polygon fill="black" stroke="black" points="600.05,-255.99 590.1,-252.34 595.61,-261.39 600.05,-255.99"/>
</g>
<!-- N17 -->
<g id="node18" class="node">
<title>N17</title>
<polygon fill="none" stroke="black" points="727.5,-252 668.5,-252 668.5,-216 727.5,-216 727.5,-252"/>
<text text-anchor="middle" x="698" y="-230.3" font-family="Times,serif" font-size="14.00">string</text>
</g>
<!-- N15&#45;&gt;N17 -->
<g id="edge11" class="edge">
<title>N15&#45;&gt;N17</title>
<path fill="none" stroke="black" d="M698,-323.97C698,-307.38 698,-281.88 698,-262.43"/>
<polygon fill="black" stroke="black" points="701.5,-262.34 698,-252.34 694.5,-262.34 701.5,-262.34"/>
</g>
<!-- N19 -->
<g id="node20" class="node">
<title>N19</title>
<polygon fill="none" stroke="black" points="1086.5,-468 1009.5,-468 1009.5,-432 1086.5,-432 1086.5,-468"/>
<text text-anchor="middle" x="1048" y="-446.3" font-family="Times,serif" font-size="14.00">sportlist</text>
</g>
<!-- N18&#45;&gt;N19 -->
<g id="edge25" class="edge">
<title>N18&#45;&gt;N19</title>
<path fill="none" stroke="black" d="M1118.5,-539.97C1104.87,-522.76 1083.65,-495.98 1068.05,-476.29"/>
<polygon fill="black" stroke="black" points="1070.7,-474 1061.74,-468.34 1065.21,-478.35 1070.7,-474"/>
</g>
<!-- N20 -->
<g id="node21" class="node">
<title>N20</title>
<polygon fill="none" stroke="black" points="1273,-468 1159,-468 1159,-432 1273,-432 1273,-468"/>
<text text-anchor="middle" x="1216" y="-446.3" font-family="Times,serif" font-size="14.00">TypeFieldList</text>
</g>
<!-- N18&#45;&gt;N20 -->
<g id="edge26" class="edge">
<title>N18&#45;&gt;N20</title>
<path fill="none" stroke="black" d="M1145.5,-539.97C1159.13,-522.76 1180.35,-495.98 1195.95,-476.29"/>
<polygon fill="black" stroke="black" points="1198.79,-478.35 1202.26,-468.34 1193.3,-474 1198.79,-478.35"/>
</g>
<!-- N21 -->
<g id="node22" class="node">
<title>N21</title>
<polygon fill="none" stroke="black" points="1037.5,-360 950.5,-360 950.5,-324 1037.5,-324 1037.5,-360"/>
<text text-anchor="middle" x="994" y="-338.3" font-family="Times,serif" font-size="14.00">TypeField</text>
</g>
<!-- N20&#45;&gt;N21 -->
<g id="edge18" class="edge">
<title>N20&#45;&gt;N21</title>
<path fill="none" stroke="black" d="M1180.33,-431.97C1141.93,-413.63 1080.75,-384.42 1039.06,-364.51"/>
<polygon fill="black" stroke="black" points="1040.48,-361.31 1029.95,-360.16 1037.46,-367.63 1040.48,-361.31"/>
</g>
<!-- N24 -->
<g id="node25" class="node">
<title>N24</title>
<polygon fill="none" stroke="black" points="1259.5,-360 1172.5,-360 1172.5,-324 1259.5,-324 1259.5,-360"/>
<text text-anchor="middle" x="1216" y="-338.3" font-family="Times,serif" font-size="14.00">TypeField</text>
</g>
<!-- N20&#45;&gt;N24 -->
<g id="edge21" class="edge">
<title>N20&#45;&gt;N24</title>
<path fill="none" stroke="black" d="M1216,-431.97C1216,-415.38 1216,-389.88 1216,-370.43"/>
<polygon fill="black" stroke="black" points="1219.5,-370.34 1216,-360.34 1212.5,-370.34 1219.5,-370.34"/>
</g>
<!-- N27 -->
<g id="node28" class="node">
<title>N27</title>
<polygon fill="none" stroke="black" points="1480.5,-360 1393.5,-360 1393.5,-324 1480.5,-324 1480.5,-360"/>
<text text-anchor="middle" x="1437" y="-338.3" font-family="Times,serif" font-size="14.00">TypeField</text>
</g>
<!-- N20&#45;&gt;N27 -->
<g id="edge24" class="edge">
<title>N20&#45;&gt;N27</title>
<path fill="none" stroke="black" d="M1251.51,-431.97C1289.74,-413.63 1350.64,-384.42 1392.15,-364.51"/>
<polygon fill="black" stroke="black" points="1393.71,-367.64 1401.21,-360.16 1390.68,-361.33 1393.71,-367.64"/>
</g>
<!-- N22 -->
<g id="node23" class="node">
<title>N22</title>
<polygon fill="none" stroke="black" points="892,-252 800,-252 800,-216 892,-216 892,-252"/>
<text text-anchor="middle" x="846" y="-230.3" font-family="Times,serif" font-size="14.00">nom_sport</text>
</g>
<!-- N21&#45;&gt;N22 -->
<g id="edge16" class="edge">
<title>N21&#45;&gt;N22</title>
<path fill="none" stroke="black" d="M970.22,-323.97C945.34,-306.15 906.12,-278.06 878.41,-258.21"/>
<polygon fill="black" stroke="black" points="880.38,-255.32 870.21,-252.34 876.3,-261.01 880.38,-255.32"/>
</g>
<!-- N23 -->
<g id="node24" class="node">
<title>N23</title>
<polygon fill="none" stroke="black" points="1023.5,-252 964.5,-252 964.5,-216 1023.5,-216 1023.5,-252"/>
<text text-anchor="middle" x="994" y="-230.3" font-family="Times,serif" font-size="14.00">string</text>
</g>
<!-- N21&#45;&gt;N23 -->
<g id="edge17" class="edge">
<title>N21&#45;&gt;N23</title>
<path fill="none" stroke="black" d="M994,-323.97C994,-307.38 994,-281.88 994,-262.43"/>
<polygon fill="black" stroke="black" points="997.5,-262.34 994,-252.34 990.5,-262.34 997.5,-262.34"/>
</g>
<!-- N25 -->
<g id="node26" class="node">
<title>N25</title>
<polygon fill="none" stroke="black" points="1150.5,-252 1095.5,-252 1095.5,-216 1150.5,-216 1150.5,-252"/>
<text text-anchor="middle" x="1123" y="-230.3" font-family="Times,serif" font-size="14.00">other</text>
</g>
<!-- N24&#45;&gt;N25 -->
<g id="edge19" class="edge">
<title>N24&#45;&gt;N25</title>
<path fill="none" stroke="black" d="M1201.06,-323.97C1185.89,-306.69 1162.26,-279.74 1144.96,-260.03"/>
<polygon fill="black" stroke="black" points="1147.44,-257.55 1138.21,-252.34 1142.18,-262.17 1147.44,-257.55"/>
</g>
<!-- N26 -->
<g id="node27" class="node">
<title>N26</title>
<polygon fill="none" stroke="black" points="1337.5,-252 1222.5,-252 1222.5,-216 1337.5,-216 1337.5,-252"/>
<text text-anchor="middle" x="1280" y="-230.3" font-family="Times,serif" font-size="14.00">othersportlist</text>
</g>
<!-- N24&#45;&gt;N26 -->
<g id="edge20" class="edge">
<title>N24&#45;&gt;N26</title>
<path fill="none" stroke="black" d="M1226.28,-323.97C1236.53,-306.99 1252.41,-280.7 1264.25,-261.09"/>
<polygon fill="black" stroke="black" points="1267.36,-262.71 1269.53,-252.34 1261.37,-259.09 1267.36,-262.71"/>
</g>
<!-- N28 -->
<g id="node29" class="node">
<title>N28</title>
<polygon fill="none" stroke="black" points="1464,-252 1410,-252 1410,-216 1464,-216 1464,-252"/>
<text text-anchor="middle" x="1437" y="-230.3" font-family="Times,serif" font-size="14.00">nom</text>
</g>
<!-- N27&#45;&gt;N28 -->
<g id="edge22" class="edge">
<title>N27&#45;&gt;N28</title>
<path fill="none" stroke="black" d="M1437,-323.97C1437,-307.38 1437,-281.88 1437,-262.43"/>
<polygon fill="black" stroke="black" points="1440.5,-262.34 1437,-252.34 1433.5,-262.34 1440.5,-262.34"/>
</g>
<!-- N29 -->
<g id="node30" class="node">
<title>N29</title>
<polygon fill="none" stroke="black" points="1658,-252 1536,-252 1536,-216 1658,-216 1658,-252"/>
<text text-anchor="middle" x="1597" y="-230.3" font-family="Times,serif" font-size="14.00">meilleurJoueur</text>
</g>
<!-- N27&#45;&gt;N29 -->
<g id="edge23" class="edge">
<title>N27&#45;&gt;N29</title>
<path fill="none" stroke="black" d="M1462.71,-323.97C1489.8,-306.02 1532.63,-277.65 1562.61,-257.78"/>
<polygon fill="black" stroke="black" points="1564.69,-260.6 1571.09,-252.16 1560.82,-254.77 1564.69,-260.6"/>
</g>
<!-- N31 -->
<g id="node32" class="node">
<title>N31</title>
<polygon fill="none" stroke="black" points="1447,-468 1393,-468 1393,-432 1447,-432 1447,-468"/>
<text text-anchor="middle" x="1420" y="-446.3" font-family="Times,serif" font-size="14.00">club</text>
</g>
<!-- N30&#45;&gt;N31 -->
<g id="edge39" class="edge">
<title>N30&#45;&gt;N31</title>
<path fill="none" stroke="black" d="M1420,-539.97C1420,-523.38 1420,-497.88 1420,-478.43"/>
<polygon fill="black" stroke="black" points="1423.5,-478.34 1420,-468.34 1416.5,-478.34 1423.5,-478.34"/>
</g>
<!-- N32 -->
<g id="node33" class="node">
<title>N32</title>
<polygon fill="none" stroke="black" points="1657.5,-468 1566.5,-468 1566.5,-432 1657.5,-432 1657.5,-468"/>
<text text-anchor="middle" x="1612" y="-446.3" font-family="Times,serif" font-size="14.00">RecCreate</text>
</g>
<!-- N30&#45;&gt;N32 -->
<g id="edge40" class="edge">
<title>N30&#45;&gt;N32</title>
<path fill="none" stroke="black" d="M1450.85,-539.97C1483.78,-521.79 1536.08,-492.91 1572.12,-473.02"/>
<polygon fill="black" stroke="black" points="1573.85,-476.06 1580.91,-468.16 1570.46,-469.93 1573.85,-476.06"/>
</g>
<!-- N33 -->
<g id="node34" class="node">
<title>N33</title>
<polygon fill="none" stroke="black" points="1639,-360 1585,-360 1585,-324 1639,-324 1639,-360"/>
<text text-anchor="middle" x="1612" y="-338.3" font-family="Times,serif" font-size="14.00">club</text>
</g>
<!-- N32&#45;&gt;N33 -->
<g id="edge37" class="edge">
<title>N32&#45;&gt;N33</title>
<path fill="none" stroke="black" d="M1612,-431.97C1612,-415.38 1612,-389.88 1612,-370.43"/>
<polygon fill="black" stroke="black" points="1615.5,-370.34 1612,-360.34 1608.5,-370.34 1615.5,-370.34"/>
</g>
<!-- N34 -->
<g id="node35" class="node">
<title>N34</title>
<polygon fill="none" stroke="black" points="1849,-360 1743,-360 1743,-324 1849,-324 1849,-360"/>
<text text-anchor="middle" x="1796" y="-338.3" font-family="Times,serif" font-size="14.00">RecFieldList</text>
</g>
<!-- N32&#45;&gt;N34 -->
<g id="edge38" class="edge">
<title>N32&#45;&gt;N34</title>
<path fill="none" stroke="black" d="M1641.56,-431.97C1672.99,-413.86 1722.82,-385.16 1757.34,-365.27"/>
<polygon fill="black" stroke="black" points="1759.29,-368.19 1766.21,-360.16 1755.79,-362.12 1759.29,-368.19"/>
</g>
<!-- N35 -->
<g id="node40" class="node">
<title>N35</title>
<polygon fill="none" stroke="black" points="1861.5,-252 1730.5,-252 1730.5,-216 1861.5,-216 1861.5,-252"/>
<text text-anchor="middle" x="1796" y="-230.3" font-family="Times,serif" font-size="14.00">AffectVarInType</text>
</g>
<!-- N34&#45;&gt;N35 -->
<g id="edge32" class="edge">
<title>N34&#45;&gt;N35</title>
<path fill="none" stroke="black" d="M1796,-323.97C1796,-307.38 1796,-281.88 1796,-262.43"/>
<polygon fill="black" stroke="black" points="1799.5,-262.34 1796,-252.34 1792.5,-262.34 1799.5,-262.34"/>
</g>
<!-- N40 -->
<g id="node44" class="node">
<title>N40</title>
<polygon fill="none" stroke="black" points="2064.5,-252 1933.5,-252 1933.5,-216 2064.5,-216 2064.5,-252"/>
<text text-anchor="middle" x="1999" y="-230.3" font-family="Times,serif" font-size="14.00">AffectVarInType</text>
</g>
<!-- N34&#45;&gt;N40 -->
<g id="edge36" class="edge">
<title>N34&#45;&gt;N40</title>
<path fill="none" stroke="black" d="M1828.62,-323.97C1863.43,-305.79 1918.73,-276.91 1956.83,-257.02"/>
<polygon fill="black" stroke="black" points="1958.88,-259.9 1966.13,-252.16 1955.64,-253.69 1958.88,-259.9"/>
</g>
<!-- N36 -->
<g id="node36" class="node">
<title>N36</title>
<polygon fill="none" stroke="black" points="1706,-144 1642,-144 1642,-108 1706,-108 1706,-144"/>
<text text-anchor="middle" x="1674" y="-122.3" font-family="Times,serif" font-size="14.00">Lvalue</text>
</g>
<!-- N37 -->
<g id="node37" class="node">
<title>N37</title>
<polygon fill="none" stroke="black" points="1701.5,-36 1646.5,-36 1646.5,0 1701.5,0 1701.5,-36"/>
<text text-anchor="middle" x="1674" y="-14.3" font-family="Times,serif" font-size="14.00">other</text>
</g>
<!-- N36&#45;&gt;N37 -->
<g id="edge28" class="edge">
<title>N36&#45;&gt;N37</title>
<path fill="none" stroke="black" d="M1674,-107.97C1674,-91.38 1674,-65.88 1674,-46.43"/>
<polygon fill="black" stroke="black" points="1677.5,-46.34 1674,-36.34 1670.5,-46.34 1677.5,-46.34"/>
</g>
<!-- N38 -->
<g id="node38" class="node">
<title>N38</title>
<polygon fill="none" stroke="black" points="1842,-144 1778,-144 1778,-108 1842,-108 1842,-144"/>
<text text-anchor="middle" x="1810" y="-122.3" font-family="Times,serif" font-size="14.00">Lvalue</text>
</g>
<!-- N39 -->
<g id="node39" class="node">
<title>N39</title>
<polygon fill="none" stroke="black" points="1837,-36 1783,-36 1783,0 1837,0 1837,-36"/>
<text text-anchor="middle" x="1810" y="-14.3" font-family="Times,serif" font-size="14.00">tkt</text>
</g>
<!-- N38&#45;&gt;N39 -->
<g id="edge29" class="edge">
<title>N38&#45;&gt;N39</title>
<path fill="none" stroke="black" d="M1810,-107.97C1810,-91.38 1810,-65.88 1810,-46.43"/>
<polygon fill="black" stroke="black" points="1813.5,-46.34 1810,-36.34 1806.5,-46.34 1813.5,-46.34"/>
</g>
<!-- N35&#45;&gt;N36 -->
<g id="edge30" class="edge">
<title>N35&#45;&gt;N36</title>
<path fill="none" stroke="black" d="M1776.4,-215.97C1756.15,-198.38 1724.39,-170.78 1701.61,-150.99"/>
<polygon fill="black" stroke="black" points="1703.8,-148.26 1693.96,-144.34 1699.21,-153.54 1703.8,-148.26"/>
</g>
<!-- N35&#45;&gt;N38 -->
<g id="edge31" class="edge">
<title>N35&#45;&gt;N38</title>
<path fill="none" stroke="black" d="M1798.25,-215.97C1800.44,-199.38 1803.81,-173.88 1806.38,-154.43"/>
<polygon fill="black" stroke="black" points="1809.87,-154.71 1807.71,-144.34 1802.93,-153.8 1809.87,-154.71"/>
</g>
<!-- N41 -->
<g id="node41" class="node">
<title>N41</title>
<polygon fill="none" stroke="black" points="2016,-144 1952,-144 1952,-108 2016,-108 2016,-144"/>
<text text-anchor="middle" x="1984" y="-122.3" font-family="Times,serif" font-size="14.00">Lvalue</text>
</g>
<!-- N42 -->
<g id="node42" class="node">
<title>N42</title>
<polygon fill="none" stroke="black" points="2030,-36 1938,-36 1938,0 2030,0 2030,-36"/>
<text text-anchor="middle" x="1984" y="-14.3" font-family="Times,serif" font-size="14.00">nom_sport</text>
</g>
<!-- N41&#45;&gt;N42 -->
<g id="edge33" class="edge">
<title>N41&#45;&gt;N42</title>
<path fill="none" stroke="black" d="M1984,-107.97C1984,-91.38 1984,-65.88 1984,-46.43"/>
<polygon fill="black" stroke="black" points="1987.5,-46.34 1984,-36.34 1980.5,-46.34 1987.5,-46.34"/>
</g>
<!-- N43 -->
<g id="node43" class="node">
<title>N43</title>
<polygon fill="none" stroke="black" points="2153.5,-144 2088.5,-144 2088.5,-108 2153.5,-108 2153.5,-144"/>
<text text-anchor="middle" x="2121" y="-122.3" font-family="Times,serif" font-size="14.00">&quot;salut&quot;</text>
</g>
<!-- N40&#45;&gt;N41 -->
<g id="edge34" class="edge">
<title>N40&#45;&gt;N41</title>
<path fill="none" stroke="black" d="M1996.59,-215.97C1994.24,-199.38 1990.63,-173.88 1987.88,-154.43"/>
<polygon fill="black" stroke="black" points="1991.32,-153.75 1986.45,-144.34 1984.39,-154.73 1991.32,-153.75"/>
</g>
<!-- N40&#45;&gt;N43 -->
<g id="edge35" class="edge">
<title>N40&#45;&gt;N43</title>
<path fill="none" stroke="black" d="M2018.6,-215.97C2038.85,-198.38 2070.61,-170.78 2093.39,-150.99"/>
<polygon fill="black" stroke="black" points="2095.79,-153.54 2101.04,-144.34 2091.2,-148.26 2095.79,-153.54"/>
</g>
<!-- N45 -->
<g id="node46" class="node">
<title>N45</title>
<polygon fill="none" stroke="black" points="2231.5,-576 2126.5,-576 2126.5,-540 2231.5,-540 2231.5,-576"/>
<text text-anchor="middle" x="2179" y="-554.3" font-family="Times,serif" font-size="14.00">AffectLvalue</text>
</g>
<!-- N44&#45;&gt;N45 -->
<g id="edge49" class="edge">
<title>N44&#45;&gt;N45</title>
<path fill="none" stroke="black" d="M2179,-647.97C2179,-631.38 2179,-605.88 2179,-586.43"/>
<polygon fill="black" stroke="black" points="2182.5,-586.34 2179,-576.34 2175.5,-586.34 2182.5,-586.34"/>
</g>
<!-- N52 -->
<g id="node53" class="node">
<title>N52</title>
<polygon fill="none" stroke="black" points="2532.5,-576 2427.5,-576 2427.5,-540 2532.5,-540 2532.5,-576"/>
<text text-anchor="middle" x="2480" y="-554.3" font-family="Times,serif" font-size="14.00">AffectLvalue</text>
</g>
<!-- N44&#45;&gt;N52 -->
<g id="edge55" class="edge">
<title>N44&#45;&gt;N52</title>
<path fill="none" stroke="black" d="M2218.04,-651.25C2269.88,-633 2361.84,-600.61 2421.86,-579.48"/>
<polygon fill="black" stroke="black" points="2423.3,-582.68 2431.57,-576.05 2420.98,-576.08 2423.3,-582.68"/>
</g>
<!-- N46 -->
<g id="node47" class="node">
<title>N46</title>
<polygon fill="none" stroke="black" points="2153,-468 2089,-468 2089,-432 2153,-432 2153,-468"/>
<text text-anchor="middle" x="2121" y="-446.3" font-family="Times,serif" font-size="14.00">Lvalue</text>
</g>
<!-- N45&#45;&gt;N46 -->
<g id="edge47" class="edge">
<title>N45&#45;&gt;N46</title>
<path fill="none" stroke="black" d="M2169.68,-539.97C2160.43,-523.07 2146.13,-496.94 2135.42,-477.36"/>
<polygon fill="black" stroke="black" points="2138.36,-475.43 2130.49,-468.34 2132.22,-478.79 2138.36,-475.43"/>
</g>
<!-- N51 -->
<g id="node52" class="node">
<title>N51</title>
<polygon fill="none" stroke="black" points="2309,-468 2225,-468 2225,-432 2309,-432 2309,-468"/>
<text text-anchor="middle" x="2267" y="-446.3" font-family="Times,serif" font-size="14.00">&quot;football&quot;</text>
</g>
<!-- N45&#45;&gt;N51 -->
<g id="edge48" class="edge">
<title>N45&#45;&gt;N51</title>
<path fill="none" stroke="black" d="M2193.14,-539.97C2207.42,-522.76 2229.66,-495.98 2246,-476.29"/>
<polygon fill="black" stroke="black" points="2248.91,-478.27 2252.6,-468.34 2243.52,-473.8 2248.91,-478.27"/>
</g>
<!-- N47 -->
<g id="node48" class="node">
<title>N47</title>
<polygon fill="none" stroke="black" points="2018,-360 1964,-360 1964,-324 2018,-324 2018,-360"/>
<text text-anchor="middle" x="1991" y="-338.3" font-family="Times,serif" font-size="14.00">club</text>
</g>
<!-- N46&#45;&gt;N47 -->
<g id="edge43" class="edge">
<title>N46&#45;&gt;N47</title>
<path fill="none" stroke="black" d="M2100.11,-431.97C2078.45,-414.3 2044.4,-386.54 2020.1,-366.73"/>
<polygon fill="black" stroke="black" points="2022.23,-363.95 2012.27,-360.34 2017.81,-369.37 2022.23,-363.95"/>
</g>
<!-- N48 -->
<g id="node49" class="node">
<title>N48</title>
<polygon fill="none" stroke="black" points="2152,-360 2090,-360 2090,-324 2152,-324 2152,-360"/>
<text text-anchor="middle" x="2121" y="-338.3" font-family="Times,serif" font-size="14.00">sports</text>
</g>
<!-- N46&#45;&gt;N48 -->
<g id="edge45" class="edge">
<title>N46&#45;&gt;N48</title>
<path fill="none" stroke="black" d="M2121,-431.97C2121,-415.38 2121,-389.88 2121,-370.43"/>
<polygon fill="black" stroke="black" points="2124.5,-370.34 2121,-360.34 2117.5,-370.34 2124.5,-370.34"/>
</g>
<!-- N50 -->
<g id="node51" class="node">
<title>N50</title>
<polygon fill="none" stroke="black" points="2316,-360 2224,-360 2224,-324 2316,-324 2316,-360"/>
<text text-anchor="middle" x="2270" y="-338.3" font-family="Times,serif" font-size="14.00">nom_sport</text>
</g>
<!-- N46&#45;&gt;N50 -->
<g id="edge46" class="edge">
<title>N46&#45;&gt;N50</title>
<path fill="none" stroke="black" d="M2144.94,-431.97C2169.99,-414.15 2209.48,-386.06 2237.37,-366.21"/>
<polygon fill="black" stroke="black" points="2239.51,-368.99 2245.62,-360.34 2235.45,-363.29 2239.51,-368.99"/>
</g>
<!-- N49 -->
<g id="node50" class="node">
<title>N49</title>
<polygon fill="none" stroke="black" points="2191,-252 2137,-252 2137,-216 2191,-216 2191,-252"/>
<text text-anchor="middle" x="2164" y="-230.3" font-family="Times,serif" font-size="14.00">1</text>
</g>
<!-- N48&#45;&gt;N49 -->
<g id="edge44" class="edge">
<title>N48&#45;&gt;N49</title>
<path fill="none" stroke="black" d="M2127.91,-323.97C2134.73,-307.15 2145.27,-281.17 2153.2,-261.62"/>
<polygon fill="black" stroke="black" points="2156.45,-262.92 2156.97,-252.34 2149.96,-260.29 2156.45,-262.92"/>
</g>
<!-- N53 -->
<g id="node54" class="node">
<title>N53</title>
<polygon fill="none" stroke="black" points="2512,-468 2448,-468 2448,-432 2512,-432 2512,-468"/>
<text text-anchor="middle" x="2480" y="-446.3" font-family="Times,serif" font-size="14.00">Lvalue</text>
</g>
<!-- N52&#45;&gt;N53 -->
<g id="edge53" class="edge">
<title>N52&#45;&gt;N53</title>
<path fill="none" stroke="black" d="M2480,-539.97C2480,-523.38 2480,-497.88 2480,-478.43"/>
<polygon fill="black" stroke="black" points="2483.5,-478.34 2480,-468.34 2476.5,-478.34 2483.5,-478.34"/>
</g>
<!-- N57 -->
<g id="node58" class="node">
<title>N57</title>
<polygon fill="none" stroke="black" points="2654,-468 2584,-468 2584,-432 2654,-432 2654,-468"/>
<text text-anchor="middle" x="2619" y="-446.3" font-family="Times,serif" font-size="14.00">&quot;Mady&quot;</text>
</g>
<!-- N52&#45;&gt;N57 -->
<g id="edge54" class="edge">
<title>N52&#45;&gt;N57</title>
<path fill="none" stroke="black" d="M2502.33,-539.97C2525.6,-522.23 2562.22,-494.3 2588.22,-474.47"/>
<polygon fill="black" stroke="black" points="2590.43,-477.19 2596.26,-468.34 2586.19,-471.62 2590.43,-477.19"/>
</g>
<!-- N54 -->
<g id="node55" class="node">
<title>N54</title>
<polygon fill="none" stroke="black" points="2442,-360 2388,-360 2388,-324 2442,-324 2442,-360"/>
<text text-anchor="middle" x="2415" y="-338.3" font-family="Times,serif" font-size="14.00">club</text>
</g>
<!-- N53&#45;&gt;N54 -->
<g id="edge50" class="edge">
<title>N53&#45;&gt;N54</title>
<path fill="none" stroke="black" d="M2469.56,-431.97C2459.15,-414.99 2443.02,-388.7 2431,-369.09"/>
<polygon fill="black" stroke="black" points="2433.84,-367.04 2425.63,-360.34 2427.88,-370.7 2433.84,-367.04"/>
</g>
<!-- N55 -->
<g id="node56" class="node">
<title>N55</title>
<polygon fill="none" stroke="black" points="2576,-360 2514,-360 2514,-324 2576,-324 2576,-360"/>
<text text-anchor="middle" x="2545" y="-338.3" font-family="Times,serif" font-size="14.00">sports</text>
</g>
<!-- N53&#45;&gt;N55 -->
<g id="edge51" class="edge">
<title>N53&#45;&gt;N55</title>
<path fill="none" stroke="black" d="M2490.44,-431.97C2500.85,-414.99 2516.98,-388.7 2529,-369.09"/>
<polygon fill="black" stroke="black" points="2532.12,-370.7 2534.37,-360.34 2526.16,-367.04 2532.12,-370.7"/>
</g>
<!-- N56 -->
<g id="node57" class="node">
<title>N56</title>
<polygon fill="none" stroke="black" points="2702,-360 2648,-360 2648,-324 2702,-324 2702,-360"/>
<text text-anchor="middle" x="2675" y="-338.3" font-family="Times,serif" font-size="14.00">nom</text>
</g>
<!-- N53&#45;&gt;N56 -->
<g id="edge52" class="edge">
<title>N53&#45;&gt;N56</title>
<path fill="none" stroke="black" d="M2511.33,-431.97C2546.17,-413.03 2602.34,-382.5 2638.97,-362.59"/>
<polygon fill="black" stroke="black" points="2640.72,-365.62 2647.84,-357.77 2637.38,-359.47 2640.72,-365.62"/>
</g>
</g>
</svg>
