<?xml version="1.0" encoding="UTF-8" standalone="no"?>
<!DOCTYPE svg PUBLIC "-//W3C//DTD SVG 1.1//EN"
 "http://www.w3.org/Graphics/SVG/1.1/DTD/svg11.dtd">
<!-- Generated by graphviz version 2.43.0 (0)
 -->
<!-- Title: ast Pages: 1 -->
<svg width="460pt" height="368pt"
 viewBox="0.00 0.00 460.00 368.00" xmlns="http://www.w3.org/2000/svg" xmlns:xlink="http://www.w3.org/1999/xlink">
<g id="graph0" class="graph" transform="scale(1 1) rotate(0) translate(4 364)">
<title>ast</title>
<polygon fill="white" stroke="transparent" points="-4,4 -4,-364 456,-364 456,4 -4,4"/>
<!-- N0 -->
<g id="node1" class="node">
<title>N0</title>
<polygon fill="none" stroke="black" points="192.5,-360 113.5,-360 113.5,-324 192.5,-324 192.5,-360"/>
<text text-anchor="middle" x="153" y="-338.3" font-family="Times,serif" font-size="14.00">Program</text>
</g>
<!-- N1 -->
<g id="node8" class="node">
<title>N1</title>
<polygon fill="none" stroke="black" points="199.5,-252 106.5,-252 106.5,-216 199.5,-216 199.5,-252"/>
<text text-anchor="middle" x="153" y="-230.3" font-family="Times,serif" font-size="14.00">IfThenElse</text>
</g>
<!-- N0&#45;&gt;N1 -->
<g id="edge7" class="edge">
<title>N0&#45;&gt;N1</title>
<path fill="none" stroke="black" d="M153,-323.97C153,-307.38 153,-281.88 153,-262.43"/>
<polygon fill="black" stroke="black" points="156.5,-262.34 153,-252.34 149.5,-262.34 156.5,-262.34"/>
</g>
<!-- N2 -->
<g id="node2" class="node">
<title>N2</title>
<polygon fill="none" stroke="black" points="54,-144 0,-144 0,-108 54,-108 54,-144"/>
<text text-anchor="middle" x="27" y="-122.3" font-family="Times,serif" font-size="14.00">1</text>
</g>
<!-- N3 -->
<g id="node3" class="node">
<title>N3</title>
<polygon fill="none" stroke="black" points="180,-144 126,-144 126,-108 180,-108 180,-144"/>
<text text-anchor="middle" x="153" y="-122.3" font-family="Times,serif" font-size="14.00">1</text>
</g>
<!-- N5 -->
<g id="node4" class="node">
<title>N5</title>
<polygon fill="none" stroke="black" points="200,-36 146,-36 146,0 200,0 200,-36"/>
<text text-anchor="middle" x="173" y="-14.3" font-family="Times,serif" font-size="14.00">1</text>
</g>
<!-- N6 -->
<g id="node5" class="node">
<title>N6</title>
<polygon fill="none" stroke="black" points="326,-36 272,-36 272,0 326,0 326,-36"/>
<text text-anchor="middle" x="299" y="-14.3" font-family="Times,serif" font-size="14.00">1</text>
</g>
<!-- N7 -->
<g id="node6" class="node">
<title>N7</title>
<polygon fill="none" stroke="black" points="452,-36 398,-36 398,0 452,0 452,-36"/>
<text text-anchor="middle" x="425" y="-14.3" font-family="Times,serif" font-size="14.00">1</text>
</g>
<!-- N4 -->
<g id="node7" class="node">
<title>N4</title>
<polygon fill="none" stroke="black" points="345.5,-144 252.5,-144 252.5,-108 345.5,-108 345.5,-144"/>
<text text-anchor="middle" x="299" y="-122.3" font-family="Times,serif" font-size="14.00">IfThenElse</text>
</g>
<!-- N4&#45;&gt;N5 -->
<g id="edge1" class="edge">
<title>N4&#45;&gt;N5</title>
<path fill="none" stroke="black" d="M278.76,-107.97C257.85,-90.38 225.04,-62.78 201.51,-42.99"/>
<polygon fill="black" stroke="black" points="203.52,-40.1 193.61,-36.34 199.01,-45.46 203.52,-40.1"/>
</g>
<!-- N4&#45;&gt;N6 -->
<g id="edge2" class="edge">
<title>N4&#45;&gt;N6</title>
<path fill="none" stroke="black" d="M299,-107.97C299,-91.38 299,-65.88 299,-46.43"/>
<polygon fill="black" stroke="black" points="302.5,-46.34 299,-36.34 295.5,-46.34 302.5,-46.34"/>
</g>
<!-- N4&#45;&gt;N7 -->
<g id="edge3" class="edge">
<title>N4&#45;&gt;N7</title>
<path fill="none" stroke="black" d="M319.24,-107.97C340.15,-90.38 372.96,-62.78 396.49,-42.99"/>
<polygon fill="black" stroke="black" points="398.99,-45.46 404.39,-36.34 394.48,-40.1 398.99,-45.46"/>
</g>
<!-- N1&#45;&gt;N2 -->
<g id="edge4" class="edge">
<title>N1&#45;&gt;N2</title>
<path fill="none" stroke="black" d="M132.76,-215.97C111.85,-198.38 79.04,-170.78 55.51,-150.99"/>
<polygon fill="black" stroke="black" points="57.52,-148.1 47.61,-144.34 53.01,-153.46 57.52,-148.1"/>
</g>
<!-- N1&#45;&gt;N3 -->
<g id="edge5" class="edge">
<title>N1&#45;&gt;N3</title>
<path fill="none" stroke="black" d="M153,-215.97C153,-199.38 153,-173.88 153,-154.43"/>
<polygon fill="black" stroke="black" points="156.5,-154.34 153,-144.34 149.5,-154.34 156.5,-154.34"/>
</g>
<!-- N1&#45;&gt;N4 -->
<g id="edge6" class="edge">
<title>N1&#45;&gt;N4</title>
<path fill="none" stroke="black" d="M176.46,-215.97C200.9,-198.23 239.36,-170.3 266.67,-150.47"/>
<polygon fill="black" stroke="black" points="269.08,-153.05 275.12,-144.34 264.97,-147.38 269.08,-153.05"/>
</g>
</g>
</svg>
