<?xml version="1.0" encoding="UTF-8" standalone="no"?>
<!DOCTYPE svg PUBLIC "-//W3C//DTD SVG 1.1//EN"
 "http://www.w3.org/Graphics/SVG/1.1/DTD/svg11.dtd">
<!-- Generated by graphviz version 2.43.0 (0)
 -->
<!-- Title: ast Pages: 1 -->
<svg width="2458pt" height="1016pt"
 viewBox="0.00 0.00 2457.50 1016.00" xmlns="http://www.w3.org/2000/svg" xmlns:xlink="http://www.w3.org/1999/xlink">
<g id="graph0" class="graph" transform="scale(1 1) rotate(0) translate(4 1012)">
<title>ast</title>
<polygon fill="white" stroke="transparent" points="-4,4 -4,-1012 2453.5,-1012 2453.5,4 -4,4"/>
<!-- N0 -->
<g id="node1" class="node">
<title>N0</title>
<polygon fill="none" stroke="black" points="1391,-1008 1312,-1008 1312,-972 1391,-972 1391,-1008"/>
<text text-anchor="middle" x="1351.5" y="-986.3" font-family="Times,serif" font-size="14.00">Program</text>
</g>
<!-- N1 -->
<g id="node2" class="node">
<title>N1</title>
<polygon fill="none" stroke="black" points="1393,-900 1310,-900 1310,-864 1393,-864 1393,-900"/>
<text text-anchor="middle" x="1351.5" y="-878.3" font-family="Times,serif" font-size="14.00">LetInEnd</text>
</g>
<!-- N0&#45;&gt;N1 -->
<g id="edge52" class="edge">
<title>N0&#45;&gt;N1</title>
<path fill="none" stroke="black" d="M1351.5,-971.97C1351.5,-955.38 1351.5,-929.88 1351.5,-910.43"/>
<polygon fill="black" stroke="black" points="1355,-910.34 1351.5,-900.34 1348,-910.34 1355,-910.34"/>
</g>
<!-- N2 -->
<g id="node3" class="node">
<title>N2</title>
<polygon fill="none" stroke="black" points="1044.5,-792 918.5,-792 918.5,-756 1044.5,-756 1044.5,-792"/>
<text text-anchor="middle" x="981.5" y="-770.3" font-family="Times,serif" font-size="14.00">DeclarationList</text>
</g>
<!-- N1&#45;&gt;N2 -->
<g id="edge33" class="edge">
<title>N1&#45;&gt;N2</title>
<path fill="none" stroke="black" d="M1309.78,-869.05C1246.92,-851.04 1127.22,-816.75 1051.04,-794.92"/>
<polygon fill="black" stroke="black" points="1051.62,-791.45 1041.05,-792.06 1049.7,-798.18 1051.62,-791.45"/>
</g>
<!-- N33 -->
<g id="node34" class="node">
<title>N33</title>
<polygon fill="none" stroke="black" points="1829.5,-792 1751.5,-792 1751.5,-756 1829.5,-756 1829.5,-792"/>
<text text-anchor="middle" x="1790.5" y="-770.3" font-family="Times,serif" font-size="14.00">ExprSeq</text>
</g>
<!-- N1&#45;&gt;N33 -->
<g id="edge51" class="edge">
<title>N1&#45;&gt;N33</title>
<path fill="none" stroke="black" d="M1393.2,-870.93C1474.62,-851.27 1654.4,-807.86 1741.41,-786.85"/>
<polygon fill="black" stroke="black" points="1742.4,-790.21 1751.3,-784.47 1740.76,-783.41 1742.4,-790.21"/>
</g>
<!-- N3 -->
<g id="node4" class="node">
<title>N3</title>
<polygon fill="none" stroke="black" points="294.5,-684 184.5,-684 184.5,-648 294.5,-648 294.5,-684"/>
<text text-anchor="middle" x="239.5" y="-662.3" font-family="Times,serif" font-size="14.00">DecFuncVoid</text>
</g>
<!-- N2&#45;&gt;N3 -->
<g id="edge6" class="edge">
<title>N2&#45;&gt;N3</title>
<path fill="none" stroke="black" d="M918.24,-763.96C778.91,-744.06 446.74,-696.61 305.2,-676.39"/>
<polygon fill="black" stroke="black" points="305.33,-672.87 294.93,-674.92 304.34,-679.8 305.33,-672.87"/>
</g>
<!-- N8 -->
<g id="node9" class="node">
<title>N8</title>
<polygon fill="none" stroke="black" points="753.5,-684 679.5,-684 679.5,-648 753.5,-648 753.5,-684"/>
<text text-anchor="middle" x="716.5" y="-662.3" font-family="Times,serif" font-size="14.00">Dec_Var</text>
</g>
<!-- N2&#45;&gt;N8 -->
<g id="edge10" class="edge">
<title>N2&#45;&gt;N8</title>
<path fill="none" stroke="black" d="M938.92,-755.97C890.92,-736.77 813.09,-705.64 763.38,-685.75"/>
<polygon fill="black" stroke="black" points="764.42,-682.4 753.83,-681.93 761.82,-688.9 764.42,-682.4"/>
</g>
<!-- N12 -->
<g id="node13" class="node">
<title>N12</title>
<polygon fill="none" stroke="black" points="1036.5,-684 926.5,-684 926.5,-648 1036.5,-648 1036.5,-684"/>
<text text-anchor="middle" x="981.5" y="-662.3" font-family="Times,serif" font-size="14.00">DecFuncVoid</text>
</g>
<!-- N2&#45;&gt;N12 -->
<g id="edge27" class="edge">
<title>N2&#45;&gt;N12</title>
<path fill="none" stroke="black" d="M981.5,-755.97C981.5,-739.38 981.5,-713.88 981.5,-694.43"/>
<polygon fill="black" stroke="black" points="985,-694.34 981.5,-684.34 978,-694.34 985,-694.34"/>
</g>
<!-- N28 -->
<g id="node29" class="node">
<title>N28</title>
<polygon fill="none" stroke="black" points="1512.5,-684 1402.5,-684 1402.5,-648 1512.5,-648 1512.5,-684"/>
<text text-anchor="middle" x="1457.5" y="-662.3" font-family="Times,serif" font-size="14.00">DecFuncVoid</text>
</g>
<!-- N2&#45;&gt;N28 -->
<g id="edge32" class="edge">
<title>N2&#45;&gt;N28</title>
<path fill="none" stroke="black" d="M1044.71,-758.92C1135.14,-738.79 1300.61,-701.94 1392.19,-681.54"/>
<polygon fill="black" stroke="black" points="1393.17,-684.91 1402.17,-679.32 1391.65,-678.08 1393.17,-684.91"/>
</g>
<!-- N4 -->
<g id="node5" class="node">
<title>N4</title>
<polygon fill="none" stroke="black" points="77,-576 0,-576 0,-540 77,-540 77,-576"/>
<text text-anchor="middle" x="38.5" y="-554.3" font-family="Times,serif" font-size="14.00">fortytwo</text>
</g>
<!-- N3&#45;&gt;N4 -->
<g id="edge1" class="edge">
<title>N3&#45;&gt;N4</title>
<path fill="none" stroke="black" d="M186.75,-647.97C144.79,-630.02 90.26,-601.65 59.05,-581.78"/>
<polygon fill="black" stroke="black" points="60.81,-578.74 50.53,-576.16 56.95,-584.59 60.81,-578.74"/>
</g>
<!-- N3&#45;&gt;N4 -->
<g id="edge2" class="edge">
<title>N3&#45;&gt;N4</title>
<path fill="none" stroke="black" d="M227.67,-647.97C197.95,-627.55 133.35,-593.63 86.71,-574.11"/>
<polygon fill="black" stroke="black" points="87.92,-570.82 77.34,-570.29 85.28,-577.3 87.92,-570.82"/>
</g>
<!-- N5 -->
<g id="node6" class="node">
<title>N5</title>
<polygon fill="none" stroke="black" points="203.5,-576 149.5,-576 149.5,-540 203.5,-540 203.5,-576"/>
<text text-anchor="middle" x="176.5" y="-554.3" font-family="Times,serif" font-size="14.00">int</text>
</g>
<!-- N3&#45;&gt;N5 -->
<g id="edge4" class="edge">
<title>N3&#45;&gt;N5</title>
<path fill="none" stroke="black" d="M229.38,-647.97C219.29,-630.99 203.66,-604.7 192.01,-585.09"/>
<polygon fill="black" stroke="black" points="194.92,-583.15 186.81,-576.34 188.91,-586.73 194.92,-583.15"/>
</g>
<!-- N6 -->
<g id="node7" class="node">
<title>N6</title>
<polygon fill="none" stroke="black" points="329.5,-576 275.5,-576 275.5,-540 329.5,-540 329.5,-576"/>
<text text-anchor="middle" x="302.5" y="-554.3" font-family="Times,serif" font-size="14.00">42</text>
</g>
<!-- N3&#45;&gt;N6 -->
<g id="edge5" class="edge">
<title>N3&#45;&gt;N6</title>
<path fill="none" stroke="black" d="M249.62,-647.97C259.71,-630.99 275.34,-604.7 286.99,-585.09"/>
<polygon fill="black" stroke="black" points="290.09,-586.73 292.19,-576.34 284.08,-583.15 290.09,-586.73"/>
</g>
<!-- N7 -->
<g id="node8" class="node">
<title>N7</title>
<polygon fill="none" stroke="black" points="455.5,-576 401.5,-576 401.5,-540 455.5,-540 455.5,-576"/>
<text text-anchor="middle" x="428.5" y="-554.3" font-family="Times,serif" font-size="14.00">42</text>
</g>
<!-- N3&#45;&gt;N7 -->
<g id="edge3" class="edge">
<title>N3&#45;&gt;N7</title>
<path fill="none" stroke="black" d="M269.87,-647.97C303.2,-629.27 356.69,-599.27 392.21,-579.35"/>
<polygon fill="black" stroke="black" points="394.27,-582.21 401.28,-574.27 390.84,-576.11 394.27,-582.21"/>
</g>
<!-- N9 -->
<g id="node10" class="node">
<title>N9</title>
<polygon fill="none" stroke="black" points="605,-576 528,-576 528,-540 605,-540 605,-576"/>
<text text-anchor="middle" x="566.5" y="-554.3" font-family="Times,serif" font-size="14.00">fortytwo</text>
</g>
<!-- N8&#45;&gt;N9 -->
<g id="edge8" class="edge">
<title>N8&#45;&gt;N9</title>
<path fill="none" stroke="black" d="M692.4,-647.97C667.18,-630.15 627.43,-602.06 599.35,-582.21"/>
<polygon fill="black" stroke="black" points="601.23,-579.25 591.04,-576.34 597.19,-584.97 601.23,-579.25"/>
</g>
<!-- N10 -->
<g id="node11" class="node">
<title>N10</title>
<polygon fill="none" stroke="black" points="756,-576 677,-576 677,-540 756,-540 756,-576"/>
<text text-anchor="middle" x="716.5" y="-554.3" font-family="Times,serif" font-size="14.00">CallExpr</text>
</g>
<!-- N8&#45;&gt;N10 -->
<g id="edge9" class="edge">
<title>N8&#45;&gt;N10</title>
<path fill="none" stroke="black" d="M716.5,-647.97C716.5,-631.38 716.5,-605.88 716.5,-586.43"/>
<polygon fill="black" stroke="black" points="720,-586.34 716.5,-576.34 713,-586.34 720,-586.34"/>
</g>
<!-- N11 -->
<g id="node12" class="node">
<title>N11</title>
<polygon fill="none" stroke="black" points="755,-468 678,-468 678,-432 755,-432 755,-468"/>
<text text-anchor="middle" x="716.5" y="-446.3" font-family="Times,serif" font-size="14.00">fortytwo</text>
</g>
<!-- N10&#45;&gt;N11 -->
<g id="edge7" class="edge">
<title>N10&#45;&gt;N11</title>
<path fill="none" stroke="black" d="M716.5,-539.97C716.5,-523.38 716.5,-497.88 716.5,-478.43"/>
<polygon fill="black" stroke="black" points="720,-478.34 716.5,-468.34 713,-478.34 720,-478.34"/>
</g>
<!-- N13 -->
<g id="node14" class="node">
<title>N13</title>
<polygon fill="none" stroke="black" points="882.5,-576 828.5,-576 828.5,-540 882.5,-540 882.5,-576"/>
<text text-anchor="middle" x="855.5" y="-554.3" font-family="Times,serif" font-size="14.00">a</text>
</g>
<!-- N12&#45;&gt;N13 -->
<g id="edge11" class="edge">
<title>N12&#45;&gt;N13</title>
<path fill="none" stroke="black" d="M940.8,-647.97C912.63,-630.69 879.64,-603.74 861.92,-584.03"/>
<polygon fill="black" stroke="black" points="864.61,-581.79 855.52,-576.34 859.23,-586.27 864.61,-581.79"/>
</g>
<!-- N12&#45;&gt;N13 -->
<g id="edge20" class="edge">
<title>N12&#45;&gt;N13</title>
<path fill="none" stroke="black" d="M981.72,-647.97C966.24,-627.27 924.72,-592.7 891.68,-573.31"/>
<polygon fill="black" stroke="black" points="893.05,-570.07 882.61,-568.27 889.65,-576.19 893.05,-570.07"/>
</g>
<!-- N14 -->
<g id="node15" class="node">
<title>N14</title>
<polygon fill="none" stroke="black" points="1008.5,-576 954.5,-576 954.5,-540 1008.5,-540 1008.5,-576"/>
<text text-anchor="middle" x="981.5" y="-554.3" font-family="Times,serif" font-size="14.00">a</text>
</g>
<!-- N12&#45;&gt;N14 -->
<g id="edge25" class="edge">
<title>N12&#45;&gt;N14</title>
<path fill="none" stroke="black" d="M981.5,-647.97C981.5,-631.38 981.5,-605.88 981.5,-586.43"/>
<polygon fill="black" stroke="black" points="985,-586.34 981.5,-576.34 978,-586.34 985,-586.34"/>
</g>
<!-- N15 -->
<g id="node16" class="node">
<title>N15</title>
<polygon fill="none" stroke="black" points="1172,-576 1081,-576 1081,-540 1172,-540 1172,-576"/>
<text text-anchor="middle" x="1126.5" y="-554.3" font-family="Times,serif" font-size="14.00">RecCreate</text>
</g>
<!-- N12&#45;&gt;N15 -->
<g id="edge26" class="edge">
<title>N12&#45;&gt;N15</title>
<path fill="none" stroke="black" d="M1004.8,-647.97C1029.07,-630.23 1067.27,-602.3 1094.39,-582.47"/>
<polygon fill="black" stroke="black" points="1096.77,-585.07 1102.78,-576.34 1092.64,-579.42 1096.77,-585.07"/>
</g>
<!-- N24 -->
<g id="node25" class="node">
<title>N24</title>
<polygon fill="none" stroke="black" points="1358.5,-576 1244.5,-576 1244.5,-540 1358.5,-540 1358.5,-576"/>
<text text-anchor="middle" x="1301.5" y="-554.3" font-family="Times,serif" font-size="14.00">TypeFieldList</text>
</g>
<!-- N12&#45;&gt;N24 -->
<g id="edge24" class="edge">
<title>N12&#45;&gt;N24</title>
<path fill="none" stroke="black" d="M1032.91,-647.97C1089.4,-629.26 1180.06,-599.23 1240.2,-579.31"/>
<polygon fill="black" stroke="black" points="1241.56,-582.54 1249.95,-576.08 1239.36,-575.9 1241.56,-582.54"/>
</g>
<!-- N16 -->
<g id="node17" class="node">
<title>N16</title>
<polygon fill="none" stroke="black" points="1004.5,-468 950.5,-468 950.5,-432 1004.5,-432 1004.5,-468"/>
<text text-anchor="middle" x="977.5" y="-446.3" font-family="Times,serif" font-size="14.00">a</text>
</g>
<!-- N15&#45;&gt;N16 -->
<g id="edge18" class="edge">
<title>N15&#45;&gt;N16</title>
<path fill="none" stroke="black" d="M1102.56,-539.97C1077.51,-522.15 1038.02,-494.06 1010.13,-474.21"/>
<polygon fill="black" stroke="black" points="1012.05,-471.29 1001.88,-468.34 1007.99,-476.99 1012.05,-471.29"/>
</g>
<!-- N17 -->
<g id="node18" class="node">
<title>N17</title>
<polygon fill="none" stroke="black" points="1182.5,-468 1076.5,-468 1076.5,-432 1182.5,-432 1182.5,-468"/>
<text text-anchor="middle" x="1129.5" y="-446.3" font-family="Times,serif" font-size="14.00">RecFieldList</text>
</g>
<!-- N15&#45;&gt;N17 -->
<g id="edge19" class="edge">
<title>N15&#45;&gt;N17</title>
<path fill="none" stroke="black" d="M1126.98,-539.97C1127.45,-523.38 1128.17,-497.88 1128.72,-478.43"/>
<polygon fill="black" stroke="black" points="1132.22,-478.44 1129.01,-468.34 1125.23,-478.24 1132.22,-478.44"/>
</g>
<!-- N18 -->
<g id="node24" class="node">
<title>N18</title>
<polygon fill="none" stroke="black" points="1195,-360 1064,-360 1064,-324 1195,-324 1195,-360"/>
<text text-anchor="middle" x="1129.5" y="-338.3" font-family="Times,serif" font-size="14.00">AffectVarInType</text>
</g>
<!-- N17&#45;&gt;N18 -->
<g id="edge17" class="edge">
<title>N17&#45;&gt;N18</title>
<path fill="none" stroke="black" d="M1129.5,-431.97C1129.5,-415.38 1129.5,-389.88 1129.5,-370.43"/>
<polygon fill="black" stroke="black" points="1133,-370.34 1129.5,-360.34 1126,-370.34 1133,-370.34"/>
</g>
<!-- N19 -->
<g id="node19" class="node">
<title>N19</title>
<polygon fill="none" stroke="black" points="1093.5,-252 1029.5,-252 1029.5,-216 1093.5,-216 1093.5,-252"/>
<text text-anchor="middle" x="1061.5" y="-230.3" font-family="Times,serif" font-size="14.00">Lvalue</text>
</g>
<!-- N20 -->
<g id="node20" class="node">
<title>N20</title>
<polygon fill="none" stroke="black" points="1088.5,-144 1034.5,-144 1034.5,-108 1088.5,-108 1088.5,-144"/>
<text text-anchor="middle" x="1061.5" y="-122.3" font-family="Times,serif" font-size="14.00">a</text>
</g>
<!-- N19&#45;&gt;N20 -->
<g id="edge12" class="edge">
<title>N19&#45;&gt;N20</title>
<path fill="none" stroke="black" d="M1061.5,-215.97C1061.5,-199.38 1061.5,-173.88 1061.5,-154.43"/>
<polygon fill="black" stroke="black" points="1065,-154.34 1061.5,-144.34 1058,-154.34 1065,-154.34"/>
</g>
<!-- N21 -->
<g id="node21" class="node">
<title>N21</title>
<polygon fill="none" stroke="black" points="1229.5,-252 1165.5,-252 1165.5,-216 1229.5,-216 1229.5,-252"/>
<text text-anchor="middle" x="1197.5" y="-230.3" font-family="Times,serif" font-size="14.00">Lvalue</text>
</g>
<!-- N22 -->
<g id="node22" class="node">
<title>N22</title>
<polygon fill="none" stroke="black" points="1219.5,-144 1165.5,-144 1165.5,-108 1219.5,-108 1219.5,-144"/>
<text text-anchor="middle" x="1192.5" y="-122.3" font-family="Times,serif" font-size="14.00">a</text>
</g>
<!-- N21&#45;&gt;N22 -->
<g id="edge13" class="edge">
<title>N21&#45;&gt;N22</title>
<path fill="none" stroke="black" d="M1196.7,-215.97C1195.91,-199.38 1194.71,-173.88 1193.79,-154.43"/>
<polygon fill="black" stroke="black" points="1197.29,-154.16 1193.32,-144.34 1190.29,-154.49 1197.29,-154.16"/>
</g>
<!-- N23 -->
<g id="node23" class="node">
<title>N23</title>
<polygon fill="none" stroke="black" points="1345.5,-144 1291.5,-144 1291.5,-108 1345.5,-108 1345.5,-144"/>
<text text-anchor="middle" x="1318.5" y="-122.3" font-family="Times,serif" font-size="14.00">a</text>
</g>
<!-- N21&#45;&gt;N23 -->
<g id="edge14" class="edge">
<title>N21&#45;&gt;N23</title>
<path fill="none" stroke="black" d="M1216.94,-215.97C1237.02,-198.38 1268.52,-170.78 1291.12,-150.99"/>
<polygon fill="black" stroke="black" points="1293.49,-153.56 1298.71,-144.34 1288.88,-148.3 1293.49,-153.56"/>
</g>
<!-- N18&#45;&gt;N19 -->
<g id="edge15" class="edge">
<title>N18&#45;&gt;N19</title>
<path fill="none" stroke="black" d="M1118.57,-323.97C1107.64,-306.92 1090.66,-280.46 1078.07,-260.82"/>
<polygon fill="black" stroke="black" points="1080.97,-258.87 1072.62,-252.34 1075.08,-262.65 1080.97,-258.87"/>
</g>
<!-- N18&#45;&gt;N21 -->
<g id="edge16" class="edge">
<title>N18&#45;&gt;N21</title>
<path fill="none" stroke="black" d="M1140.43,-323.97C1151.36,-306.92 1168.34,-280.46 1180.93,-260.82"/>
<polygon fill="black" stroke="black" points="1183.92,-262.65 1186.38,-252.34 1178.03,-258.87 1183.92,-262.65"/>
</g>
<!-- N25 -->
<g id="node26" class="node">
<title>N25</title>
<polygon fill="none" stroke="black" points="1345,-468 1258,-468 1258,-432 1345,-432 1345,-468"/>
<text text-anchor="middle" x="1301.5" y="-446.3" font-family="Times,serif" font-size="14.00">TypeField</text>
</g>
<!-- N24&#45;&gt;N25 -->
<g id="edge23" class="edge">
<title>N24&#45;&gt;N25</title>
<path fill="none" stroke="black" d="M1301.5,-539.97C1301.5,-523.38 1301.5,-497.88 1301.5,-478.43"/>
<polygon fill="black" stroke="black" points="1305,-478.34 1301.5,-468.34 1298,-478.34 1305,-478.34"/>
</g>
<!-- N26 -->
<g id="node27" class="node">
<title>N26</title>
<polygon fill="none" stroke="black" points="1323.5,-360 1269.5,-360 1269.5,-324 1323.5,-324 1323.5,-360"/>
<text text-anchor="middle" x="1296.5" y="-338.3" font-family="Times,serif" font-size="14.00">a</text>
</g>
<!-- N25&#45;&gt;N26 -->
<g id="edge21" class="edge">
<title>N25&#45;&gt;N26</title>
<path fill="none" stroke="black" d="M1300.7,-431.97C1299.91,-415.38 1298.71,-389.88 1297.79,-370.43"/>
<polygon fill="black" stroke="black" points="1301.29,-370.16 1297.32,-360.34 1294.29,-370.49 1301.29,-370.16"/>
</g>
<!-- N27 -->
<g id="node28" class="node">
<title>N27</title>
<polygon fill="none" stroke="black" points="1449.5,-360 1395.5,-360 1395.5,-324 1449.5,-324 1449.5,-360"/>
<text text-anchor="middle" x="1422.5" y="-338.3" font-family="Times,serif" font-size="14.00">a</text>
</g>
<!-- N25&#45;&gt;N27 -->
<g id="edge22" class="edge">
<title>N25&#45;&gt;N27</title>
<path fill="none" stroke="black" d="M1320.94,-431.97C1341.02,-414.38 1372.52,-386.78 1395.12,-366.99"/>
<polygon fill="black" stroke="black" points="1397.49,-369.56 1402.71,-360.34 1392.88,-364.3 1397.49,-369.56"/>
</g>
<!-- N29 -->
<g id="node30" class="node">
<title>N29</title>
<polygon fill="none" stroke="black" points="1484.5,-576 1430.5,-576 1430.5,-540 1484.5,-540 1484.5,-576"/>
<text text-anchor="middle" x="1457.5" y="-554.3" font-family="Times,serif" font-size="14.00">b</text>
</g>
<!-- N28&#45;&gt;N29 -->
<g id="edge30" class="edge">
<title>N28&#45;&gt;N29</title>
<path fill="none" stroke="black" d="M1457.5,-647.97C1457.5,-631.38 1457.5,-605.88 1457.5,-586.43"/>
<polygon fill="black" stroke="black" points="1461,-586.34 1457.5,-576.34 1454,-586.34 1461,-586.34"/>
</g>
<!-- N30 -->
<g id="node33" class="node">
<title>N30</title>
<polygon fill="none" stroke="black" points="1610.5,-576 1556.5,-576 1556.5,-540 1610.5,-540 1610.5,-576"/>
<text text-anchor="middle" x="1583.5" y="-554.3" font-family="Times,serif" font-size="14.00">*</text>
</g>
<!-- N28&#45;&gt;N30 -->
<g id="edge31" class="edge">
<title>N28&#45;&gt;N30</title>
<path fill="none" stroke="black" d="M1477.74,-647.97C1498.65,-630.38 1531.46,-602.78 1554.99,-582.99"/>
<polygon fill="black" stroke="black" points="1557.49,-585.46 1562.89,-576.34 1552.98,-580.1 1557.49,-585.46"/>
</g>
<!-- N31 -->
<g id="node31" class="node">
<title>N31</title>
<polygon fill="none" stroke="black" points="1547.5,-468 1493.5,-468 1493.5,-432 1547.5,-432 1547.5,-468"/>
<text text-anchor="middle" x="1520.5" y="-446.3" font-family="Times,serif" font-size="14.00">8</text>
</g>
<!-- N32 -->
<g id="node32" class="node">
<title>N32</title>
<polygon fill="none" stroke="black" points="1673.5,-468 1619.5,-468 1619.5,-432 1673.5,-432 1673.5,-468"/>
<text text-anchor="middle" x="1646.5" y="-446.3" font-family="Times,serif" font-size="14.00">2</text>
</g>
<!-- N30&#45;&gt;N31 -->
<g id="edge28" class="edge">
<title>N30&#45;&gt;N31</title>
<path fill="none" stroke="black" d="M1573.38,-539.97C1563.29,-522.99 1547.66,-496.7 1536.01,-477.09"/>
<polygon fill="black" stroke="black" points="1538.92,-475.15 1530.81,-468.34 1532.91,-478.73 1538.92,-475.15"/>
</g>
<!-- N30&#45;&gt;N32 -->
<g id="edge29" class="edge">
<title>N30&#45;&gt;N32</title>
<path fill="none" stroke="black" d="M1593.62,-539.97C1603.71,-522.99 1619.34,-496.7 1630.99,-477.09"/>
<polygon fill="black" stroke="black" points="1634.09,-478.73 1636.19,-468.34 1628.08,-475.15 1634.09,-478.73"/>
</g>
<!-- N34 -->
<g id="node36" class="node">
<title>N34</title>
<polygon fill="none" stroke="black" points="1748.5,-684 1694.5,-684 1694.5,-648 1748.5,-648 1748.5,-684"/>
<text text-anchor="middle" x="1721.5" y="-662.3" font-family="Times,serif" font-size="14.00">Print</text>
</g>
<!-- N33&#45;&gt;N34 -->
<g id="edge35" class="edge">
<title>N33&#45;&gt;N34</title>
<path fill="none" stroke="black" d="M1779.41,-755.97C1768.31,-738.92 1751.09,-712.46 1738.31,-692.82"/>
<polygon fill="black" stroke="black" points="1741.18,-690.81 1732.79,-684.34 1735.31,-694.63 1741.18,-690.81"/>
</g>
<!-- N36 -->
<g id="node37" class="node">
<title>N36</title>
<polygon fill="none" stroke="black" points="1900,-684 1821,-684 1821,-648 1900,-648 1900,-684"/>
<text text-anchor="middle" x="1860.5" y="-662.3" font-family="Times,serif" font-size="14.00">CallExpr</text>
</g>
<!-- N33&#45;&gt;N36 -->
<g id="edge39" class="edge">
<title>N33&#45;&gt;N36</title>
<path fill="none" stroke="black" d="M1801.75,-755.97C1813.01,-738.92 1830.48,-712.46 1843.45,-692.82"/>
<polygon fill="black" stroke="black" points="1846.46,-694.61 1849.05,-684.34 1840.62,-690.76 1846.46,-694.61"/>
</g>
<!-- N40 -->
<g id="node41" class="node">
<title>N40</title>
<polygon fill="none" stroke="black" points="2175,-684 2096,-684 2096,-648 2175,-648 2175,-684"/>
<text text-anchor="middle" x="2135.5" y="-662.3" font-family="Times,serif" font-size="14.00">CallExpr</text>
</g>
<!-- N33&#45;&gt;N40 -->
<g id="edge50" class="edge">
<title>N33&#45;&gt;N40</title>
<path fill="none" stroke="black" d="M1829.74,-760.94C1892.86,-741.55 2016.86,-703.45 2085.98,-682.21"/>
<polygon fill="black" stroke="black" points="2087.23,-685.49 2095.77,-679.21 2085.18,-678.8 2087.23,-685.49"/>
</g>
<!-- N35 -->
<g id="node35" class="node">
<title>N35</title>
<polygon fill="none" stroke="black" points="1760,-576 1683,-576 1683,-540 1760,-540 1760,-576"/>
<text text-anchor="middle" x="1721.5" y="-554.3" font-family="Times,serif" font-size="14.00">fortytwo</text>
</g>
<!-- N34&#45;&gt;N35 -->
<g id="edge34" class="edge">
<title>N34&#45;&gt;N35</title>
<path fill="none" stroke="black" d="M1721.5,-647.97C1721.5,-631.38 1721.5,-605.88 1721.5,-586.43"/>
<polygon fill="black" stroke="black" points="1725,-586.34 1721.5,-576.34 1718,-586.34 1725,-586.34"/>
</g>
<!-- N37 -->
<g id="node38" class="node">
<title>N37</title>
<polygon fill="none" stroke="black" points="1886.5,-576 1832.5,-576 1832.5,-540 1886.5,-540 1886.5,-576"/>
<text text-anchor="middle" x="1859.5" y="-554.3" font-family="Times,serif" font-size="14.00">a</text>
</g>
<!-- N36&#45;&gt;N37 -->
<g id="edge36" class="edge">
<title>N36&#45;&gt;N37</title>
<path fill="none" stroke="black" d="M1860.34,-647.97C1860.18,-631.38 1859.94,-605.88 1859.76,-586.43"/>
<polygon fill="black" stroke="black" points="1863.26,-586.31 1859.66,-576.34 1856.26,-586.37 1863.26,-586.31"/>
</g>
<!-- N38 -->
<g id="node39" class="node">
<title>N38</title>
<polygon fill="none" stroke="black" points="2036.5,-576 1958.5,-576 1958.5,-540 2036.5,-540 2036.5,-576"/>
<text text-anchor="middle" x="1997.5" y="-554.3" font-family="Times,serif" font-size="14.00">ExprList</text>
</g>
<!-- N36&#45;&gt;N38 -->
<g id="edge38" class="edge">
<title>N36&#45;&gt;N38</title>
<path fill="none" stroke="black" d="M1882.51,-647.97C1905.44,-630.23 1941.54,-602.3 1967.17,-582.47"/>
<polygon fill="black" stroke="black" points="1969.32,-585.23 1975.09,-576.34 1965.04,-579.69 1969.32,-585.23"/>
</g>
<!-- N39 -->
<g id="node40" class="node">
<title>N39</title>
<polygon fill="none" stroke="black" points="2024.5,-468 1970.5,-468 1970.5,-432 2024.5,-432 2024.5,-468"/>
<text text-anchor="middle" x="1997.5" y="-446.3" font-family="Times,serif" font-size="14.00">45</text>
</g>
<!-- N38&#45;&gt;N39 -->
<g id="edge37" class="edge">
<title>N38&#45;&gt;N39</title>
<path fill="none" stroke="black" d="M1997.5,-539.97C1997.5,-523.38 1997.5,-497.88 1997.5,-478.43"/>
<polygon fill="black" stroke="black" points="2001,-478.34 1997.5,-468.34 1994,-478.34 2001,-478.34"/>
</g>
<!-- N41 -->
<g id="node42" class="node">
<title>N41</title>
<polygon fill="none" stroke="black" points="2162.5,-576 2108.5,-576 2108.5,-540 2162.5,-540 2162.5,-576"/>
<text text-anchor="middle" x="2135.5" y="-554.3" font-family="Times,serif" font-size="14.00">a</text>
</g>
<!-- N40&#45;&gt;N41 -->
<g id="edge40" class="edge">
<title>N40&#45;&gt;N41</title>
<path fill="none" stroke="black" d="M2135.5,-647.97C2135.5,-631.38 2135.5,-605.88 2135.5,-586.43"/>
<polygon fill="black" stroke="black" points="2139,-586.34 2135.5,-576.34 2132,-586.34 2139,-586.34"/>
</g>
<!-- N42 -->
<g id="node43" class="node">
<title>N42</title>
<polygon fill="none" stroke="black" points="2312.5,-576 2234.5,-576 2234.5,-540 2312.5,-540 2312.5,-576"/>
<text text-anchor="middle" x="2273.5" y="-554.3" font-family="Times,serif" font-size="14.00">ExprList</text>
</g>
<!-- N40&#45;&gt;N42 -->
<g id="edge49" class="edge">
<title>N40&#45;&gt;N42</title>
<path fill="none" stroke="black" d="M2157.67,-647.97C2180.77,-630.23 2217.13,-602.3 2242.94,-582.47"/>
<polygon fill="black" stroke="black" points="2245.13,-585.21 2250.92,-576.34 2240.86,-579.66 2245.13,-585.21"/>
</g>
<!-- N43 -->
<g id="node44" class="node">
<title>N43</title>
<polygon fill="none" stroke="black" points="2319,-468 2228,-468 2228,-432 2319,-432 2319,-468"/>
<text text-anchor="middle" x="2273.5" y="-446.3" font-family="Times,serif" font-size="14.00">RecCreate</text>
</g>
<!-- N42&#45;&gt;N43 -->
<g id="edge48" class="edge">
<title>N42&#45;&gt;N43</title>
<path fill="none" stroke="black" d="M2273.5,-539.97C2273.5,-523.38 2273.5,-497.88 2273.5,-478.43"/>
<polygon fill="black" stroke="black" points="2277,-478.34 2273.5,-468.34 2270,-478.34 2277,-478.34"/>
</g>
<!-- N44 -->
<g id="node45" class="node">
<title>N44</title>
<polygon fill="none" stroke="black" points="2224.5,-360 2170.5,-360 2170.5,-324 2224.5,-324 2224.5,-360"/>
<text text-anchor="middle" x="2197.5" y="-338.3" font-family="Times,serif" font-size="14.00">a</text>
</g>
<!-- N43&#45;&gt;N44 -->
<g id="edge46" class="edge">
<title>N43&#45;&gt;N44</title>
<path fill="none" stroke="black" d="M2261.29,-431.97C2249.01,-414.84 2229.92,-388.22 2215.83,-368.56"/>
<polygon fill="black" stroke="black" points="2218.6,-366.43 2209.93,-360.34 2212.92,-370.51 2218.6,-366.43"/>
</g>
<!-- N45 -->
<g id="node46" class="node">
<title>N45</title>
<polygon fill="none" stroke="black" points="2402.5,-360 2296.5,-360 2296.5,-324 2402.5,-324 2402.5,-360"/>
<text text-anchor="middle" x="2349.5" y="-338.3" font-family="Times,serif" font-size="14.00">RecFieldList</text>
</g>
<!-- N43&#45;&gt;N45 -->
<g id="edge47" class="edge">
<title>N43&#45;&gt;N45</title>
<path fill="none" stroke="black" d="M2285.71,-431.97C2297.99,-414.84 2317.08,-388.22 2331.17,-368.56"/>
<polygon fill="black" stroke="black" points="2334.08,-370.51 2337.07,-360.34 2328.4,-366.43 2334.08,-370.51"/>
</g>
<!-- N46 -->
<g id="node51" class="node">
<title>N46</title>
<polygon fill="none" stroke="black" points="2415,-252 2284,-252 2284,-216 2415,-216 2415,-252"/>
<text text-anchor="middle" x="2349.5" y="-230.3" font-family="Times,serif" font-size="14.00">AffectVarInType</text>
</g>
<!-- N45&#45;&gt;N46 -->
<g id="edge45" class="edge">
<title>N45&#45;&gt;N46</title>
<path fill="none" stroke="black" d="M2349.5,-323.97C2349.5,-307.38 2349.5,-281.88 2349.5,-262.43"/>
<polygon fill="black" stroke="black" points="2353,-262.34 2349.5,-252.34 2346,-262.34 2353,-262.34"/>
</g>
<!-- N47 -->
<g id="node47" class="node">
<title>N47</title>
<polygon fill="none" stroke="black" points="2313.5,-144 2249.5,-144 2249.5,-108 2313.5,-108 2313.5,-144"/>
<text text-anchor="middle" x="2281.5" y="-122.3" font-family="Times,serif" font-size="14.00">Lvalue</text>
</g>
<!-- N48 -->
<g id="node48" class="node">
<title>N48</title>
<polygon fill="none" stroke="black" points="2308.5,-36 2254.5,-36 2254.5,0 2308.5,0 2308.5,-36"/>
<text text-anchor="middle" x="2281.5" y="-14.3" font-family="Times,serif" font-size="14.00">a</text>
</g>
<!-- N47&#45;&gt;N48 -->
<g id="edge41" class="edge">
<title>N47&#45;&gt;N48</title>
<path fill="none" stroke="black" d="M2281.5,-107.97C2281.5,-91.38 2281.5,-65.88 2281.5,-46.43"/>
<polygon fill="black" stroke="black" points="2285,-46.34 2281.5,-36.34 2278,-46.34 2285,-46.34"/>
</g>
<!-- N49 -->
<g id="node49" class="node">
<title>N49</title>
<polygon fill="none" stroke="black" points="2449.5,-144 2385.5,-144 2385.5,-108 2449.5,-108 2449.5,-144"/>
<text text-anchor="middle" x="2417.5" y="-122.3" font-family="Times,serif" font-size="14.00">Lvalue</text>
</g>
<!-- N50 -->
<g id="node50" class="node">
<title>N50</title>
<polygon fill="none" stroke="black" points="2444.5,-36 2390.5,-36 2390.5,0 2444.5,0 2444.5,-36"/>
<text text-anchor="middle" x="2417.5" y="-14.3" font-family="Times,serif" font-size="14.00">a</text>
</g>
<!-- N49&#45;&gt;N50 -->
<g id="edge42" class="edge">
<title>N49&#45;&gt;N50</title>
<path fill="none" stroke="black" d="M2417.5,-107.97C2417.5,-91.38 2417.5,-65.88 2417.5,-46.43"/>
<polygon fill="black" stroke="black" points="2421,-46.34 2417.5,-36.34 2414,-46.34 2421,-46.34"/>
</g>
<!-- N46&#45;&gt;N47 -->
<g id="edge43" class="edge">
<title>N46&#45;&gt;N47</title>
<path fill="none" stroke="black" d="M2338.57,-215.97C2327.64,-198.92 2310.66,-172.46 2298.07,-152.82"/>
<polygon fill="black" stroke="black" points="2300.97,-150.87 2292.62,-144.34 2295.08,-154.65 2300.97,-150.87"/>
</g>
<!-- N46&#45;&gt;N49 -->
<g id="edge44" class="edge">
<title>N46&#45;&gt;N49</title>
<path fill="none" stroke="black" d="M2360.43,-215.97C2371.36,-198.92 2388.34,-172.46 2400.93,-152.82"/>
<polygon fill="black" stroke="black" points="2403.92,-154.65 2406.38,-144.34 2398.03,-150.87 2403.92,-154.65"/>
</g>
</g>
</svg>
