<?xml version="1.0" encoding="UTF-8" standalone="no"?>
<!DOCTYPE svg PUBLIC "-//W3C//DTD SVG 1.1//EN"
 "http://www.w3.org/Graphics/SVG/1.1/DTD/svg11.dtd">
<!-- Generated by graphviz version 2.43.0 (0)
 -->
<!-- Title: ast Pages: 1 -->
<svg width="994pt" height="692pt"
 viewBox="0.00 0.00 994.00 692.00" xmlns="http://www.w3.org/2000/svg" xmlns:xlink="http://www.w3.org/1999/xlink">
<g id="graph0" class="graph" transform="scale(1 1) rotate(0) translate(4 688)">
<title>ast</title>
<polygon fill="white" stroke="transparent" points="-4,4 -4,-688 990,-688 990,4 -4,4"/>
<!-- N0 -->
<g id="node1" class="node">
<title>N0</title>
<polygon fill="none" stroke="black" points="485.5,-684 406.5,-684 406.5,-648 485.5,-648 485.5,-684"/>
<text text-anchor="middle" x="446" y="-662.3" font-family="Times,serif" font-size="14.00">Program</text>
</g>
<!-- N1 -->
<g id="node2" class="node">
<title>N1</title>
<polygon fill="none" stroke="black" points="487.5,-576 404.5,-576 404.5,-540 487.5,-540 487.5,-576"/>
<text text-anchor="middle" x="446" y="-554.3" font-family="Times,serif" font-size="14.00">LetInEnd</text>
</g>
<!-- N0&#45;&gt;N1 -->
<g id="edge24" class="edge">
<title>N0&#45;&gt;N1</title>
<path fill="none" stroke="black" d="M446,-647.97C446,-631.38 446,-605.88 446,-586.43"/>
<polygon fill="black" stroke="black" points="449.5,-586.34 446,-576.34 442.5,-586.34 449.5,-586.34"/>
</g>
<!-- N2 -->
<g id="node3" class="node">
<title>N2</title>
<polygon fill="none" stroke="black" points="422,-468 296,-468 296,-432 422,-432 422,-468"/>
<text text-anchor="middle" x="359" y="-446.3" font-family="Times,serif" font-size="14.00">DeclarationList</text>
</g>
<!-- N1&#45;&gt;N2 -->
<g id="edge17" class="edge">
<title>N1&#45;&gt;N2</title>
<path fill="none" stroke="black" d="M432.02,-539.97C417.9,-522.76 395.92,-495.98 379.76,-476.29"/>
<polygon fill="black" stroke="black" points="382.28,-473.85 373.23,-468.34 376.87,-478.29 382.28,-473.85"/>
</g>
<!-- N19 -->
<g id="node20" class="node">
<title>N19</title>
<polygon fill="none" stroke="black" points="672,-468 594,-468 594,-432 672,-432 672,-468"/>
<text text-anchor="middle" x="633" y="-446.3" font-family="Times,serif" font-size="14.00">ExprSeq</text>
</g>
<!-- N1&#45;&gt;N19 -->
<g id="edge23" class="edge">
<title>N1&#45;&gt;N19</title>
<path fill="none" stroke="black" d="M476.04,-539.97C507.98,-521.86 558.63,-493.16 593.71,-473.27"/>
<polygon fill="black" stroke="black" points="595.75,-476.14 602.72,-468.16 592.29,-470.05 595.75,-476.14"/>
</g>
<!-- N3 -->
<g id="node4" class="node">
<title>N3</title>
<polygon fill="none" stroke="black" points="389,-360 279,-360 279,-324 389,-324 389,-360"/>
<text text-anchor="middle" x="334" y="-338.3" font-family="Times,serif" font-size="14.00">DecFuncVoid</text>
</g>
<!-- N2&#45;&gt;N3 -->
<g id="edge16" class="edge">
<title>N2&#45;&gt;N3</title>
<path fill="none" stroke="black" d="M354.98,-431.97C351.05,-415.3 345,-389.65 340.41,-370.16"/>
<polygon fill="black" stroke="black" points="343.79,-369.27 338.09,-360.34 336.98,-370.88 343.79,-369.27"/>
</g>
<!-- N4 -->
<g id="node5" class="node">
<title>N4</title>
<polygon fill="none" stroke="black" points="165.5,-252 28.5,-252 28.5,-216 165.5,-216 165.5,-252"/>
<text text-anchor="middle" x="97" y="-230.3" font-family="Times,serif" font-size="14.00">print_conditional</text>
</g>
<!-- N3&#45;&gt;N4 -->
<g id="edge7" class="edge">
<title>N3&#45;&gt;N4</title>
<path fill="none" stroke="black" d="M295.92,-323.97C254.75,-305.56 189.07,-276.18 144.54,-256.26"/>
<polygon fill="black" stroke="black" points="145.93,-253.05 135.38,-252.16 143.08,-259.44 145.93,-253.05"/>
</g>
<!-- N5 -->
<g id="node12" class="node">
<title>N5</title>
<polygon fill="none" stroke="black" points="330.5,-252 237.5,-252 237.5,-216 330.5,-216 330.5,-252"/>
<text text-anchor="middle" x="284" y="-230.3" font-family="Times,serif" font-size="14.00">IfThenElse</text>
</g>
<!-- N3&#45;&gt;N5 -->
<g id="edge15" class="edge">
<title>N3&#45;&gt;N5</title>
<path fill="none" stroke="black" d="M325.97,-323.97C318.03,-307.15 305.78,-281.17 296.56,-261.62"/>
<polygon fill="black" stroke="black" points="299.61,-259.89 292.18,-252.34 293.28,-262.88 299.61,-259.89"/>
</g>
<!-- N12 -->
<g id="node13" class="node">
<title>N12</title>
<polygon fill="none" stroke="black" points="517,-252 403,-252 403,-216 517,-216 517,-252"/>
<text text-anchor="middle" x="460" y="-230.3" font-family="Times,serif" font-size="14.00">TypeFieldList</text>
</g>
<!-- N3&#45;&gt;N12 -->
<g id="edge14" class="edge">
<title>N3&#45;&gt;N12</title>
<path fill="none" stroke="black" d="M354.24,-323.97C375.15,-306.38 407.96,-278.78 431.49,-258.99"/>
<polygon fill="black" stroke="black" points="433.99,-261.46 439.39,-252.34 429.48,-256.1 433.99,-261.46"/>
</g>
<!-- N6 -->
<g id="node6" class="node">
<title>N6</title>
<polygon fill="none" stroke="black" points="64,-144 0,-144 0,-108 64,-108 64,-144"/>
<text text-anchor="middle" x="32" y="-122.3" font-family="Times,serif" font-size="14.00">Lvalue</text>
</g>
<!-- N7 -->
<g id="node7" class="node">
<title>N7</title>
<polygon fill="none" stroke="black" points="58,-36 4,-36 4,0 58,0 58,-36"/>
<text text-anchor="middle" x="31" y="-14.3" font-family="Times,serif" font-size="14.00">i</text>
</g>
<!-- N6&#45;&gt;N7 -->
<g id="edge1" class="edge">
<title>N6&#45;&gt;N7</title>
<path fill="none" stroke="black" d="M31.84,-107.97C31.68,-91.38 31.44,-65.88 31.26,-46.43"/>
<polygon fill="black" stroke="black" points="34.76,-46.31 31.16,-36.34 27.76,-46.37 34.76,-46.31"/>
</g>
<!-- N9 -->
<g id="node8" class="node">
<title>N9</title>
<polygon fill="none" stroke="black" points="184,-36 130,-36 130,0 184,0 184,-36"/>
<text text-anchor="middle" x="157" y="-14.3" font-family="Times,serif" font-size="14.00">s</text>
</g>
<!-- N8 -->
<g id="node9" class="node">
<title>N8</title>
<polygon fill="none" stroke="black" points="190,-144 136,-144 136,-108 190,-108 190,-144"/>
<text text-anchor="middle" x="163" y="-122.3" font-family="Times,serif" font-size="14.00">Print</text>
</g>
<!-- N8&#45;&gt;N9 -->
<g id="edge2" class="edge">
<title>N8&#45;&gt;N9</title>
<path fill="none" stroke="black" d="M162.04,-107.97C161.1,-91.38 159.65,-65.88 158.55,-46.43"/>
<polygon fill="black" stroke="black" points="162.04,-46.13 157.98,-36.34 155.05,-46.52 162.04,-46.13"/>
</g>
<!-- N11 -->
<g id="node10" class="node">
<title>N11</title>
<polygon fill="none" stroke="black" points="323.5,-36 256.5,-36 256.5,0 323.5,0 323.5,-36"/>
<text text-anchor="middle" x="290" y="-14.3" font-family="Times,serif" font-size="14.00">&quot;error&quot;</text>
</g>
<!-- N10 -->
<g id="node11" class="node">
<title>N10</title>
<polygon fill="none" stroke="black" points="316,-144 262,-144 262,-108 316,-108 316,-144"/>
<text text-anchor="middle" x="289" y="-122.3" font-family="Times,serif" font-size="14.00">Print</text>
</g>
<!-- N10&#45;&gt;N11 -->
<g id="edge3" class="edge">
<title>N10&#45;&gt;N11</title>
<path fill="none" stroke="black" d="M289.16,-107.97C289.32,-91.38 289.56,-65.88 289.74,-46.43"/>
<polygon fill="black" stroke="black" points="293.24,-46.37 289.84,-36.34 286.24,-46.31 293.24,-46.37"/>
</g>
<!-- N5&#45;&gt;N6 -->
<g id="edge4" class="edge">
<title>N5&#45;&gt;N6</title>
<path fill="none" stroke="black" d="M243.51,-215.97C196.91,-196.37 120.77,-164.34 73.68,-144.53"/>
<polygon fill="black" stroke="black" points="74.95,-141.27 64.38,-140.62 72.24,-147.72 74.95,-141.27"/>
</g>
<!-- N5&#45;&gt;N8 -->
<g id="edge5" class="edge">
<title>N5&#45;&gt;N8</title>
<path fill="none" stroke="black" d="M264.56,-215.97C244.48,-198.38 212.98,-170.78 190.38,-150.99"/>
<polygon fill="black" stroke="black" points="192.62,-148.3 182.79,-144.34 188.01,-153.56 192.62,-148.3"/>
</g>
<!-- N5&#45;&gt;N10 -->
<g id="edge6" class="edge">
<title>N5&#45;&gt;N10</title>
<path fill="none" stroke="black" d="M284.8,-215.97C285.59,-199.38 286.79,-173.88 287.71,-154.43"/>
<polygon fill="black" stroke="black" points="291.21,-154.49 288.18,-144.34 284.21,-154.16 291.21,-154.49"/>
</g>
<!-- N13 -->
<g id="node14" class="node">
<title>N13</title>
<polygon fill="none" stroke="black" points="503.5,-144 416.5,-144 416.5,-108 503.5,-108 503.5,-144"/>
<text text-anchor="middle" x="460" y="-122.3" font-family="Times,serif" font-size="14.00">TypeField</text>
</g>
<!-- N12&#45;&gt;N13 -->
<g id="edge10" class="edge">
<title>N12&#45;&gt;N13</title>
<path fill="none" stroke="black" d="M460,-215.97C460,-199.38 460,-173.88 460,-154.43"/>
<polygon fill="black" stroke="black" points="463.5,-154.34 460,-144.34 456.5,-154.34 463.5,-154.34"/>
</g>
<!-- N16 -->
<g id="node17" class="node">
<title>N16</title>
<polygon fill="none" stroke="black" points="724.5,-144 637.5,-144 637.5,-108 724.5,-108 724.5,-144"/>
<text text-anchor="middle" x="681" y="-122.3" font-family="Times,serif" font-size="14.00">TypeField</text>
</g>
<!-- N12&#45;&gt;N16 -->
<g id="edge13" class="edge">
<title>N12&#45;&gt;N16</title>
<path fill="none" stroke="black" d="M495.51,-215.97C533.74,-197.63 594.64,-168.42 636.15,-148.51"/>
<polygon fill="black" stroke="black" points="637.71,-151.64 645.21,-144.16 634.68,-145.33 637.71,-151.64"/>
</g>
<!-- N14 -->
<g id="node15" class="node">
<title>N14</title>
<polygon fill="none" stroke="black" points="450,-36 396,-36 396,0 450,0 450,-36"/>
<text text-anchor="middle" x="423" y="-14.3" font-family="Times,serif" font-size="14.00">s</text>
</g>
<!-- N13&#45;&gt;N14 -->
<g id="edge8" class="edge">
<title>N13&#45;&gt;N14</title>
<path fill="none" stroke="black" d="M454.06,-107.97C448.21,-91.22 439.2,-65.41 432.39,-45.89"/>
<polygon fill="black" stroke="black" points="435.65,-44.63 429.05,-36.34 429.04,-46.94 435.65,-44.63"/>
</g>
<!-- N15 -->
<g id="node16" class="node">
<title>N15</title>
<polygon fill="none" stroke="black" points="581.5,-36 522.5,-36 522.5,0 581.5,0 581.5,-36"/>
<text text-anchor="middle" x="552" y="-14.3" font-family="Times,serif" font-size="14.00">string</text>
</g>
<!-- N13&#45;&gt;N15 -->
<g id="edge9" class="edge">
<title>N13&#45;&gt;N15</title>
<path fill="none" stroke="black" d="M474.78,-107.97C489.78,-90.69 513.17,-63.74 530.27,-44.03"/>
<polygon fill="black" stroke="black" points="533.04,-46.19 536.95,-36.34 527.75,-41.6 533.04,-46.19"/>
</g>
<!-- N17 -->
<g id="node18" class="node">
<title>N17</title>
<polygon fill="none" stroke="black" points="708,-36 654,-36 654,0 708,0 708,-36"/>
<text text-anchor="middle" x="681" y="-14.3" font-family="Times,serif" font-size="14.00">i</text>
</g>
<!-- N16&#45;&gt;N17 -->
<g id="edge11" class="edge">
<title>N16&#45;&gt;N17</title>
<path fill="none" stroke="black" d="M681,-107.97C681,-91.38 681,-65.88 681,-46.43"/>
<polygon fill="black" stroke="black" points="684.5,-46.34 681,-36.34 677.5,-46.34 684.5,-46.34"/>
</g>
<!-- N18 -->
<g id="node19" class="node">
<title>N18</title>
<polygon fill="none" stroke="black" points="834,-36 780,-36 780,0 834,0 834,-36"/>
<text text-anchor="middle" x="807" y="-14.3" font-family="Times,serif" font-size="14.00">int</text>
</g>
<!-- N16&#45;&gt;N18 -->
<g id="edge12" class="edge">
<title>N16&#45;&gt;N18</title>
<path fill="none" stroke="black" d="M701.24,-107.97C722.15,-90.38 754.96,-62.78 778.49,-42.99"/>
<polygon fill="black" stroke="black" points="780.99,-45.46 786.39,-36.34 776.48,-40.1 780.99,-45.46"/>
</g>
<!-- N20 -->
<g id="node21" class="node">
<title>N20</title>
<polygon fill="none" stroke="black" points="697.5,-360 618.5,-360 618.5,-324 697.5,-324 697.5,-360"/>
<text text-anchor="middle" x="658" y="-338.3" font-family="Times,serif" font-size="14.00">CallExpr</text>
</g>
<!-- N19&#45;&gt;N20 -->
<g id="edge22" class="edge">
<title>N19&#45;&gt;N20</title>
<path fill="none" stroke="black" d="M637.02,-431.97C640.95,-415.3 647,-389.65 651.59,-370.16"/>
<polygon fill="black" stroke="black" points="655.02,-370.88 653.91,-360.34 648.21,-369.27 655.02,-370.88"/>
</g>
<!-- N21 -->
<g id="node22" class="node">
<title>N21</title>
<polygon fill="none" stroke="black" points="726.5,-252 589.5,-252 589.5,-216 726.5,-216 726.5,-252"/>
<text text-anchor="middle" x="658" y="-230.3" font-family="Times,serif" font-size="14.00">print_conditional</text>
</g>
<!-- N20&#45;&gt;N21 -->
<g id="edge20" class="edge">
<title>N20&#45;&gt;N21</title>
<path fill="none" stroke="black" d="M658,-323.97C658,-307.38 658,-281.88 658,-262.43"/>
<polygon fill="black" stroke="black" points="661.5,-262.34 658,-252.34 654.5,-262.34 661.5,-262.34"/>
</g>
<!-- N22 -->
<g id="node23" class="node">
<title>N22</title>
<polygon fill="none" stroke="black" points="877,-252 799,-252 799,-216 877,-216 877,-252"/>
<text text-anchor="middle" x="838" y="-230.3" font-family="Times,serif" font-size="14.00">ExprList</text>
</g>
<!-- N20&#45;&gt;N22 -->
<g id="edge21" class="edge">
<title>N20&#45;&gt;N22</title>
<path fill="none" stroke="black" d="M686.92,-323.97C717.66,-305.86 766.41,-277.16 800.18,-257.27"/>
<polygon fill="black" stroke="black" points="802.01,-260.25 808.85,-252.16 798.46,-254.22 802.01,-260.25"/>
</g>
<!-- N23 -->
<g id="node24" class="node">
<title>N23</title>
<polygon fill="none" stroke="black" points="860,-144 806,-144 806,-108 860,-108 860,-144"/>
<text text-anchor="middle" x="833" y="-122.3" font-family="Times,serif" font-size="14.00">&quot;foo&quot;</text>
</g>
<!-- N22&#45;&gt;N23 -->
<g id="edge18" class="edge">
<title>N22&#45;&gt;N23</title>
<path fill="none" stroke="black" d="M837.2,-215.97C836.41,-199.38 835.21,-173.88 834.29,-154.43"/>
<polygon fill="black" stroke="black" points="837.79,-154.16 833.82,-144.34 830.79,-154.49 837.79,-154.16"/>
</g>
<!-- N24 -->
<g id="node25" class="node">
<title>N24</title>
<polygon fill="none" stroke="black" points="986,-144 932,-144 932,-108 986,-108 986,-144"/>
<text text-anchor="middle" x="959" y="-122.3" font-family="Times,serif" font-size="14.00">1</text>
</g>
<!-- N22&#45;&gt;N24 -->
<g id="edge19" class="edge">
<title>N22&#45;&gt;N24</title>
<path fill="none" stroke="black" d="M857.44,-215.97C877.52,-198.38 909.02,-170.78 931.62,-150.99"/>
<polygon fill="black" stroke="black" points="933.99,-153.56 939.21,-144.34 929.38,-148.3 933.99,-153.56"/>
</g>
</g>
</svg>
