<?xml version="1.0" encoding="UTF-8" standalone="no"?>
<!DOCTYPE svg PUBLIC "-//W3C//DTD SVG 1.1//EN"
 "http://www.w3.org/Graphics/SVG/1.1/DTD/svg11.dtd">
<!-- Generated by graphviz version 2.43.0 (0)
 -->
<!-- Title: ast Pages: 1 -->
<svg width="536pt" height="692pt"
 viewBox="0.00 0.00 536.00 692.00" xmlns="http://www.w3.org/2000/svg" xmlns:xlink="http://www.w3.org/1999/xlink">
<g id="graph0" class="graph" transform="scale(1 1) rotate(0) translate(4 688)">
<title>ast</title>
<polygon fill="white" stroke="transparent" points="-4,4 -4,-688 532,-688 532,4 -4,4"/>
<!-- N0 -->
<g id="node1" class="node">
<title>N0</title>
<polygon fill="none" stroke="black" points="264.5,-684 185.5,-684 185.5,-648 264.5,-648 264.5,-684"/>
<text text-anchor="middle" x="225" y="-662.3" font-family="Times,serif" font-size="14.00">Program</text>
</g>
<!-- N1 -->
<g id="node2" class="node">
<title>N1</title>
<polygon fill="none" stroke="black" points="253.5,-576 196.5,-576 196.5,-540 253.5,-540 253.5,-576"/>
<text text-anchor="middle" x="225" y="-554.3" font-family="Times,serif" font-size="14.00">While</text>
</g>
<!-- N0&#45;&gt;N1 -->
<g id="edge12" class="edge">
<title>N0&#45;&gt;N1</title>
<path fill="none" stroke="black" d="M225,-647.97C225,-631.38 225,-605.88 225,-586.43"/>
<polygon fill="black" stroke="black" points="228.5,-586.34 225,-576.34 221.5,-586.34 228.5,-586.34"/>
</g>
<!-- N2 -->
<g id="node5" class="node">
<title>N2</title>
<polygon fill="none" stroke="black" points="180,-468 126,-468 126,-432 180,-432 180,-468"/>
<text text-anchor="middle" x="153" y="-446.3" font-family="Times,serif" font-size="14.00">&gt;</text>
</g>
<!-- N1&#45;&gt;N2 -->
<g id="edge3" class="edge">
<title>N1&#45;&gt;N2</title>
<path fill="none" stroke="black" d="M213.43,-539.97C201.85,-522.92 183.88,-496.46 170.54,-476.82"/>
<polygon fill="black" stroke="black" points="173.29,-474.65 164.78,-468.34 167.5,-478.58 173.29,-474.65"/>
</g>
<!-- N5 -->
<g id="node6" class="node">
<title>N5</title>
<polygon fill="none" stroke="black" points="337,-468 259,-468 259,-432 337,-432 337,-468"/>
<text text-anchor="middle" x="298" y="-446.3" font-family="Times,serif" font-size="14.00">ExprSeq</text>
</g>
<!-- N1&#45;&gt;N5 -->
<g id="edge11" class="edge">
<title>N1&#45;&gt;N5</title>
<path fill="none" stroke="black" d="M236.73,-539.97C248.47,-522.92 266.69,-496.46 280.22,-476.82"/>
<polygon fill="black" stroke="black" points="283.27,-478.56 286.06,-468.34 277.5,-474.59 283.27,-478.56"/>
</g>
<!-- N3 -->
<g id="node3" class="node">
<title>N3</title>
<polygon fill="none" stroke="black" points="54,-360 0,-360 0,-324 54,-324 54,-360"/>
<text text-anchor="middle" x="27" y="-338.3" font-family="Times,serif" font-size="14.00">10</text>
</g>
<!-- N4 -->
<g id="node4" class="node">
<title>N4</title>
<polygon fill="none" stroke="black" points="180,-360 126,-360 126,-324 180,-324 180,-360"/>
<text text-anchor="middle" x="153" y="-338.3" font-family="Times,serif" font-size="14.00">5</text>
</g>
<!-- N2&#45;&gt;N3 -->
<g id="edge1" class="edge">
<title>N2&#45;&gt;N3</title>
<path fill="none" stroke="black" d="M132.76,-431.97C111.85,-414.38 79.04,-386.78 55.51,-366.99"/>
<polygon fill="black" stroke="black" points="57.52,-364.1 47.61,-360.34 53.01,-369.46 57.52,-364.1"/>
</g>
<!-- N2&#45;&gt;N4 -->
<g id="edge2" class="edge">
<title>N2&#45;&gt;N4</title>
<path fill="none" stroke="black" d="M153,-431.97C153,-415.38 153,-389.88 153,-370.43"/>
<polygon fill="black" stroke="black" points="156.5,-370.34 153,-360.34 149.5,-370.34 156.5,-370.34"/>
</g>
<!-- N6 -->
<g id="node7" class="node">
<title>N6</title>
<polygon fill="none" stroke="black" points="358,-360 252,-360 252,-324 358,-324 358,-360"/>
<text text-anchor="middle" x="305" y="-338.3" font-family="Times,serif" font-size="14.00">AffectLvalue</text>
</g>
<!-- N5&#45;&gt;N6 -->
<g id="edge10" class="edge">
<title>N5&#45;&gt;N6</title>
<path fill="none" stroke="black" d="M299.12,-431.97C300.22,-415.38 301.9,-389.88 303.19,-370.43"/>
<polygon fill="black" stroke="black" points="306.69,-370.55 303.85,-360.34 299.7,-370.09 306.69,-370.55"/>
</g>
<!-- N7 -->
<g id="node8" class="node">
<title>N7</title>
<polygon fill="none" stroke="black" points="271,-252 207,-252 207,-216 271,-216 271,-252"/>
<text text-anchor="middle" x="239" y="-230.3" font-family="Times,serif" font-size="14.00">Lvalue</text>
</g>
<!-- N6&#45;&gt;N7 -->
<g id="edge5" class="edge">
<title>N6&#45;&gt;N7</title>
<path fill="none" stroke="black" d="M294.4,-323.97C283.83,-306.99 267.45,-280.7 255.24,-261.09"/>
<polygon fill="black" stroke="black" points="258.05,-258.98 249.8,-252.34 252.11,-262.68 258.05,-258.98"/>
</g>
<!-- N9 -->
<g id="node13" class="node">
<title>N9</title>
<polygon fill="none" stroke="black" points="397,-252 343,-252 343,-216 397,-216 397,-252"/>
<text text-anchor="middle" x="370" y="-230.3" font-family="Times,serif" font-size="14.00">+</text>
</g>
<!-- N6&#45;&gt;N9 -->
<g id="edge9" class="edge">
<title>N6&#45;&gt;N9</title>
<path fill="none" stroke="black" d="M315.44,-323.97C325.85,-306.99 341.98,-280.7 354,-261.09"/>
<polygon fill="black" stroke="black" points="357.12,-262.7 359.37,-252.34 351.16,-259.04 357.12,-262.7"/>
</g>
<!-- N8 -->
<g id="node9" class="node">
<title>N8</title>
<polygon fill="none" stroke="black" points="266,-144 212,-144 212,-108 266,-108 266,-144"/>
<text text-anchor="middle" x="239" y="-122.3" font-family="Times,serif" font-size="14.00">i</text>
</g>
<!-- N7&#45;&gt;N8 -->
<g id="edge4" class="edge">
<title>N7&#45;&gt;N8</title>
<path fill="none" stroke="black" d="M239,-215.97C239,-199.38 239,-173.88 239,-154.43"/>
<polygon fill="black" stroke="black" points="242.5,-154.34 239,-144.34 235.5,-154.34 242.5,-154.34"/>
</g>
<!-- N10 -->
<g id="node10" class="node">
<title>N10</title>
<polygon fill="none" stroke="black" points="402,-144 338,-144 338,-108 402,-108 402,-144"/>
<text text-anchor="middle" x="370" y="-122.3" font-family="Times,serif" font-size="14.00">Lvalue</text>
</g>
<!-- N11 -->
<g id="node11" class="node">
<title>N11</title>
<polygon fill="none" stroke="black" points="397,-36 343,-36 343,0 397,0 397,-36"/>
<text text-anchor="middle" x="370" y="-14.3" font-family="Times,serif" font-size="14.00">i</text>
</g>
<!-- N10&#45;&gt;N11 -->
<g id="edge6" class="edge">
<title>N10&#45;&gt;N11</title>
<path fill="none" stroke="black" d="M370,-107.97C370,-91.38 370,-65.88 370,-46.43"/>
<polygon fill="black" stroke="black" points="373.5,-46.34 370,-36.34 366.5,-46.34 373.5,-46.34"/>
</g>
<!-- N12 -->
<g id="node12" class="node">
<title>N12</title>
<polygon fill="none" stroke="black" points="528,-144 474,-144 474,-108 528,-108 528,-144"/>
<text text-anchor="middle" x="501" y="-122.3" font-family="Times,serif" font-size="14.00">1</text>
</g>
<!-- N9&#45;&gt;N10 -->
<g id="edge7" class="edge">
<title>N9&#45;&gt;N10</title>
<path fill="none" stroke="black" d="M370,-215.97C370,-199.38 370,-173.88 370,-154.43"/>
<polygon fill="black" stroke="black" points="373.5,-154.34 370,-144.34 366.5,-154.34 373.5,-154.34"/>
</g>
<!-- N9&#45;&gt;N12 -->
<g id="edge8" class="edge">
<title>N9&#45;&gt;N12</title>
<path fill="none" stroke="black" d="M391.05,-215.97C412.88,-198.3 447.19,-170.54 471.68,-150.73"/>
<polygon fill="black" stroke="black" points="474,-153.35 479.57,-144.34 469.59,-147.91 474,-153.35"/>
</g>
</g>
</svg>
