<?xml version="1.0" encoding="UTF-8" standalone="no"?>
<!DOCTYPE svg PUBLIC "-//W3C//DTD SVG 1.1//EN"
 "http://www.w3.org/Graphics/SVG/1.1/DTD/svg11.dtd">
<!-- Generated by graphviz version 2.43.0 (0)
 -->
<!-- Title: ast Pages: 1 -->
<svg width="665pt" height="692pt"
 viewBox="0.00 0.00 665.00 692.00" xmlns="http://www.w3.org/2000/svg" xmlns:xlink="http://www.w3.org/1999/xlink">
<g id="graph0" class="graph" transform="scale(1 1) rotate(0) translate(4 688)">
<title>ast</title>
<polygon fill="white" stroke="transparent" points="-4,4 -4,-688 661,-688 661,4 -4,4"/>
<!-- N0 -->
<g id="node1" class="node">
<title>N0</title>
<polygon fill="none" stroke="black" points="322.5,-684 243.5,-684 243.5,-648 322.5,-648 322.5,-684"/>
<text text-anchor="middle" x="283" y="-662.3" font-family="Times,serif" font-size="14.00">Program</text>
</g>
<!-- N1 -->
<g id="node2" class="node">
<title>N1</title>
<polygon fill="none" stroke="black" points="247.5,-576 164.5,-576 164.5,-540 247.5,-540 247.5,-576"/>
<text text-anchor="middle" x="206" y="-554.3" font-family="Times,serif" font-size="14.00">LetInEnd</text>
</g>
<!-- N0&#45;&gt;N1 -->
<g id="edge5" class="edge">
<title>N0&#45;&gt;N1</title>
<path fill="none" stroke="black" d="M270.63,-647.97C258.19,-630.84 238.85,-604.22 224.57,-584.56"/>
<polygon fill="black" stroke="black" points="227.31,-582.37 218.6,-576.34 221.64,-586.49 227.31,-582.37"/>
</g>
<!-- N6 -->
<g id="node7" class="node">
<title>N6</title>
<polygon fill="none" stroke="black" points="423.5,-576 340.5,-576 340.5,-540 423.5,-540 423.5,-576"/>
<text text-anchor="middle" x="382" y="-554.3" font-family="Times,serif" font-size="14.00">LetInEnd</text>
</g>
<!-- N0&#45;&gt;N6 -->
<g id="edge16" class="edge">
<title>N0&#45;&gt;N6</title>
<path fill="none" stroke="black" d="M298.91,-647.97C315.12,-630.61 340.44,-603.5 358.87,-583.77"/>
<polygon fill="black" stroke="black" points="361.54,-586.04 365.8,-576.34 356.42,-581.26 361.54,-586.04"/>
</g>
<!-- N2 -->
<g id="node3" class="node">
<title>N2</title>
<polygon fill="none" stroke="black" points="237,-468 111,-468 111,-432 237,-432 237,-468"/>
<text text-anchor="middle" x="174" y="-446.3" font-family="Times,serif" font-size="14.00">DeclarationList</text>
</g>
<!-- N1&#45;&gt;N2 -->
<g id="edge4" class="edge">
<title>N1&#45;&gt;N2</title>
<path fill="none" stroke="black" d="M200.86,-539.97C195.83,-523.3 188.08,-497.65 182.2,-478.16"/>
<polygon fill="black" stroke="black" points="185.48,-476.9 179.23,-468.34 178.77,-478.93 185.48,-476.9"/>
</g>
<!-- N3 -->
<g id="node4" class="node">
<title>N3</title>
<polygon fill="none" stroke="black" points="190,-360 116,-360 116,-324 190,-324 190,-360"/>
<text text-anchor="middle" x="153" y="-338.3" font-family="Times,serif" font-size="14.00">Dec_Var</text>
</g>
<!-- N2&#45;&gt;N3 -->
<g id="edge3" class="edge">
<title>N2&#45;&gt;N3</title>
<path fill="none" stroke="black" d="M170.63,-431.97C167.32,-415.3 162.24,-389.65 158.38,-370.16"/>
<polygon fill="black" stroke="black" points="161.81,-369.47 156.44,-360.34 154.95,-370.83 161.81,-369.47"/>
</g>
<!-- N4 -->
<g id="node5" class="node">
<title>N4</title>
<polygon fill="none" stroke="black" points="54,-252 0,-252 0,-216 54,-216 54,-252"/>
<text text-anchor="middle" x="27" y="-230.3" font-family="Times,serif" font-size="14.00">a</text>
</g>
<!-- N3&#45;&gt;N4 -->
<g id="edge1" class="edge">
<title>N3&#45;&gt;N4</title>
<path fill="none" stroke="black" d="M132.76,-323.97C111.85,-306.38 79.04,-278.78 55.51,-258.99"/>
<polygon fill="black" stroke="black" points="57.52,-256.1 47.61,-252.34 53.01,-261.46 57.52,-256.1"/>
</g>
<!-- N5 -->
<g id="node6" class="node">
<title>N5</title>
<polygon fill="none" stroke="black" points="180,-252 126,-252 126,-216 180,-216 180,-252"/>
<text text-anchor="middle" x="153" y="-230.3" font-family="Times,serif" font-size="14.00">1</text>
</g>
<!-- N3&#45;&gt;N5 -->
<g id="edge2" class="edge">
<title>N3&#45;&gt;N5</title>
<path fill="none" stroke="black" d="M153,-323.97C153,-307.38 153,-281.88 153,-262.43"/>
<polygon fill="black" stroke="black" points="156.5,-262.34 153,-252.34 149.5,-262.34 156.5,-262.34"/>
</g>
<!-- N7 -->
<g id="node8" class="node">
<title>N7</title>
<polygon fill="none" stroke="black" points="445,-468 319,-468 319,-432 445,-432 445,-468"/>
<text text-anchor="middle" x="382" y="-446.3" font-family="Times,serif" font-size="14.00">DeclarationList</text>
</g>
<!-- N6&#45;&gt;N7 -->
<g id="edge9" class="edge">
<title>N6&#45;&gt;N7</title>
<path fill="none" stroke="black" d="M382,-539.97C382,-523.38 382,-497.88 382,-478.43"/>
<polygon fill="black" stroke="black" points="385.5,-478.34 382,-468.34 378.5,-478.34 385.5,-478.34"/>
</g>
<!-- N11 -->
<g id="node12" class="node">
<title>N11</title>
<polygon fill="none" stroke="black" points="600,-468 522,-468 522,-432 600,-432 600,-468"/>
<text text-anchor="middle" x="561" y="-446.3" font-family="Times,serif" font-size="14.00">ExprSeq</text>
</g>
<!-- N6&#45;&gt;N11 -->
<g id="edge15" class="edge">
<title>N6&#45;&gt;N11</title>
<path fill="none" stroke="black" d="M410.76,-539.97C441.33,-521.86 489.81,-493.16 523.39,-473.27"/>
<polygon fill="black" stroke="black" points="525.19,-476.27 532.02,-468.16 521.63,-470.25 525.19,-476.27"/>
</g>
<!-- N8 -->
<g id="node9" class="node">
<title>N8</title>
<polygon fill="none" stroke="black" points="419,-360 345,-360 345,-324 419,-324 419,-360"/>
<text text-anchor="middle" x="382" y="-338.3" font-family="Times,serif" font-size="14.00">Dec_Var</text>
</g>
<!-- N7&#45;&gt;N8 -->
<g id="edge8" class="edge">
<title>N7&#45;&gt;N8</title>
<path fill="none" stroke="black" d="M382,-431.97C382,-415.38 382,-389.88 382,-370.43"/>
<polygon fill="black" stroke="black" points="385.5,-370.34 382,-360.34 378.5,-370.34 385.5,-370.34"/>
</g>
<!-- N9 -->
<g id="node10" class="node">
<title>N9</title>
<polygon fill="none" stroke="black" points="306,-252 252,-252 252,-216 306,-216 306,-252"/>
<text text-anchor="middle" x="279" y="-230.3" font-family="Times,serif" font-size="14.00">b</text>
</g>
<!-- N8&#45;&gt;N9 -->
<g id="edge6" class="edge">
<title>N8&#45;&gt;N9</title>
<path fill="none" stroke="black" d="M365.45,-323.97C348.58,-306.61 322.24,-279.5 303.07,-259.77"/>
<polygon fill="black" stroke="black" points="305.33,-257.07 295.85,-252.34 300.31,-261.95 305.33,-257.07"/>
</g>
<!-- N10 -->
<g id="node11" class="node">
<title>N10</title>
<polygon fill="none" stroke="black" points="432,-252 378,-252 378,-216 432,-216 432,-252"/>
<text text-anchor="middle" x="405" y="-230.3" font-family="Times,serif" font-size="14.00">2</text>
</g>
<!-- N8&#45;&gt;N10 -->
<g id="edge7" class="edge">
<title>N8&#45;&gt;N10</title>
<path fill="none" stroke="black" d="M385.7,-323.97C389.31,-307.3 394.88,-281.65 399.11,-262.16"/>
<polygon fill="black" stroke="black" points="402.54,-262.86 401.24,-252.34 395.7,-261.37 402.54,-262.86"/>
</g>
<!-- N12 -->
<g id="node13" class="node">
<title>N12</title>
<polygon fill="none" stroke="black" points="605.5,-360 522.5,-360 522.5,-324 605.5,-324 605.5,-360"/>
<text text-anchor="middle" x="564" y="-338.3" font-family="Times,serif" font-size="14.00">LetInEnd</text>
</g>
<!-- N11&#45;&gt;N12 -->
<g id="edge14" class="edge">
<title>N11&#45;&gt;N12</title>
<path fill="none" stroke="black" d="M561.48,-431.97C561.95,-415.38 562.67,-389.88 563.22,-370.43"/>
<polygon fill="black" stroke="black" points="566.72,-370.44 563.51,-360.34 559.73,-370.24 566.72,-370.44"/>
</g>
<!-- N13 -->
<g id="node14" class="node">
<title>N13</title>
<polygon fill="none" stroke="black" points="630,-252 504,-252 504,-216 630,-216 630,-252"/>
<text text-anchor="middle" x="567" y="-230.3" font-family="Times,serif" font-size="14.00">DeclarationList</text>
</g>
<!-- N12&#45;&gt;N13 -->
<g id="edge13" class="edge">
<title>N12&#45;&gt;N13</title>
<path fill="none" stroke="black" d="M564.48,-323.97C564.95,-307.38 565.67,-281.88 566.22,-262.43"/>
<polygon fill="black" stroke="black" points="569.72,-262.44 566.51,-252.34 562.73,-262.24 569.72,-262.44"/>
</g>
<!-- N14 -->
<g id="node15" class="node">
<title>N14</title>
<polygon fill="none" stroke="black" points="604,-144 530,-144 530,-108 604,-108 604,-144"/>
<text text-anchor="middle" x="567" y="-122.3" font-family="Times,serif" font-size="14.00">Dec_Var</text>
</g>
<!-- N13&#45;&gt;N14 -->
<g id="edge12" class="edge">
<title>N13&#45;&gt;N14</title>
<path fill="none" stroke="black" d="M567,-215.97C567,-199.38 567,-173.88 567,-154.43"/>
<polygon fill="black" stroke="black" points="570.5,-154.34 567,-144.34 563.5,-154.34 570.5,-154.34"/>
</g>
<!-- N15 -->
<g id="node16" class="node">
<title>N15</title>
<polygon fill="none" stroke="black" points="531,-36 477,-36 477,0 531,0 531,-36"/>
<text text-anchor="middle" x="504" y="-14.3" font-family="Times,serif" font-size="14.00">c</text>
</g>
<!-- N14&#45;&gt;N15 -->
<g id="edge10" class="edge">
<title>N14&#45;&gt;N15</title>
<path fill="none" stroke="black" d="M556.88,-107.97C546.79,-90.99 531.16,-64.7 519.51,-45.09"/>
<polygon fill="black" stroke="black" points="522.42,-43.15 514.31,-36.34 516.41,-46.73 522.42,-43.15"/>
</g>
<!-- N16 -->
<g id="node17" class="node">
<title>N16</title>
<polygon fill="none" stroke="black" points="657,-36 603,-36 603,0 657,0 657,-36"/>
<text text-anchor="middle" x="630" y="-14.3" font-family="Times,serif" font-size="14.00">3</text>
</g>
<!-- N14&#45;&gt;N16 -->
<g id="edge11" class="edge">
<title>N14&#45;&gt;N16</title>
<path fill="none" stroke="black" d="M577.12,-107.97C587.21,-90.99 602.84,-64.7 614.49,-45.09"/>
<polygon fill="black" stroke="black" points="617.59,-46.73 619.69,-36.34 611.58,-43.15 617.59,-46.73"/>
</g>
</g>
</svg>
