<?xml version="1.0" encoding="UTF-8" standalone="no"?>
<!DOCTYPE svg PUBLIC "-//W3C//DTD SVG 1.1//EN"
 "http://www.w3.org/Graphics/SVG/1.1/DTD/svg11.dtd">
<!-- Generated by graphviz version 2.43.0 (0)
 -->
<!-- Title: ast Pages: 1 -->
<svg width="681pt" height="476pt"
 viewBox="0.00 0.00 681.00 476.00" xmlns="http://www.w3.org/2000/svg" xmlns:xlink="http://www.w3.org/1999/xlink">
<g id="graph0" class="graph" transform="scale(1 1) rotate(0) translate(4 472)">
<title>ast</title>
<polygon fill="white" stroke="transparent" points="-4,4 -4,-472 677,-472 677,4 -4,4"/>
<!-- N0 -->
<g id="node1" class="node">
<title>N0</title>
<polygon fill="none" stroke="black" points="365,-468 286,-468 286,-432 365,-432 365,-468"/>
<text text-anchor="middle" x="325.5" y="-446.3" font-family="Times,serif" font-size="14.00">Program</text>
</g>
<!-- N1 -->
<g id="node2" class="node">
<title>N1</title>
<polygon fill="none" stroke="black" points="357.5,-360 293.5,-360 293.5,-324 357.5,-324 357.5,-360"/>
<text text-anchor="middle" x="325.5" y="-338.3" font-family="Times,serif" font-size="14.00">Lvalue</text>
</g>
<!-- N0&#45;&gt;N1 -->
<g id="edge10" class="edge">
<title>N0&#45;&gt;N1</title>
<path fill="none" stroke="black" d="M325.5,-431.97C325.5,-415.38 325.5,-389.88 325.5,-370.43"/>
<polygon fill="black" stroke="black" points="329,-370.34 325.5,-360.34 322,-370.34 329,-370.34"/>
</g>
<!-- N2 -->
<g id="node3" class="node">
<title>N2</title>
<polygon fill="none" stroke="black" points="59,-252 0,-252 0,-216 59,-216 59,-252"/>
<text text-anchor="middle" x="29.5" y="-230.3" font-family="Times,serif" font-size="14.00">struct</text>
</g>
<!-- N1&#45;&gt;N2 -->
<g id="edge1" class="edge">
<title>N1&#45;&gt;N2</title>
<path fill="none" stroke="black" d="M293.26,-329.45C238.59,-309.88 127.88,-270.23 68.77,-249.06"/>
<polygon fill="black" stroke="black" points="69.65,-245.66 59.05,-245.58 67.29,-252.25 69.65,-245.66"/>
</g>
<!-- N3 -->
<g id="node4" class="node">
<title>N3</title>
<polygon fill="none" stroke="black" points="217.5,-252 131.5,-252 131.5,-216 217.5,-216 217.5,-252"/>
<text text-anchor="middle" x="174.5" y="-230.3" font-family="Times,serif" font-size="14.00">Subscript</text>
</g>
<!-- N1&#45;&gt;N3 -->
<g id="edge4" class="edge">
<title>N1&#45;&gt;N3</title>
<path fill="none" stroke="black" d="M301.24,-323.97C275.85,-306.15 235.84,-278.06 207.57,-258.21"/>
<polygon fill="black" stroke="black" points="209.4,-255.22 199.2,-252.34 205.38,-260.95 209.4,-255.22"/>
</g>
<!-- N6 -->
<g id="node7" class="node">
<title>N6</title>
<polygon fill="none" stroke="black" points="361,-252 290,-252 290,-216 361,-216 361,-252"/>
<text text-anchor="middle" x="325.5" y="-230.3" font-family="Times,serif" font-size="14.00">matrice</text>
</g>
<!-- N1&#45;&gt;N6 -->
<g id="edge5" class="edge">
<title>N1&#45;&gt;N6</title>
<path fill="none" stroke="black" d="M325.5,-323.97C325.5,-307.38 325.5,-281.88 325.5,-262.43"/>
<polygon fill="black" stroke="black" points="329,-262.34 325.5,-252.34 322,-262.34 329,-262.34"/>
</g>
<!-- N7 -->
<g id="node8" class="node">
<title>N7</title>
<polygon fill="none" stroke="black" points="519.5,-252 433.5,-252 433.5,-216 519.5,-216 519.5,-252"/>
<text text-anchor="middle" x="476.5" y="-230.3" font-family="Times,serif" font-size="14.00">Subscript</text>
</g>
<!-- N1&#45;&gt;N7 -->
<g id="edge8" class="edge">
<title>N1&#45;&gt;N7</title>
<path fill="none" stroke="black" d="M349.76,-323.97C375.15,-306.15 415.16,-278.06 443.43,-258.21"/>
<polygon fill="black" stroke="black" points="445.62,-260.95 451.8,-252.34 441.6,-255.22 445.62,-260.95"/>
</g>
<!-- N10 -->
<g id="node11" class="node">
<title>N10</title>
<polygon fill="none" stroke="black" points="673,-252 592,-252 592,-216 673,-216 673,-252"/>
<text text-anchor="middle" x="632.5" y="-230.3" font-family="Times,serif" font-size="14.00">listName</text>
</g>
<!-- N1&#45;&gt;N10 -->
<g id="edge9" class="edge">
<title>N1&#45;&gt;N10</title>
<path fill="none" stroke="black" d="M357.77,-329.86C411.26,-311.39 518.65,-274.31 582.17,-252.38"/>
<polygon fill="black" stroke="black" points="583.66,-255.57 591.97,-248.99 581.37,-248.95 583.66,-255.57"/>
</g>
<!-- N4 -->
<g id="node5" class="node">
<title>N4</title>
<polygon fill="none" stroke="black" points="138.5,-144 84.5,-144 84.5,-108 138.5,-108 138.5,-144"/>
<text text-anchor="middle" x="111.5" y="-122.3" font-family="Times,serif" font-size="14.00">0</text>
</g>
<!-- N3&#45;&gt;N4 -->
<g id="edge2" class="edge">
<title>N3&#45;&gt;N4</title>
<path fill="none" stroke="black" d="M164.38,-215.97C154.29,-198.99 138.66,-172.7 127.01,-153.09"/>
<polygon fill="black" stroke="black" points="129.92,-151.15 121.81,-144.34 123.91,-154.73 129.92,-151.15"/>
</g>
<!-- N5 -->
<g id="node6" class="node">
<title>N5</title>
<polygon fill="none" stroke="black" points="264.5,-144 210.5,-144 210.5,-108 264.5,-108 264.5,-144"/>
<text text-anchor="middle" x="237.5" y="-122.3" font-family="Times,serif" font-size="14.00">1</text>
</g>
<!-- N3&#45;&gt;N5 -->
<g id="edge3" class="edge">
<title>N3&#45;&gt;N5</title>
<path fill="none" stroke="black" d="M184.62,-215.97C194.71,-198.99 210.34,-172.7 221.99,-153.09"/>
<polygon fill="black" stroke="black" points="225.09,-154.73 227.19,-144.34 219.08,-151.15 225.09,-154.73"/>
</g>
<!-- N8 -->
<g id="node9" class="node">
<title>N8</title>
<polygon fill="none" stroke="black" points="508.5,-144 444.5,-144 444.5,-108 508.5,-108 508.5,-144"/>
<text text-anchor="middle" x="476.5" y="-122.3" font-family="Times,serif" font-size="14.00">Lvalue</text>
</g>
<!-- N7&#45;&gt;N8 -->
<g id="edge7" class="edge">
<title>N7&#45;&gt;N8</title>
<path fill="none" stroke="black" d="M476.5,-215.97C476.5,-199.38 476.5,-173.88 476.5,-154.43"/>
<polygon fill="black" stroke="black" points="480,-154.34 476.5,-144.34 473,-154.34 480,-154.34"/>
</g>
<!-- N9 -->
<g id="node10" class="node">
<title>N9</title>
<polygon fill="none" stroke="black" points="506,-36 447,-36 447,0 506,0 506,-36"/>
<text text-anchor="middle" x="476.5" y="-14.3" font-family="Times,serif" font-size="14.00">indice</text>
</g>
<!-- N8&#45;&gt;N9 -->
<g id="edge6" class="edge">
<title>N8&#45;&gt;N9</title>
<path fill="none" stroke="black" d="M476.5,-107.97C476.5,-91.38 476.5,-65.88 476.5,-46.43"/>
<polygon fill="black" stroke="black" points="480,-46.34 476.5,-36.34 473,-46.34 480,-46.34"/>
</g>
</g>
</svg>
