<?xml version="1.0" encoding="UTF-8" standalone="no"?>
<!DOCTYPE svg PUBLIC "-//W3C//DTD SVG 1.1//EN"
 "http://www.w3.org/Graphics/SVG/1.1/DTD/svg11.dtd">
<!-- Generated by graphviz version 2.43.0 (0)
 -->
<!-- Title: ast Pages: 1 -->
<svg width="188pt" height="260pt"
 viewBox="0.00 0.00 188.00 260.00" xmlns="http://www.w3.org/2000/svg" xmlns:xlink="http://www.w3.org/1999/xlink">
<g id="graph0" class="graph" transform="scale(1 1) rotate(0) translate(4 256)">
<title>ast</title>
<polygon fill="white" stroke="transparent" points="-4,4 -4,-256 184,-256 184,4 -4,4"/>
<!-- N0 -->
<g id="node1" class="node">
<title>N0</title>
<polygon fill="none" stroke="black" points="129.5,-252 50.5,-252 50.5,-216 129.5,-216 129.5,-252"/>
<text text-anchor="middle" x="90" y="-230.3" font-family="Times,serif" font-size="14.00">Program</text>
</g>
<!-- N1 -->
<g id="node4" class="node">
<title>N1</title>
<polygon fill="none" stroke="black" points="121,-144 59,-144 59,-108 121,-108 121,-144"/>
<text text-anchor="middle" x="90" y="-122.3" font-family="Times,serif" font-size="14.00">IfThen</text>
</g>
<!-- N0&#45;&gt;N1 -->
<g id="edge3" class="edge">
<title>N0&#45;&gt;N1</title>
<path fill="none" stroke="black" d="M90,-215.97C90,-199.38 90,-173.88 90,-154.43"/>
<polygon fill="black" stroke="black" points="93.5,-154.34 90,-144.34 86.5,-154.34 93.5,-154.34"/>
</g>
<!-- N2 -->
<g id="node2" class="node">
<title>N2</title>
<polygon fill="none" stroke="black" points="54,-36 0,-36 0,0 54,0 54,-36"/>
<text text-anchor="middle" x="27" y="-14.3" font-family="Times,serif" font-size="14.00">1</text>
</g>
<!-- N3 -->
<g id="node3" class="node">
<title>N3</title>
<polygon fill="none" stroke="black" points="180,-36 126,-36 126,0 180,0 180,-36"/>
<text text-anchor="middle" x="153" y="-14.3" font-family="Times,serif" font-size="14.00">1</text>
</g>
<!-- N1&#45;&gt;N2 -->
<g id="edge1" class="edge">
<title>N1&#45;&gt;N2</title>
<path fill="none" stroke="black" d="M79.88,-107.97C69.79,-90.99 54.16,-64.7 42.51,-45.09"/>
<polygon fill="black" stroke="black" points="45.42,-43.15 37.31,-36.34 39.41,-46.73 45.42,-43.15"/>
</g>
<!-- N1&#45;&gt;N3 -->
<g id="edge2" class="edge">
<title>N1&#45;&gt;N3</title>
<path fill="none" stroke="black" d="M100.12,-107.97C110.21,-90.99 125.84,-64.7 137.49,-45.09"/>
<polygon fill="black" stroke="black" points="140.59,-46.73 142.69,-36.34 134.58,-43.15 140.59,-46.73"/>
</g>
</g>
</svg>
