<?xml version="1.0" encoding="UTF-8" standalone="no"?>
<!DOCTYPE svg PUBLIC "-//W3C//DTD SVG 1.1//EN"
 "http://www.w3.org/Graphics/SVG/1.1/DTD/svg11.dtd">
<!-- Generated by graphviz version 2.43.0 (0)
 -->
<!-- Title: ast Pages: 1 -->
<svg width="2458pt" height="1016pt"
 viewBox="0.00 0.00 2457.50 1016.00" xmlns="http://www.w3.org/2000/svg" xmlns:xlink="http://www.w3.org/1999/xlink">
<g id="graph0" class="graph" transform="scale(1 1) rotate(0) translate(4 1012)">
<title>ast</title>
<polygon fill="white" stroke="transparent" points="-4,4 -4,-1012 2453.5,-1012 2453.5,4 -4,4"/>
<!-- N0 -->
<g id="node1" class="node">
<title>N0</title>
<polygon fill="none" stroke="black" points="1406,-1008 1327,-1008 1327,-972 1406,-972 1406,-1008"/>
<text text-anchor="middle" x="1366.5" y="-986.3" font-family="Times,serif" font-size="14.00">Program</text>
</g>
<!-- N1 -->
<g id="node2" class="node">
<title>N1</title>
<polygon fill="none" stroke="black" points="1408,-900 1325,-900 1325,-864 1408,-864 1408,-900"/>
<text text-anchor="middle" x="1366.5" y="-878.3" font-family="Times,serif" font-size="14.00">LetInEnd</text>
</g>
<!-- N0&#45;&gt;N1 -->
<g id="edge50" class="edge">
<title>N0&#45;&gt;N1</title>
<path fill="none" stroke="black" d="M1366.5,-971.97C1366.5,-955.38 1366.5,-929.88 1366.5,-910.43"/>
<polygon fill="black" stroke="black" points="1370,-910.34 1366.5,-900.34 1363,-910.34 1370,-910.34"/>
</g>
<!-- N2 -->
<g id="node3" class="node">
<title>N2</title>
<polygon fill="none" stroke="black" points="1152.5,-792 1026.5,-792 1026.5,-756 1152.5,-756 1152.5,-792"/>
<text text-anchor="middle" x="1089.5" y="-770.3" font-family="Times,serif" font-size="14.00">DeclarationList</text>
</g>
<!-- N1&#45;&gt;N2 -->
<g id="edge31" class="edge">
<title>N1&#45;&gt;N2</title>
<path fill="none" stroke="black" d="M1324.73,-865.02C1276.5,-846.56 1197,-816.14 1143.95,-795.84"/>
<polygon fill="black" stroke="black" points="1144.96,-792.48 1134.37,-792.17 1142.46,-799.01 1144.96,-792.48"/>
</g>
<!-- N33 -->
<g id="node34" class="node">
<title>N33</title>
<polygon fill="none" stroke="black" points="1829.5,-792 1751.5,-792 1751.5,-756 1829.5,-756 1829.5,-792"/>
<text text-anchor="middle" x="1790.5" y="-770.3" font-family="Times,serif" font-size="14.00">ExprSeq</text>
</g>
<!-- N1&#45;&gt;N33 -->
<g id="edge49" class="edge">
<title>N1&#45;&gt;N33</title>
<path fill="none" stroke="black" d="M1408.32,-870.55C1487.21,-850.82 1657.65,-808.21 1741.66,-787.21"/>
<polygon fill="black" stroke="black" points="1742.61,-790.58 1751.47,-784.76 1740.92,-783.79 1742.61,-790.58"/>
</g>
<!-- N3 -->
<g id="node4" class="node">
<title>N3</title>
<polygon fill="none" stroke="black" points="404,-684 201,-684 201,-648 404,-648 404,-684"/>
<text text-anchor="middle" x="302.5" y="-662.3" font-family="Times,serif" font-size="14.00">DecFunctWithReturnType</text>
</g>
<!-- N2&#45;&gt;N3 -->
<g id="edge5" class="edge">
<title>N2&#45;&gt;N3</title>
<path fill="none" stroke="black" d="M1026.43,-764.5C893.28,-746.57 582,-704.65 414.28,-682.05"/>
<polygon fill="black" stroke="black" points="414.56,-678.56 404.18,-680.69 413.62,-685.5 414.56,-678.56"/>
</g>
<!-- N8 -->
<g id="node9" class="node">
<title>N8</title>
<polygon fill="none" stroke="black" points="753.5,-684 679.5,-684 679.5,-648 753.5,-648 753.5,-684"/>
<text text-anchor="middle" x="716.5" y="-662.3" font-family="Times,serif" font-size="14.00">Dec_Var</text>
</g>
<!-- N2&#45;&gt;N8 -->
<g id="edge9" class="edge">
<title>N2&#45;&gt;N8</title>
<path fill="none" stroke="black" d="M1029.57,-755.97C955.53,-734.93 831.09,-699.56 763.55,-680.37"/>
<polygon fill="black" stroke="black" points="764.19,-676.91 753.61,-677.55 762.27,-683.65 764.19,-676.91"/>
</g>
<!-- N12 -->
<g id="node13" class="node">
<title>N12</title>
<polygon fill="none" stroke="black" points="1191,-684 988,-684 988,-648 1191,-648 1191,-684"/>
<text text-anchor="middle" x="1089.5" y="-662.3" font-family="Times,serif" font-size="14.00">DecFunctWithReturnType</text>
</g>
<!-- N2&#45;&gt;N12 -->
<g id="edge25" class="edge">
<title>N2&#45;&gt;N12</title>
<path fill="none" stroke="black" d="M1089.5,-755.97C1089.5,-739.38 1089.5,-713.88 1089.5,-694.43"/>
<polygon fill="black" stroke="black" points="1093,-694.34 1089.5,-684.34 1086,-694.34 1093,-694.34"/>
</g>
<!-- N28 -->
<g id="node29" class="node">
<title>N28</title>
<polygon fill="none" stroke="black" points="1512.5,-684 1402.5,-684 1402.5,-648 1512.5,-648 1512.5,-684"/>
<text text-anchor="middle" x="1457.5" y="-662.3" font-family="Times,serif" font-size="14.00">DecFuncVoid</text>
</g>
<!-- N2&#45;&gt;N28 -->
<g id="edge30" class="edge">
<title>N2&#45;&gt;N28</title>
<path fill="none" stroke="black" d="M1148.63,-755.97C1215.34,-736.75 1323.52,-705.59 1392.54,-685.71"/>
<polygon fill="black" stroke="black" points="1393.79,-688.99 1402.43,-682.86 1391.85,-682.27 1393.79,-688.99"/>
</g>
<!-- N4 -->
<g id="node5" class="node">
<title>N4</title>
<polygon fill="none" stroke="black" points="77,-576 0,-576 0,-540 77,-540 77,-576"/>
<text text-anchor="middle" x="38.5" y="-554.3" font-family="Times,serif" font-size="14.00">fortytwo</text>
</g>
<!-- N3&#45;&gt;N4 -->
<g id="edge1" class="edge">
<title>N3&#45;&gt;N4</title>
<path fill="none" stroke="black" d="M260.08,-647.97C212.8,-628.99 136.49,-598.35 86.91,-578.44"/>
<polygon fill="black" stroke="black" points="87.95,-575.08 77.37,-574.61 85.35,-581.58 87.95,-575.08"/>
</g>
<!-- N5 -->
<g id="node6" class="node">
<title>N5</title>
<polygon fill="none" stroke="black" points="203.5,-576 149.5,-576 149.5,-540 203.5,-540 203.5,-576"/>
<text text-anchor="middle" x="176.5" y="-554.3" font-family="Times,serif" font-size="14.00">42</text>
</g>
<!-- N3&#45;&gt;N5 -->
<g id="edge2" class="edge">
<title>N3&#45;&gt;N5</title>
<path fill="none" stroke="black" d="M282.26,-647.97C261.35,-630.38 228.54,-602.78 205.01,-582.99"/>
<polygon fill="black" stroke="black" points="207.02,-580.1 197.11,-576.34 202.51,-585.46 207.02,-580.1"/>
</g>
<!-- N6 -->
<g id="node7" class="node">
<title>N6</title>
<polygon fill="none" stroke="black" points="329.5,-576 275.5,-576 275.5,-540 329.5,-540 329.5,-576"/>
<text text-anchor="middle" x="302.5" y="-554.3" font-family="Times,serif" font-size="14.00">int</text>
</g>
<!-- N3&#45;&gt;N6 -->
<g id="edge3" class="edge">
<title>N3&#45;&gt;N6</title>
<path fill="none" stroke="black" d="M302.5,-647.97C302.5,-631.38 302.5,-605.88 302.5,-586.43"/>
<polygon fill="black" stroke="black" points="306,-586.34 302.5,-576.34 299,-586.34 306,-586.34"/>
</g>
<!-- N7 -->
<g id="node8" class="node">
<title>N7</title>
<polygon fill="none" stroke="black" points="455.5,-576 401.5,-576 401.5,-540 455.5,-540 455.5,-576"/>
<text text-anchor="middle" x="428.5" y="-554.3" font-family="Times,serif" font-size="14.00">42</text>
</g>
<!-- N3&#45;&gt;N7 -->
<g id="edge4" class="edge">
<title>N3&#45;&gt;N7</title>
<path fill="none" stroke="black" d="M322.74,-647.97C343.65,-630.38 376.46,-602.78 399.99,-582.99"/>
<polygon fill="black" stroke="black" points="402.49,-585.46 407.89,-576.34 397.98,-580.1 402.49,-585.46"/>
</g>
<!-- N9 -->
<g id="node10" class="node">
<title>N9</title>
<polygon fill="none" stroke="black" points="605,-576 528,-576 528,-540 605,-540 605,-576"/>
<text text-anchor="middle" x="566.5" y="-554.3" font-family="Times,serif" font-size="14.00">fortytwo</text>
</g>
<!-- N8&#45;&gt;N9 -->
<g id="edge7" class="edge">
<title>N8&#45;&gt;N9</title>
<path fill="none" stroke="black" d="M692.4,-647.97C667.18,-630.15 627.43,-602.06 599.35,-582.21"/>
<polygon fill="black" stroke="black" points="601.23,-579.25 591.04,-576.34 597.19,-584.97 601.23,-579.25"/>
</g>
<!-- N10 -->
<g id="node11" class="node">
<title>N10</title>
<polygon fill="none" stroke="black" points="756,-576 677,-576 677,-540 756,-540 756,-576"/>
<text text-anchor="middle" x="716.5" y="-554.3" font-family="Times,serif" font-size="14.00">CallExpr</text>
</g>
<!-- N8&#45;&gt;N10 -->
<g id="edge8" class="edge">
<title>N8&#45;&gt;N10</title>
<path fill="none" stroke="black" d="M716.5,-647.97C716.5,-631.38 716.5,-605.88 716.5,-586.43"/>
<polygon fill="black" stroke="black" points="720,-586.34 716.5,-576.34 713,-586.34 720,-586.34"/>
</g>
<!-- N11 -->
<g id="node12" class="node">
<title>N11</title>
<polygon fill="none" stroke="black" points="755,-468 678,-468 678,-432 755,-432 755,-468"/>
<text text-anchor="middle" x="716.5" y="-446.3" font-family="Times,serif" font-size="14.00">fortytwo</text>
</g>
<!-- N10&#45;&gt;N11 -->
<g id="edge6" class="edge">
<title>N10&#45;&gt;N11</title>
<path fill="none" stroke="black" d="M716.5,-539.97C716.5,-523.38 716.5,-497.88 716.5,-478.43"/>
<polygon fill="black" stroke="black" points="720,-478.34 716.5,-468.34 713,-478.34 720,-478.34"/>
</g>
<!-- N13 -->
<g id="node14" class="node">
<title>N13</title>
<polygon fill="none" stroke="black" points="882.5,-576 828.5,-576 828.5,-540 882.5,-540 882.5,-576"/>
<text text-anchor="middle" x="855.5" y="-554.3" font-family="Times,serif" font-size="14.00">a</text>
</g>
<!-- N12&#45;&gt;N13 -->
<g id="edge10" class="edge">
<title>N12&#45;&gt;N13</title>
<path fill="none" stroke="black" d="M1051.9,-647.97C1007.94,-628.06 935.67,-595.32 892.13,-575.59"/>
<polygon fill="black" stroke="black" points="893.32,-572.29 882.77,-571.35 890.43,-578.67 893.32,-572.29"/>
</g>
<!-- N14 -->
<g id="node15" class="node">
<title>N14</title>
<polygon fill="none" stroke="black" points="1068.5,-576 954.5,-576 954.5,-540 1068.5,-540 1068.5,-576"/>
<text text-anchor="middle" x="1011.5" y="-554.3" font-family="Times,serif" font-size="14.00">TypeFieldList</text>
</g>
<!-- N12&#45;&gt;N14 -->
<g id="edge14" class="edge">
<title>N12&#45;&gt;N14</title>
<path fill="none" stroke="black" d="M1076.97,-647.97C1064.36,-630.84 1044.78,-604.22 1030.31,-584.56"/>
<polygon fill="black" stroke="black" points="1033.01,-582.32 1024.26,-576.34 1027.37,-586.47 1033.01,-582.32"/>
</g>
<!-- N18 -->
<g id="node19" class="node">
<title>N18</title>
<polygon fill="none" stroke="black" points="1194.5,-576 1140.5,-576 1140.5,-540 1194.5,-540 1194.5,-576"/>
<text text-anchor="middle" x="1167.5" y="-554.3" font-family="Times,serif" font-size="14.00">a</text>
</g>
<!-- N12&#45;&gt;N18 -->
<g id="edge15" class="edge">
<title>N12&#45;&gt;N18</title>
<path fill="none" stroke="black" d="M1102.03,-647.97C1114.64,-630.84 1134.22,-604.22 1148.69,-584.56"/>
<polygon fill="black" stroke="black" points="1151.63,-586.47 1154.74,-576.34 1145.99,-582.32 1151.63,-586.47"/>
</g>
<!-- N19 -->
<g id="node20" class="node">
<title>N19</title>
<polygon fill="none" stroke="black" points="1358,-576 1267,-576 1267,-540 1358,-540 1358,-576"/>
<text text-anchor="middle" x="1312.5" y="-554.3" font-family="Times,serif" font-size="14.00">RecCreate</text>
</g>
<!-- N12&#45;&gt;N19 -->
<g id="edge24" class="edge">
<title>N12&#45;&gt;N19</title>
<path fill="none" stroke="black" d="M1125.33,-647.97C1163.9,-629.63 1225.35,-600.42 1267.24,-580.51"/>
<polygon fill="black" stroke="black" points="1268.86,-583.62 1276.39,-576.16 1265.86,-577.3 1268.86,-583.62"/>
</g>
<!-- N15 -->
<g id="node16" class="node">
<title>N15</title>
<polygon fill="none" stroke="black" points="1055,-468 968,-468 968,-432 1055,-432 1055,-468"/>
<text text-anchor="middle" x="1011.5" y="-446.3" font-family="Times,serif" font-size="14.00">TypeField</text>
</g>
<!-- N14&#45;&gt;N15 -->
<g id="edge13" class="edge">
<title>N14&#45;&gt;N15</title>
<path fill="none" stroke="black" d="M1011.5,-539.97C1011.5,-523.38 1011.5,-497.88 1011.5,-478.43"/>
<polygon fill="black" stroke="black" points="1015,-478.34 1011.5,-468.34 1008,-478.34 1015,-478.34"/>
</g>
<!-- N16 -->
<g id="node17" class="node">
<title>N16</title>
<polygon fill="none" stroke="black" points="975.5,-360 921.5,-360 921.5,-324 975.5,-324 975.5,-360"/>
<text text-anchor="middle" x="948.5" y="-338.3" font-family="Times,serif" font-size="14.00">a</text>
</g>
<!-- N15&#45;&gt;N16 -->
<g id="edge11" class="edge">
<title>N15&#45;&gt;N16</title>
<path fill="none" stroke="black" d="M1001.38,-431.97C991.29,-414.99 975.66,-388.7 964.01,-369.09"/>
<polygon fill="black" stroke="black" points="966.92,-367.15 958.81,-360.34 960.91,-370.73 966.92,-367.15"/>
</g>
<!-- N17 -->
<g id="node18" class="node">
<title>N17</title>
<polygon fill="none" stroke="black" points="1101.5,-360 1047.5,-360 1047.5,-324 1101.5,-324 1101.5,-360"/>
<text text-anchor="middle" x="1074.5" y="-338.3" font-family="Times,serif" font-size="14.00">a</text>
</g>
<!-- N15&#45;&gt;N17 -->
<g id="edge12" class="edge">
<title>N15&#45;&gt;N17</title>
<path fill="none" stroke="black" d="M1021.62,-431.97C1031.71,-414.99 1047.34,-388.7 1058.99,-369.09"/>
<polygon fill="black" stroke="black" points="1062.09,-370.73 1064.19,-360.34 1056.08,-367.15 1062.09,-370.73"/>
</g>
<!-- N20 -->
<g id="node21" class="node">
<title>N20</title>
<polygon fill="none" stroke="black" points="1217.5,-468 1163.5,-468 1163.5,-432 1217.5,-432 1217.5,-468"/>
<text text-anchor="middle" x="1190.5" y="-446.3" font-family="Times,serif" font-size="14.00">a</text>
</g>
<!-- N19&#45;&gt;N20 -->
<g id="edge22" class="edge">
<title>N19&#45;&gt;N20</title>
<path fill="none" stroke="black" d="M1292.9,-539.97C1272.65,-522.38 1240.89,-494.78 1218.11,-474.99"/>
<polygon fill="black" stroke="black" points="1220.3,-472.26 1210.46,-468.34 1215.71,-477.54 1220.3,-472.26"/>
</g>
<!-- N21 -->
<g id="node22" class="node">
<title>N21</title>
<polygon fill="none" stroke="black" points="1395.5,-468 1289.5,-468 1289.5,-432 1395.5,-432 1395.5,-468"/>
<text text-anchor="middle" x="1342.5" y="-446.3" font-family="Times,serif" font-size="14.00">RecFieldList</text>
</g>
<!-- N19&#45;&gt;N21 -->
<g id="edge23" class="edge">
<title>N19&#45;&gt;N21</title>
<path fill="none" stroke="black" d="M1317.32,-539.97C1322.04,-523.3 1329.3,-497.65 1334.81,-478.16"/>
<polygon fill="black" stroke="black" points="1338.24,-478.92 1337.59,-468.34 1331.5,-477.01 1338.24,-478.92"/>
</g>
<!-- N22 -->
<g id="node28" class="node">
<title>N22</title>
<polygon fill="none" stroke="black" points="1408,-360 1277,-360 1277,-324 1408,-324 1408,-360"/>
<text text-anchor="middle" x="1342.5" y="-338.3" font-family="Times,serif" font-size="14.00">AffectVarInType</text>
</g>
<!-- N21&#45;&gt;N22 -->
<g id="edge21" class="edge">
<title>N21&#45;&gt;N22</title>
<path fill="none" stroke="black" d="M1342.5,-431.97C1342.5,-415.38 1342.5,-389.88 1342.5,-370.43"/>
<polygon fill="black" stroke="black" points="1346,-370.34 1342.5,-360.34 1339,-370.34 1346,-370.34"/>
</g>
<!-- N23 -->
<g id="node23" class="node">
<title>N23</title>
<polygon fill="none" stroke="black" points="1306.5,-252 1242.5,-252 1242.5,-216 1306.5,-216 1306.5,-252"/>
<text text-anchor="middle" x="1274.5" y="-230.3" font-family="Times,serif" font-size="14.00">Lvalue</text>
</g>
<!-- N24 -->
<g id="node24" class="node">
<title>N24</title>
<polygon fill="none" stroke="black" points="1301.5,-144 1247.5,-144 1247.5,-108 1301.5,-108 1301.5,-144"/>
<text text-anchor="middle" x="1274.5" y="-122.3" font-family="Times,serif" font-size="14.00">a</text>
</g>
<!-- N23&#45;&gt;N24 -->
<g id="edge16" class="edge">
<title>N23&#45;&gt;N24</title>
<path fill="none" stroke="black" d="M1274.5,-215.97C1274.5,-199.38 1274.5,-173.88 1274.5,-154.43"/>
<polygon fill="black" stroke="black" points="1278,-154.34 1274.5,-144.34 1271,-154.34 1278,-154.34"/>
</g>
<!-- N25 -->
<g id="node25" class="node">
<title>N25</title>
<polygon fill="none" stroke="black" points="1442.5,-252 1378.5,-252 1378.5,-216 1442.5,-216 1442.5,-252"/>
<text text-anchor="middle" x="1410.5" y="-230.3" font-family="Times,serif" font-size="14.00">Lvalue</text>
</g>
<!-- N26 -->
<g id="node26" class="node">
<title>N26</title>
<polygon fill="none" stroke="black" points="1432.5,-144 1378.5,-144 1378.5,-108 1432.5,-108 1432.5,-144"/>
<text text-anchor="middle" x="1405.5" y="-122.3" font-family="Times,serif" font-size="14.00">a</text>
</g>
<!-- N25&#45;&gt;N26 -->
<g id="edge17" class="edge">
<title>N25&#45;&gt;N26</title>
<path fill="none" stroke="black" d="M1409.7,-215.97C1408.91,-199.38 1407.71,-173.88 1406.79,-154.43"/>
<polygon fill="black" stroke="black" points="1410.29,-154.16 1406.32,-144.34 1403.29,-154.49 1410.29,-154.16"/>
</g>
<!-- N27 -->
<g id="node27" class="node">
<title>N27</title>
<polygon fill="none" stroke="black" points="1558.5,-144 1504.5,-144 1504.5,-108 1558.5,-108 1558.5,-144"/>
<text text-anchor="middle" x="1531.5" y="-122.3" font-family="Times,serif" font-size="14.00">a</text>
</g>
<!-- N25&#45;&gt;N27 -->
<g id="edge18" class="edge">
<title>N25&#45;&gt;N27</title>
<path fill="none" stroke="black" d="M1429.94,-215.97C1450.02,-198.38 1481.52,-170.78 1504.12,-150.99"/>
<polygon fill="black" stroke="black" points="1506.49,-153.56 1511.71,-144.34 1501.88,-148.3 1506.49,-153.56"/>
</g>
<!-- N22&#45;&gt;N23 -->
<g id="edge19" class="edge">
<title>N22&#45;&gt;N23</title>
<path fill="none" stroke="black" d="M1331.57,-323.97C1320.64,-306.92 1303.66,-280.46 1291.07,-260.82"/>
<polygon fill="black" stroke="black" points="1293.97,-258.87 1285.62,-252.34 1288.08,-262.65 1293.97,-258.87"/>
</g>
<!-- N22&#45;&gt;N25 -->
<g id="edge20" class="edge">
<title>N22&#45;&gt;N25</title>
<path fill="none" stroke="black" d="M1353.43,-323.97C1364.36,-306.92 1381.34,-280.46 1393.93,-260.82"/>
<polygon fill="black" stroke="black" points="1396.92,-262.65 1399.38,-252.34 1391.03,-258.87 1396.92,-262.65"/>
</g>
<!-- N29 -->
<g id="node30" class="node">
<title>N29</title>
<polygon fill="none" stroke="black" points="1484.5,-576 1430.5,-576 1430.5,-540 1484.5,-540 1484.5,-576"/>
<text text-anchor="middle" x="1457.5" y="-554.3" font-family="Times,serif" font-size="14.00">b</text>
</g>
<!-- N28&#45;&gt;N29 -->
<g id="edge28" class="edge">
<title>N28&#45;&gt;N29</title>
<path fill="none" stroke="black" d="M1457.5,-647.97C1457.5,-631.38 1457.5,-605.88 1457.5,-586.43"/>
<polygon fill="black" stroke="black" points="1461,-586.34 1457.5,-576.34 1454,-586.34 1461,-586.34"/>
</g>
<!-- N30 -->
<g id="node33" class="node">
<title>N30</title>
<polygon fill="none" stroke="black" points="1610.5,-576 1556.5,-576 1556.5,-540 1610.5,-540 1610.5,-576"/>
<text text-anchor="middle" x="1583.5" y="-554.3" font-family="Times,serif" font-size="14.00">*</text>
</g>
<!-- N28&#45;&gt;N30 -->
<g id="edge29" class="edge">
<title>N28&#45;&gt;N30</title>
<path fill="none" stroke="black" d="M1477.74,-647.97C1498.65,-630.38 1531.46,-602.78 1554.99,-582.99"/>
<polygon fill="black" stroke="black" points="1557.49,-585.46 1562.89,-576.34 1552.98,-580.1 1557.49,-585.46"/>
</g>
<!-- N31 -->
<g id="node31" class="node">
<title>N31</title>
<polygon fill="none" stroke="black" points="1551.5,-468 1497.5,-468 1497.5,-432 1551.5,-432 1551.5,-468"/>
<text text-anchor="middle" x="1524.5" y="-446.3" font-family="Times,serif" font-size="14.00">8</text>
</g>
<!-- N32 -->
<g id="node32" class="node">
<title>N32</title>
<polygon fill="none" stroke="black" points="1677.5,-468 1623.5,-468 1623.5,-432 1677.5,-432 1677.5,-468"/>
<text text-anchor="middle" x="1650.5" y="-446.3" font-family="Times,serif" font-size="14.00">2</text>
</g>
<!-- N30&#45;&gt;N31 -->
<g id="edge26" class="edge">
<title>N30&#45;&gt;N31</title>
<path fill="none" stroke="black" d="M1574.02,-539.97C1564.57,-522.99 1549.94,-496.7 1539.02,-477.09"/>
<polygon fill="black" stroke="black" points="1542.07,-475.38 1534.15,-468.34 1535.96,-478.78 1542.07,-475.38"/>
</g>
<!-- N30&#45;&gt;N32 -->
<g id="edge27" class="edge">
<title>N30&#45;&gt;N32</title>
<path fill="none" stroke="black" d="M1594.26,-539.97C1605.04,-522.92 1621.77,-496.46 1634.18,-476.82"/>
<polygon fill="black" stroke="black" points="1637.16,-478.66 1639.54,-468.34 1631.24,-474.92 1637.16,-478.66"/>
</g>
<!-- N34 -->
<g id="node36" class="node">
<title>N34</title>
<polygon fill="none" stroke="black" points="1748.5,-684 1694.5,-684 1694.5,-648 1748.5,-648 1748.5,-684"/>
<text text-anchor="middle" x="1721.5" y="-662.3" font-family="Times,serif" font-size="14.00">Print</text>
</g>
<!-- N33&#45;&gt;N34 -->
<g id="edge33" class="edge">
<title>N33&#45;&gt;N34</title>
<path fill="none" stroke="black" d="M1779.41,-755.97C1768.31,-738.92 1751.09,-712.46 1738.31,-692.82"/>
<polygon fill="black" stroke="black" points="1741.18,-690.81 1732.79,-684.34 1735.31,-694.63 1741.18,-690.81"/>
</g>
<!-- N36 -->
<g id="node37" class="node">
<title>N36</title>
<polygon fill="none" stroke="black" points="1900,-684 1821,-684 1821,-648 1900,-648 1900,-684"/>
<text text-anchor="middle" x="1860.5" y="-662.3" font-family="Times,serif" font-size="14.00">CallExpr</text>
</g>
<!-- N33&#45;&gt;N36 -->
<g id="edge37" class="edge">
<title>N33&#45;&gt;N36</title>
<path fill="none" stroke="black" d="M1801.75,-755.97C1813.01,-738.92 1830.48,-712.46 1843.45,-692.82"/>
<polygon fill="black" stroke="black" points="1846.46,-694.61 1849.05,-684.34 1840.62,-690.76 1846.46,-694.61"/>
</g>
<!-- N40 -->
<g id="node41" class="node">
<title>N40</title>
<polygon fill="none" stroke="black" points="2175,-684 2096,-684 2096,-648 2175,-648 2175,-684"/>
<text text-anchor="middle" x="2135.5" y="-662.3" font-family="Times,serif" font-size="14.00">CallExpr</text>
</g>
<!-- N33&#45;&gt;N40 -->
<g id="edge48" class="edge">
<title>N33&#45;&gt;N40</title>
<path fill="none" stroke="black" d="M1829.74,-760.94C1892.86,-741.55 2016.86,-703.45 2085.98,-682.21"/>
<polygon fill="black" stroke="black" points="2087.23,-685.49 2095.77,-679.21 2085.18,-678.8 2087.23,-685.49"/>
</g>
<!-- N35 -->
<g id="node35" class="node">
<title>N35</title>
<polygon fill="none" stroke="black" points="1760,-576 1683,-576 1683,-540 1760,-540 1760,-576"/>
<text text-anchor="middle" x="1721.5" y="-554.3" font-family="Times,serif" font-size="14.00">fortytwo</text>
</g>
<!-- N34&#45;&gt;N35 -->
<g id="edge32" class="edge">
<title>N34&#45;&gt;N35</title>
<path fill="none" stroke="black" d="M1721.5,-647.97C1721.5,-631.38 1721.5,-605.88 1721.5,-586.43"/>
<polygon fill="black" stroke="black" points="1725,-586.34 1721.5,-576.34 1718,-586.34 1725,-586.34"/>
</g>
<!-- N37 -->
<g id="node38" class="node">
<title>N37</title>
<polygon fill="none" stroke="black" points="1886.5,-576 1832.5,-576 1832.5,-540 1886.5,-540 1886.5,-576"/>
<text text-anchor="middle" x="1859.5" y="-554.3" font-family="Times,serif" font-size="14.00">a</text>
</g>
<!-- N36&#45;&gt;N37 -->
<g id="edge34" class="edge">
<title>N36&#45;&gt;N37</title>
<path fill="none" stroke="black" d="M1860.34,-647.97C1860.18,-631.38 1859.94,-605.88 1859.76,-586.43"/>
<polygon fill="black" stroke="black" points="1863.26,-586.31 1859.66,-576.34 1856.26,-586.37 1863.26,-586.31"/>
</g>
<!-- N38 -->
<g id="node39" class="node">
<title>N38</title>
<polygon fill="none" stroke="black" points="2036.5,-576 1958.5,-576 1958.5,-540 2036.5,-540 2036.5,-576"/>
<text text-anchor="middle" x="1997.5" y="-554.3" font-family="Times,serif" font-size="14.00">ExprList</text>
</g>
<!-- N36&#45;&gt;N38 -->
<g id="edge36" class="edge">
<title>N36&#45;&gt;N38</title>
<path fill="none" stroke="black" d="M1882.51,-647.97C1905.44,-630.23 1941.54,-602.3 1967.17,-582.47"/>
<polygon fill="black" stroke="black" points="1969.32,-585.23 1975.09,-576.34 1965.04,-579.69 1969.32,-585.23"/>
</g>
<!-- N39 -->
<g id="node40" class="node">
<title>N39</title>
<polygon fill="none" stroke="black" points="2024.5,-468 1970.5,-468 1970.5,-432 2024.5,-432 2024.5,-468"/>
<text text-anchor="middle" x="1997.5" y="-446.3" font-family="Times,serif" font-size="14.00">45</text>
</g>
<!-- N38&#45;&gt;N39 -->
<g id="edge35" class="edge">
<title>N38&#45;&gt;N39</title>
<path fill="none" stroke="black" d="M1997.5,-539.97C1997.5,-523.38 1997.5,-497.88 1997.5,-478.43"/>
<polygon fill="black" stroke="black" points="2001,-478.34 1997.5,-468.34 1994,-478.34 2001,-478.34"/>
</g>
<!-- N41 -->
<g id="node42" class="node">
<title>N41</title>
<polygon fill="none" stroke="black" points="2162.5,-576 2108.5,-576 2108.5,-540 2162.5,-540 2162.5,-576"/>
<text text-anchor="middle" x="2135.5" y="-554.3" font-family="Times,serif" font-size="14.00">a</text>
</g>
<!-- N40&#45;&gt;N41 -->
<g id="edge38" class="edge">
<title>N40&#45;&gt;N41</title>
<path fill="none" stroke="black" d="M2135.5,-647.97C2135.5,-631.38 2135.5,-605.88 2135.5,-586.43"/>
<polygon fill="black" stroke="black" points="2139,-586.34 2135.5,-576.34 2132,-586.34 2139,-586.34"/>
</g>
<!-- N42 -->
<g id="node43" class="node">
<title>N42</title>
<polygon fill="none" stroke="black" points="2312.5,-576 2234.5,-576 2234.5,-540 2312.5,-540 2312.5,-576"/>
<text text-anchor="middle" x="2273.5" y="-554.3" font-family="Times,serif" font-size="14.00">ExprList</text>
</g>
<!-- N40&#45;&gt;N42 -->
<g id="edge47" class="edge">
<title>N40&#45;&gt;N42</title>
<path fill="none" stroke="black" d="M2157.67,-647.97C2180.77,-630.23 2217.13,-602.3 2242.94,-582.47"/>
<polygon fill="black" stroke="black" points="2245.13,-585.21 2250.92,-576.34 2240.86,-579.66 2245.13,-585.21"/>
</g>
<!-- N43 -->
<g id="node44" class="node">
<title>N43</title>
<polygon fill="none" stroke="black" points="2319,-468 2228,-468 2228,-432 2319,-432 2319,-468"/>
<text text-anchor="middle" x="2273.5" y="-446.3" font-family="Times,serif" font-size="14.00">RecCreate</text>
</g>
<!-- N42&#45;&gt;N43 -->
<g id="edge46" class="edge">
<title>N42&#45;&gt;N43</title>
<path fill="none" stroke="black" d="M2273.5,-539.97C2273.5,-523.38 2273.5,-497.88 2273.5,-478.43"/>
<polygon fill="black" stroke="black" points="2277,-478.34 2273.5,-468.34 2270,-478.34 2277,-478.34"/>
</g>
<!-- N44 -->
<g id="node45" class="node">
<title>N44</title>
<polygon fill="none" stroke="black" points="2224.5,-360 2170.5,-360 2170.5,-324 2224.5,-324 2224.5,-360"/>
<text text-anchor="middle" x="2197.5" y="-338.3" font-family="Times,serif" font-size="14.00">a</text>
</g>
<!-- N43&#45;&gt;N44 -->
<g id="edge44" class="edge">
<title>N43&#45;&gt;N44</title>
<path fill="none" stroke="black" d="M2261.29,-431.97C2249.01,-414.84 2229.92,-388.22 2215.83,-368.56"/>
<polygon fill="black" stroke="black" points="2218.6,-366.43 2209.93,-360.34 2212.92,-370.51 2218.6,-366.43"/>
</g>
<!-- N45 -->
<g id="node46" class="node">
<title>N45</title>
<polygon fill="none" stroke="black" points="2402.5,-360 2296.5,-360 2296.5,-324 2402.5,-324 2402.5,-360"/>
<text text-anchor="middle" x="2349.5" y="-338.3" font-family="Times,serif" font-size="14.00">RecFieldList</text>
</g>
<!-- N43&#45;&gt;N45 -->
<g id="edge45" class="edge">
<title>N43&#45;&gt;N45</title>
<path fill="none" stroke="black" d="M2285.71,-431.97C2297.99,-414.84 2317.08,-388.22 2331.17,-368.56"/>
<polygon fill="black" stroke="black" points="2334.08,-370.51 2337.07,-360.34 2328.4,-366.43 2334.08,-370.51"/>
</g>
<!-- N46 -->
<g id="node51" class="node">
<title>N46</title>
<polygon fill="none" stroke="black" points="2415,-252 2284,-252 2284,-216 2415,-216 2415,-252"/>
<text text-anchor="middle" x="2349.5" y="-230.3" font-family="Times,serif" font-size="14.00">AffectVarInType</text>
</g>
<!-- N45&#45;&gt;N46 -->
<g id="edge43" class="edge">
<title>N45&#45;&gt;N46</title>
<path fill="none" stroke="black" d="M2349.5,-323.97C2349.5,-307.38 2349.5,-281.88 2349.5,-262.43"/>
<polygon fill="black" stroke="black" points="2353,-262.34 2349.5,-252.34 2346,-262.34 2353,-262.34"/>
</g>
<!-- N47 -->
<g id="node47" class="node">
<title>N47</title>
<polygon fill="none" stroke="black" points="2313.5,-144 2249.5,-144 2249.5,-108 2313.5,-108 2313.5,-144"/>
<text text-anchor="middle" x="2281.5" y="-122.3" font-family="Times,serif" font-size="14.00">Lvalue</text>
</g>
<!-- N48 -->
<g id="node48" class="node">
<title>N48</title>
<polygon fill="none" stroke="black" points="2308.5,-36 2254.5,-36 2254.5,0 2308.5,0 2308.5,-36"/>
<text text-anchor="middle" x="2281.5" y="-14.3" font-family="Times,serif" font-size="14.00">a</text>
</g>
<!-- N47&#45;&gt;N48 -->
<g id="edge39" class="edge">
<title>N47&#45;&gt;N48</title>
<path fill="none" stroke="black" d="M2281.5,-107.97C2281.5,-91.38 2281.5,-65.88 2281.5,-46.43"/>
<polygon fill="black" stroke="black" points="2285,-46.34 2281.5,-36.34 2278,-46.34 2285,-46.34"/>
</g>
<!-- N49 -->
<g id="node49" class="node">
<title>N49</title>
<polygon fill="none" stroke="black" points="2449.5,-144 2385.5,-144 2385.5,-108 2449.5,-108 2449.5,-144"/>
<text text-anchor="middle" x="2417.5" y="-122.3" font-family="Times,serif" font-size="14.00">Lvalue</text>
</g>
<!-- N50 -->
<g id="node50" class="node">
<title>N50</title>
<polygon fill="none" stroke="black" points="2444.5,-36 2390.5,-36 2390.5,0 2444.5,0 2444.5,-36"/>
<text text-anchor="middle" x="2417.5" y="-14.3" font-family="Times,serif" font-size="14.00">a</text>
</g>
<!-- N49&#45;&gt;N50 -->
<g id="edge40" class="edge">
<title>N49&#45;&gt;N50</title>
<path fill="none" stroke="black" d="M2417.5,-107.97C2417.5,-91.38 2417.5,-65.88 2417.5,-46.43"/>
<polygon fill="black" stroke="black" points="2421,-46.34 2417.5,-36.34 2414,-46.34 2421,-46.34"/>
</g>
<!-- N46&#45;&gt;N47 -->
<g id="edge41" class="edge">
<title>N46&#45;&gt;N47</title>
<path fill="none" stroke="black" d="M2338.57,-215.97C2327.64,-198.92 2310.66,-172.46 2298.07,-152.82"/>
<polygon fill="black" stroke="black" points="2300.97,-150.87 2292.62,-144.34 2295.08,-154.65 2300.97,-150.87"/>
</g>
<!-- N46&#45;&gt;N49 -->
<g id="edge42" class="edge">
<title>N46&#45;&gt;N49</title>
<path fill="none" stroke="black" d="M2360.43,-215.97C2371.36,-198.92 2388.34,-172.46 2400.93,-152.82"/>
<polygon fill="black" stroke="black" points="2403.92,-154.65 2406.38,-144.34 2398.03,-150.87 2403.92,-154.65"/>
</g>
</g>
</svg>
